<svg version="1.1" width="100%" height="850px" viewBox="0 0 501 850">
	<defs
     id="defs46">
    <linearGradient
       inkscape:collect="always"
       id="linearGradient58">
      <stop
         style="stop-color:#ffffff;stop-opacity:0.3;"
         offset="0"
         id="stop54" />
      <stop
         style="stop-color:#ffffff;stop-opacity:0;"
         offset="1"
         id="stop56" />
    </linearGradient>
    <radialGradient
       inkscape:collect="always"
       xlink:href="#linearGradient58"
       id="radialGradient60"
       cx="-486.20273"
       cy="938.32513"
       fx="-486.20273"
       fy="938.32513"
       r="467.02576"
       gradientTransform="matrix(1.3761075,-0.51119281,0.40337517,0.26735928,-226.46192,234.94989)"
       gradientUnits="userSpaceOnUse" />
  </defs>
<style type="text/css">
<![CDATA[
	.st1{fill:none;stroke:#FFFFFF;stroke-width:2;stroke-miterlimit:4;
	stroke-linecap: round; 
	stroke-linejoin: miter; 
	stroke-opacity: 1; 
	stroke-dasharray: 6000; stroke-dashoffset: 6000;}
]]>
</style>
<circle class="st1" style="fill: #fff" data--50-bottom="opacity:0" data-center-top="opacity:1" cx="750" cy="25" r="4.156"/>
<!--<circle class="st0" data--150-bottom="stroke-dashoffset:2000;" data-center-top="stroke-dashoffset:0;" cx="172.375" cy="25.375" r="9.156"/>-->
<line class="st1" data--50-bottom="stroke-dashoffset:6000;" data-center-top="stroke-dashoffset:0;" x1="750" y1="25" x2="750" y2="150"/>
<circle class="st1" style="fill: #fff" data--50-bottom="opacity:0" data-center-top="opacity:1" cx="750" cy="150" r="4.156"/>
<line class="st1" data-0="stroke-dashoffset:16000;" data--50-bottom="stroke-dashoffset:0;" x2="255" y1="150" x1="750" y2="516"/>
<circle class="st1" style="fill: #fff" data--50-bottom="opacity:0" data-center-top="opacity:1" cx="255" cy="516" r="4.156"/>
<!--<circle class="st0" data--150-bottom="stroke-dashoffset:2000;" data-center-top="stroke-dashoffset:0;" cx="750" cy="800" r="9.156"/> -->
<!--<line class="st0" data-0="stroke-dashoffset:6000;" data--10-bottom="stroke-dashoffset:0;" x1="116" y1="267.5" x2="161" y2="267.5"/>
<line class="st0" data-0="stroke-dashoffset:6000;" data--10-bottom="stroke-dashoffset:0;" x1="182" y1="267.5" x2="474" y2="267.5"/>-->
<rect
     style="fill:url(#radialGradient60);stroke-width:1.03240705;fill-opacity:1"
     id="rect52"
     width="934.05151"
     height="355.83936"
     x="-864.7923"
     y="372.28802"
     transform="matrix(0.81927607,-0.57339927,0.9482409,0.31755187,0,0)"
     data-0="opacity:0" data--800-bottom="opacity:0.8" />

<g
     id="g1031"
     transform="matrix(0.87295019,0,0,0.87295019,-206.62071,405.84381)" class="st2"
       data-bottom-top="fill-opacity:0;" data-bottom-bottom="fill-opacity:0.8;">
    <g
       id="g948">
  <g
   id="g946">
    <g
   id="g944">
      <path
   id="path892"
   d="m 466.608,448 11.848,-41.488 C 479.48,402.944 480,399.24 480,395.52 v -73.008 c 0,-2.088 -0.168,-4.168 -0.496,-6.24 l -9.984,-63.24 c -1.32,-8.4 -5.2,-16.016 -11.224,-22.048 L 412.28,184.976 C 406.496,179.184 398.816,176 390.624,176 c -14.6,0 -26.816,10.296 -29.856,24 H 135.232 c -3.04,-13.704 -15.256,-24 -29.856,-24 -8.184,0 -15.872,3.184 -21.656,8.976 L 37.704,230.984 C 31.68,237.008 27.8,244.632 26.48,253.032 l -9.992,63.256 C 16.168,318.344 16,320.424 16,322.512 v 73.008 c 0,3.72 0.52,7.424 1.536,10.992 L 29.392,448 H 0 v 48 h 128 v -48 h -24 v -22.056 c 0,-4.272 1.664,-8.288 4.688,-11.32 L 160,363.312 V 368 h 16 v -16 h -5.448 C 174.064,346.92 176,340.936 176,334.632 176,317.736 162.256,304 145.376,304 c -8.184,0 -15.872,3.184 -21.656,8.976 L 100.864,335.832 88.848,311.808 C 88.288,310.696 88,309.456 88,308.224 v -37.592 c 0,-2.136 0.832,-4.152 2.344,-5.664 l 36.688,-36.688 c 3.488,-3.488 5.896,-7.72 7.368,-12.28 h 227.208 c 1.472,4.56 3.88,8.792 7.368,12.288 l 36.688,36.68 c 1.504,1.512 2.336,3.528 2.336,5.664 v 37.592 c 0,1.232 -0.288,2.48 -0.84,3.576 l -12.016,24.032 -22.856,-22.856 C 366.496,307.184 358.816,304 350.624,304 333.744,304 320,317.736 320,334.632 c 0,6.304 1.936,12.296 5.448,17.368 H 320 v 16 h 16 v -4.688 l 51.312,51.312 c 3.024,3.032 4.688,7.048 4.688,11.32 V 448 h -24 v 48 H 496 V 448 Z M 112,464 v 16 H 16 v -16 z m 3.72,-247.024 -36.688,36.68 C 74.496,258.184 72,264.216 72,270.632 v 37.592 c 0,3.704 0.872,7.416 2.528,10.736 l 14.312,28.624 0.528,-0.264 C 86.4,350.296 82.272,352 78.064,352 H 64 v 16 h 14.064 c 8.432,0 16.672,-3.416 22.624,-9.376 l 34.344,-34.344 c 2.728,-2.72 6.488,-4.28 10.344,-4.28 8.064,0 14.624,6.56 14.624,14.632 0,3.904 -1.52,7.584 -4.28,10.344 L 97.376,403.312 C 91.328,409.36 88,417.4 88,425.944 V 448 H 46.04 L 32.928,402.104 C 32.312,399.968 32,397.752 32,395.52 v -73.008 c 0,-1.256 0.104,-2.512 0.288,-3.744 l 9.984,-63.24 c 0.8,-5.032 3.136,-9.608 6.744,-13.224 L 95.032,196.288 C 97.76,193.56 101.52,192 105.376,192 c 8.064,0 14.624,6.56 14.624,14.632 0,3.904 -1.52,7.576 -4.28,10.344 z m 224.56,128 C 337.52,342.208 336,338.536 336,334.632 336,326.56 342.56,320 350.624,320 c 3.848,0 7.616,1.56 10.344,4.288 l 34.344,34.336 c 5.952,5.96 14.192,9.376 22.624,9.376 H 432 v -16 h -14.064 c -4.208,0 -8.336,-1.704 -11.312,-4.688 l 0.528,0.264 14.312,-28.624 C 423.128,315.64 424,311.928 424,308.224 v -37.592 c 0,-6.408 -2.496,-12.44 -7.032,-16.976 L 380.28,216.976 C 377.52,214.208 376,210.536 376,206.632 376,198.56 382.56,192 390.624,192 c 3.848,0 7.616,1.56 10.344,4.288 l 46.016,46.008 c 3.608,3.616 5.944,8.192 6.744,13.224 l 9.976,63.232 c 0.192,1.248 0.296,2.504 0.296,3.76 v 73.008 c 0,2.232 -0.312,4.448 -0.928,6.592 L 449.96,448 H 408 v -22.056 c 0,-8.544 -3.328,-16.584 -9.376,-22.632 z M 480,480 h -96 v -16 h 96 z"
   inkscape:connector-curvature="0" />

      <rect
   id="rect894"
   height="16"
   width="208"
   y="384"
   x="144" />

      <rect
   id="rect896"
   height="16"
   width="16"
   y="232"
   x="160" />

      <rect
   id="rect898"
   height="16"
   width="16"
   y="232"
   x="240" />

      <rect
   id="rect900"
   height="16"
   width="16"
   y="232"
   x="320" />

      <rect
   id="rect902"
   height="16"
   width="16"
   y="232"
   x="280" />

      <rect
   id="rect904"
   height="16"
   width="16"
   y="232"
   x="200" />

      <rect
   id="rect906"
   height="16"
   width="16"
   y="272"
   x="160" />

      <rect
   id="rect908"
   height="16"
   width="16"
   y="272"
   x="120" />

      <rect
   id="rect910"
   height="16"
   width="16"
   y="272"
   x="240" />

      <rect
   id="rect912"
   height="16"
   width="16"
   y="272"
   x="320" />

      <rect
   id="rect914"
   height="16"
   width="16"
   y="272"
   x="280" />

      <rect
   id="rect916"
   height="16"
   width="16"
   y="272"
   x="360" />

      <rect
   id="rect918"
   height="16"
   width="16"
   y="272"
   x="200" />

      <rect
   id="rect920"
   height="16"
   width="16"
   y="312"
   x="240" />

      <rect
   id="rect922"
   height="16"
   width="16"
   y="312"
   x="280" />

      <rect
   id="rect924"
   height="16"
   width="16"
   y="312"
   x="200" />

      <rect
   id="rect926"
   height="16"
   width="16"
   y="352"
   x="240" />

      <rect
   id="rect928"
   height="16"
   width="16"
   y="352"
   x="280" />

      <rect
   id="rect930"
   height="16"
   width="16"
   y="352"
   x="200" />

      <path
   id="path932"
   d="M 400,136 V 24 C 400,10.768 389.232,0 376,0 H 192 V 16 H 336 V 144 H 192 v 16 h 184 c 13.232,0 24,-10.768 24,-24 z M 352,16 h 24 c 4.416,0 8,3.592 8,8 v 112 c 0,4.408 -3.584,8 -8,8 h -24 z"
   inkscape:connector-curvature="0" />

      <rect
   id="rect934"
   height="48"
   width="16"
   y="56"
   x="128" />

      <path
   id="path936"
   d="m 120,160 h 56 V 0 H 120 C 106.768,0 96,10.768 96,24 v 112 c 0,13.232 10.768,24 24,24 z M 112,24 c 0,-4.408 3.584,-8 8,-8 h 40 v 128 h -40 c -4.416,0 -8,-3.592 -8,-8 z"
   inkscape:connector-curvature="0" />

      <path
   id="path938"
   d="m 296,96 h 16 c 0,-30.88 -25.128,-56 -56,-56 -30.872,0 -56,25.12 -56,56 h 16 c 0,-22.056 17.944,-40 40,-40 22.056,0 40,17.944 40,40 z"
   inkscape:connector-curvature="0" />

      <path
   id="path940"
   d="m 280,96 c 0,-13.232 -10.768,-24 -24,-24 -13.232,0 -24,10.768 -24,24 h 16 c 0,-4.408 3.584,-8 8,-8 4.416,0 8,3.592 8,8 z"
   inkscape:connector-curvature="0" />

      <rect
   id="rect942"
   height="16"
   width="16"
   y="104"
   x="248" />

    </g>

  </g>

</g>
  
  </g>

</svg>
