<svg id="line2" version="1.1" width="100%" height="850px" viewBox="0 0 501 850">
	<defs id="defs3747"><linearGradient
     inkscape:collect="always"
     id="linearGradient3769"><stop
       style="stop-color:#ffffff;stop-opacity:0.3;"
       offset="0"
       id="stop3765" /><stop
       style="stop-color:#ffffff;stop-opacity:0;"
       offset="1"
       id="stop3767" /></linearGradient><radialGradient
     inkscape:collect="always"
     xlink:href="#linearGradient3769"
     id="radialGradient3773"
     cx="694.23389"
     cy="1234.9346"
     fx="694.23389"
     fy="1234.9346"
     r="617.1701"
     gradientTransform="matrix(-0.4230337,-0.46306705,1.1332314,0.16834814,-344.53648,418.16238)"
     gradientUnits="userSpaceOnUse" /></defs>
<style type="text/css">
<![CDATA[
	.st1{fill:none;stroke:#FFFFFF;stroke-width:2;stroke-miterlimit:4;
	stroke-linecap: round; 
	stroke-linejoin: miter; 
	stroke-opacity: 1; 
	stroke-dasharray: 6000; stroke-dashoffset: 6000;}
]]>
</style>
<circle class="st1" style="fill: #fff" data--50-bottom="opacity:0" data-center-top="opacity:1" cx="-180" cy="25" r="4.156"/>
<line class="st1" data--50-bottom="stroke-dashoffset:6000;" data-center-top="stroke-dashoffset:5880;" x1="-180" y1="25" x2="-180" y2="150"/>
<circle class="st1" style="fill: #fff" data--50-bottom="opacity:0" data-center-top="opacity:1" cx="-180" cy="150" r="4.156"/>
<line class="st1" data-center-top="stroke-dashoffset:6000;" data--50-bottom="stroke-dashoffset:5325;" x1="-180" y1="150" x2="375" y2="535"/>
<circle class="st1" style="fill: #fff" data--50-bottom="opacity:0" data-center-top="opacity:1" cx="375" cy="535" r="4.156"/>

<rect
   style="fill:url(#radialGradient3773);fill-opacity:1;stroke-width:2.56225777"
   id="rect3759"
   width="1234.3402"
   height="436.10385"
   x="-105.85511"
   y="-135.68159"
   ry="0"
   transform="matrix(0.81696259,0.57669067,-0.92242988,0.38616463,0,0)"
   data-bottom-top="fill-opacity:0" data-50-top="fill-opacity:0.8" />

<g
     id="g1186"
     transform="matrix(0.90972777,0,0,0.90972777,368.25442,402.90817)" class="st2"
      data-50-bottom="fill-opacity:0;" data-top-top="fill-opacity:0.8;">
    <g
       id="g1115">
  <g
   id="g1113">
    <g
   id="g1111">
      <path
   id="path1083"
   d="m 248,80 c 22.056,0 40,-17.944 40,-40 0,-22.056 -17.944,-40 -40,-40 -22.056,0 -40,17.944 -40,40 0,22.056 17.944,40 40,40 z m 0,-64 c 13.232,0 24,10.768 24,24 0,13.232 -10.768,24 -24,24 -13.232,0 -24,-10.768 -24,-24 0,-13.232 10.768,-24 24,-24 z"
   inkscape:connector-curvature="0" />

      <path
   id="path1085"
   d="m 192,111.632 c 0,-10.24 6.936,-19.12 16.872,-21.6 l 9.072,-2.272 -3.88,-15.52 -9.064,2.272 c -17.08,4.264 -29,19.528 -29,37.12 V 120 h 16 z"
   inkscape:connector-curvature="0" />

      <path
   id="path1087"
   d="m 291.008,74.504 -9.072,-2.272 -3.88,15.52 9.072,2.272 c 9.928,2.48 16.864,11.36 16.864,21.6 V 120 h 16 v -8.368 C 320,94.04 308.08,78.776 291.008,74.504 Z"
   inkscape:connector-curvature="0" />

      <path
   id="path1089"
   d="m 312,208 c 13.232,0 24,-10.768 24,-24 v -48 h -48 v -16 h -16 v 56 h -48 v -56 h -16 v 16 h -48 v 48 c 0,13.232 10.768,24 24,24 h 24 v 96 c -8.824,0 -16,7.176 -16,16 v 32 h 112 v -32 c 0,-8.824 -7.176,-16 -16,-16 v -96 z m -24,-56 h 32 v 32 c 0,4.408 -3.592,8 -8,8 h -24 z m -64,40 h 48 v 80 h -16 v -64 h -16 v 64 h -16 z m 48,96 v 16 h -16 v -16 z m -48,0 h 16 v 16 h -16 z m -40,-96 c -4.408,0 -8,-3.592 -8,-8 v -32 h 32 v 40 z m 104,144 h -80 v -16 h 80 z"
   inkscape:connector-curvature="0" />

      <path
   id="path1091"
   d="m 328,412 c 0,6.616 -5.384,12 -12,12 -6.616,0 -12,-5.384 -12,-12 v -12 h -16 v 12 c 0,15.44 12.56,28 28,28 15.44,0 28,-12.56 28,-28 v -12 h -16 z"
   inkscape:connector-curvature="0" />

      <rect
   id="rect1093"
   height="16"
   width="16"
   y="368"
   x="288" />

      <path
   id="path1095"
   d="m 296,468 c 0,6.616 -5.384,12 -12,12 -6.616,0 -12,-5.384 -12,-12 v -68 h -16 v 68 c 0,15.44 12.56,28 28,28 15.44,0 28,-12.56 28,-28 v -12 h -16 z"
   inkscape:connector-curvature="0" />

      <path
   id="path1097"
   d="m 208,412 v -12 h -16 v 12 c 0,6.616 -5.384,12 -12,12 -6.616,0 -12,-5.384 -12,-12 v -12 h -16 v 12 c 0,15.44 12.56,28 28,28 15.44,0 28,-12.56 28,-28 z"
   inkscape:connector-curvature="0" />

      <rect
   id="rect1099"
   height="16"
   width="16"
   y="368"
   x="192" />

      <path
   id="path1101"
   d="m 224,468 c 0,6.616 -5.384,12 -12,12 -6.616,0 -12,-5.384 -12,-12 v -12 h -16 v 12 c 0,15.44 12.56,28 28,28 15.44,0 28,-12.56 28,-28 v -52 h -16 z"
   inkscape:connector-curvature="0" />

      <rect
   id="rect1103"
   height="16"
   width="16"
   y="368"
   x="256" />

      <rect
   id="rect1105"
   height="32"
   width="16"
   y="368"
   x="224" />

      <path
   id="path1107"
   d="M 460.728,43.968 C 452.152,17.872 427.776,0 400,0 c -26.104,0 -49.696,16.216 -59.344,40.104 -14.672,0.88 -28.52,7.536 -38.392,18.56 l 11.92,10.672 C 321.768,60.856 332.64,56 344,56 l 8.208,0.424 1.784,-6.04 C 359.976,30.144 378.896,16 400,16 c 21.92,0 41.024,14.848 46.448,36.12 l 1.104,4.344 4.28,1.328 C 468.68,62.992 480,78.352 480,96 c 0,22.056 -17.944,40 -40,40 h -88 v 16 h 88 c 30.88,0 56,-25.12 56,-56 0,-23.224 -14,-43.616 -35.272,-52.032 z"
   inkscape:connector-curvature="0" />

      <path
   id="path1109"
   d="M 182.968,230.664 174.12,217.336 C 167.552,221.696 159.912,224 152,224 H 56 c -22.056,0 -40,-17.944 -40,-40 0,-22.056 17.944,-40 40,-40 l 8.208,0.424 1.784,-6.04 C 71.976,118.144 90.896,104 112,104 c 15.656,0 30.36,7.688 39.328,20.568 l 13.136,-9.144 C 152.496,98.256 132.888,88 112,88 85.896,88 62.304,104.208 52.656,128.096 23.328,129.832 0,154.248 0,184 c 0,30.88 25.12,56 56,56 h 96 c 11.072,0 21.776,-3.224 30.968,-9.336 z"
   inkscape:connector-curvature="0" />

    </g>

  </g>

</g>
    
  </g>

</svg>
