<svg id="line4" version="1.1" width="100%" height="850px" viewBox="0 0 501 850">
   <style type="text/css">
      <![CDATA[
      .st1{fill:none;stroke:#FFFFFF;stroke-width:2;stroke-miterlimit:4;
      stroke-linecap: round; 
      stroke-linejoin: miter; 
      stroke-opacity: 1; 
      stroke-dasharray: 6000; stroke-dashoffset: 6000;}
      ]]>
   </style>
   <circle class="st1" style="fill: #fff" data--50-bottom="opacity:0" data-center-top="opacity:1" cx="-180" cy="25" r="4.156"/>
   <line class="st1" data--50-bottom="stroke-dashoffset:6000;" data-center-top="stroke-dashoffset:5880;" x1="-180" y1="25" x2="-180" y2="150"/>
   <circle class="st1" style="fill: #fff" data--50-bottom="opacity:0" data-center-top="opacity:1" cx="-180" cy="150" r="4.156"/>
   <line class="st1" data-center-top="stroke-dashoffset:6000;" data--50-bottom="stroke-dashoffset:5200;" x1="-180" y1="150" x2="470" y2="604"/>
   <circle class="st1" style="fill: #fff" data--50-bottom="opacity:0" data-center-top="opacity:1" cx="470" cy="604" r="4.156"/>
   <rect
      style="fill:url(#radialGradient3773);fill-opacity:1;stroke-width:2.56225777"
      id="rect3759"
      width="1234.3402"
      height="436.10385"
      x="-105.85511"
      y="-135.68159"
      ry="0"
      transform="matrix(0.81696259,0.57669067,-0.92242988,0.38616463,0,0)"
      data-0="opacity:0" data--800-bottom="opacity:0.8" />

      <g
       id="g124"
       transform="matrix(0.68407475,0,0,0.68407475,397.35821,500.43657)" class="st2"
       data-bottom-top="fill-opacity:0;" data-bottom-bottom="fill-opacity:0.8;">
       <g
        id="g58">
        <g
         id="g56">
         <path
            id="path54"
            d="M 435.377,191.63 C 404.66,167.897 370.172,147.335 333.185,134.59 L 355.304,90 h 43.573 c 2.588,4.589 5.772,8.884 9.538,12.765 C 419.823,114.524 434.947,121 451,121 484.065,121 512,93.065 512,60 512,43.947 505.523,28.823 493.765,17.415 482.19,6.185 467.003,0 451,0 417.916,0 391,26.916 391,60 h -54.304 l -32.891,66.309 C 287.661,122.788 271.69,121 256,121 190.23,121 128.06,151.888 76.623,191.63 32.046,226.072 8.699,260.171 7.546,261.606 L 0,271 l 7.546,9.394 c 1.153,1.435 24.5,35.534 69.077,69.976 29.808,23.031 63.293,43.133 98.903,55.902 L 156.079,452 H 121 V 422 H 0 v 90 h 121 v -30 h 54.921 L 204.48,414.846 C 221.888,418.925 239.107,421 256,421 321.77,421 383.94,390.112 435.377,350.37 470.618,323.141 490.756,297.303 512,271 491.422,245.521 471.375,219.444 435.377,191.63 Z M 451,30 c 16.804,0 31,13.738 31,30 0,16.514 -14.486,31 -31,31 -16.262,0 -30,-14.196 -30,-31 0,-16.542 13.458,-30 30,-30 z M 91,482 H 30 V 452 H 91 Z M 187.319,378.541 C 151.098,365.796 119.244,345.328 95.517,327.057 67.153,305.214 50.025,283.116 39.089,271.006 66.015,241.238 151.99,151 256,151 c 11.536,0 22.892,1.144 33.987,3.167 l -14.38,28.991 C 269.292,181.749 262.732,181 256,181 c -49.626,0 -90,40.374 -90,90 0,29.535 14.302,55.792 36.343,72.212 z M 196,271 c 0,-33.084 26.916,-60 60,-60 33.084,0 60,26.916 60,60 0,33.084 -26.916,60 -60,60 -33.084,0 -60,-26.916 -60,-60 z m 60,120 c -13.479,0 -26.711,-1.557 -39.566,-4.263 L 229.122,356.9 c 8.491,2.663 17.52,4.1 26.878,4.1 49.626,0 90,-40.374 90,-90 0,-32.227 -17.03,-60.546 -42.559,-76.447 l 16.263,-32.787 c 38.279,12.569 71.971,34.074 96.778,53.178 28.364,21.843 45.49,43.939 56.428,56.051 C 445.985,300.762 360.01,391 256,391 Z"
            inkscape:connector-curvature="0" />

         </g>

      </g>
      <g
        id="g64">
        <g
         id="g62">
         <rect
            id="rect60"
            height="30"
            width="30"
            y="256"
            x="241" />

         </g>

      </g>
      <g
        id="g66">
     </g>
     <g
        id="g68">
     </g>
     <g
        id="g70">
     </g>
     <g
        id="g72">
     </g>
     <g
        id="g74">
     </g>
     <g
        id="g76">
     </g>
     <g
        id="g78">
     </g>
     <g
        id="g80">
     </g>
     <g
        id="g82">
     </g>
     <g
        id="g84">
     </g>
     <g
        id="g86">
     </g>
     <g
        id="g88">
     </g>
     <g
        id="g90">
     </g>
     <g
        id="g92">
     </g>
     <g
        id="g94">
     </g>
  </g>
  <g
     aria-label="Envision"
     style="font-style:normal;font-variant:normal;font-weight:normal;font-stretch:normal;font-size:121.74700928px;line-height:1.25;font-family:Megrim;-inkscape-font-specification:Megrim;letter-spacing:0px;word-spacing:0px;fill:#fff;fill-opacity:0.8;stroke:none;stroke-width:1.26819801"
     id="envisionEntry">
    <path
       d="m -94.270158,776.56108 h -36.158862 l 37.254585,-37.01109 h -41.150485 v 77.91808 h 47.237835 v 3.65241 h -50.890245 v -85.2229 h 53.690426 l -37.254586,37.01109 h 27.271332 z"
       style="stroke-width:1.26819801"
       id="path372" />
    <path
       d="m -68.317121,821.12048 v -70.61326 h 3.65241 l 39.689525,63.91718 v -63.91718 h 3.65241 v 70.61326 h -3.65241 l -39.689525,-64.03892 v 64.03892 z"
       style="stroke-width:1.26819801"
       id="path374" />
    <path
       d="M 53.329065,750.50722 22.892313,822.33795 -7.5444395,750.50722 h 3.8959043 l 26.5408482,62.45621 26.540848,-62.45621 z"
       style="stroke-width:1.26819801"
       id="path376" />
    <path
       d="m 66.983752,750.50722 h 3.65241 v 70.61326 h -3.65241 z"
       style="stroke-width:1.26819801"
       id="path378" />
    <path
       d="m 112.48099,749.04625 q 15.09663,0 21.42748,6.69609 l -2.43494,2.67843 q -5.84386,-5.72211 -18.50555,-5.72211 -18.992532,0 -18.992532,15.09663 0,5.84386 4.626386,9.37452 4.626386,3.40892 11.200726,5.23512 6.69608,1.82621 13.27042,3.89591 6.69609,1.94795 11.32247,6.45259 4.62639,4.38289 4.62639,11.56597 0,8.40054 -6.93958,13.39217 -6.93958,4.99162 -20.08825,4.99162 -6.4526,0 -12.783441,-1.70445 -6.209097,-1.70446 -9.252772,-4.99163 l 2.43494,-2.67844 q 6.209097,5.72211 19.114283,5.72211 11.80946,0 17.77506,-4.38289 6.08735,-4.38289 6.08735,-10.22675 0,-6.08735 -4.62639,-9.8615 -4.62638,-3.77416 -11.32247,-5.60037 -6.57434,-1.94795 -13.27042,-3.8959 -6.57434,-2.0697 -11.200726,-6.33085 -4.626386,-4.26114 -4.626386,-11.20072 0,-9.37452 6.209097,-13.87916 6.330845,-4.62639 15.948855,-4.62639 z"
       style="stroke-width:1.26819801"
       id="path380" />
    <path
       d="m 156.86728,750.50722 h 3.65241 v 70.61326 h -3.65241 z"
       style="stroke-width:1.26819801"
       id="path382" />
    <path
       d="m 219.28734,754.28138 q -4.1394,-1.33922 -10.22675,-1.33922 -6.08735,0 -10.22675,1.33922 -4.13939,1.21747 -7.67006,4.74813 -3.40891,3.40891 -5.11337,10.105 -1.70446,6.57434 -1.70446,16.67934 0,10.105 1.70446,16.80109 1.70446,6.57434 5.11337,10.105 3.53067,3.40892 7.67006,4.74813 4.1394,1.21747 10.22675,1.21747 6.08735,0 10.22675,-1.21747 4.1394,-1.33921 7.54832,-4.74813 3.53066,-3.53066 5.23512,-10.105 1.70446,-6.69609 1.70446,-16.80109 0,-10.105 -1.70446,-16.67934 -1.70446,-6.69609 -5.23512,-10.105 -3.40892,-3.53066 -7.54832,-4.74813 z m 11.56597,59.41254 q -6.57434,8.64403 -21.79272,8.64403 -15.21837,0 -21.79271,-8.64403 -6.57434,-8.64404 -6.57434,-27.88007 0,-19.23603 6.57434,-27.88006 6.57434,-8.64404 21.79271,-8.64404 15.21838,0 21.79272,8.64404 6.57434,8.64403 6.57434,27.88006 0,19.23603 -6.57434,27.88007 z"
       style="stroke-width:1.26819801"
       id="path384" />
    <path
       d="m 257.45124,821.12048 v -70.61326 h 3.65241 l 39.68952,63.91718 v -63.91718 h 3.65241 v 70.61326 h -3.65241 l -39.68952,-64.03892 v 64.03892 z"
       style="stroke-width:1.26819801"
       id="path386" />
  </g>
</svg>
