<svg id="line2" version="1.1" width="100%" height="850px" viewBox="0 0 501 850">
	<defs id="defs3747"><linearGradient
     inkscape:collect="always"
     id="linearGradient3769"><stop
       style="stop-color:#ffffff;stop-opacity:0.3;"
       offset="0"
       id="stop3765" /><stop
       style="stop-color:#ffffff;stop-opacity:0;"
       offset="1"
       id="stop3767" /></linearGradient><radialGradient
     inkscape:collect="always"
     xlink:href="#linearGradient3769"
     id="radialGradient3773"
     cx="694.23389"
     cy="1234.9346"
     fx="694.23389"
     fy="1234.9346"
     r="617.1701"
     gradientTransform="matrix(-0.4230337,-0.46306705,1.1332314,0.16834814,-344.53648,418.16238)"
     gradientUnits="userSpaceOnUse" /></defs>
<style type="text/css">
<![CDATA[
	.st1{fill:none;stroke:#FFFFFF;stroke-width:2;stroke-miterlimit:4;
	stroke-linecap: round; 
	stroke-linejoin: miter; 
	stroke-opacity: 1; 
	stroke-dasharray: 6000; stroke-dashoffset: 6000;}
]]>
</style>
<circle class="st1" style="fill: #fff" data--50-bottom="opacity:0" data-center-top="opacity:1" cx="-180" cy="25" r="4.156"/>
<line class="st1" data--50-bottom="stroke-dashoffset:6000;" data-center-top="stroke-dashoffset:5880;" x1="-180" y1="25" x2="-180" y2="150"/>
<circle class="st1" style="fill: #fff" data--50-bottom="opacity:0" data-center-top="opacity:1" cx="-180" cy="150" r="4.156"/>
<line class="st1" data-center-top="stroke-dashoffset:6000;" data--50-bottom="stroke-dashoffset:5325;" x1="-180" y1="150" x2="375" y2="535"/>
<circle class="st1" style="fill: #fff" data--50-bottom="opacity:0" data-center-top="opacity:1" cx="375" cy="535" r="4.156"/>

<rect
   style="fill:url(#radialGradient3773);fill-opacity:1;stroke-width:2.56225777"
   id="rect3759"
   width="1234.3402"
   height="436.10385"
   x="-105.85511"
   y="-135.68159"
   ry="0"
   transform="matrix(0.81696259,0.57669067,-0.92242988,0.38616463,0,0)"
   data-bottom-top="fill-opacity:0" data-50-top="fill-opacity:0.8" />

<g
     id="svgImg2"
     transform="matrix(0.90972777,0,0,0.90972777,368.25442,402.90817)" class="st2"
      data-50-bottom="fill-opacity:0;" data-top-top="fill-opacity:0.8;">
    <g
       id="g1115">
  <g
   id="g1113">
    <g
   id="g1111">
      <path
   id="path1083"
   d="m 248,80 c 22.056,0 40,-17.944 40,-40 0,-22.056 -17.944,-40 -40,-40 -22.056,0 -40,17.944 -40,40 0,22.056 17.944,40 40,40 z m 0,-64 c 13.232,0 24,10.768 24,24 0,13.232 -10.768,24 -24,24 -13.232,0 -24,-10.768 -24,-24 0,-13.232 10.768,-24 24,-24 z"
   inkscape:connector-curvature="0" />

      <path
   id="path1085"
   d="m 192,111.632 c 0,-10.24 6.936,-19.12 16.872,-21.6 l 9.072,-2.272 -3.88,-15.52 -9.064,2.272 c -17.08,4.264 -29,19.528 -29,37.12 V 120 h 16 z"
   inkscape:connector-curvature="0" />

      <path
   id="path1087"
   d="m 291.008,74.504 -9.072,-2.272 -3.88,15.52 9.072,2.272 c 9.928,2.48 16.864,11.36 16.864,21.6 V 120 h 16 v -8.368 C 320,94.04 308.08,78.776 291.008,74.504 Z"
   inkscape:connector-curvature="0" />

      <path
   id="path1089"
   d="m 312,208 c 13.232,0 24,-10.768 24,-24 v -48 h -48 v -16 h -16 v 56 h -48 v -56 h -16 v 16 h -48 v 48 c 0,13.232 10.768,24 24,24 h 24 v 96 c -8.824,0 -16,7.176 -16,16 v 32 h 112 v -32 c 0,-8.824 -7.176,-16 -16,-16 v -96 z m -24,-56 h 32 v 32 c 0,4.408 -3.592,8 -8,8 h -24 z m -64,40 h 48 v 80 h -16 v -64 h -16 v 64 h -16 z m 48,96 v 16 h -16 v -16 z m -48,0 h 16 v 16 h -16 z m -40,-96 c -4.408,0 -8,-3.592 -8,-8 v -32 h 32 v 40 z m 104,144 h -80 v -16 h 80 z"
   inkscape:connector-curvature="0" />

      <path
   id="path1091"
   d="m 328,412 c 0,6.616 -5.384,12 -12,12 -6.616,0 -12,-5.384 -12,-12 v -12 h -16 v 12 c 0,15.44 12.56,28 28,28 15.44,0 28,-12.56 28,-28 v -12 h -16 z"
   inkscape:connector-curvature="0" />

      <rect
   id="rect1093"
   height="16"
   width="16"
   y="368"
   x="288" />

      <path
   id="path1095"
   d="m 296,468 c 0,6.616 -5.384,12 -12,12 -6.616,0 -12,-5.384 -12,-12 v -68 h -16 v 68 c 0,15.44 12.56,28 28,28 15.44,0 28,-12.56 28,-28 v -12 h -16 z"
   inkscape:connector-curvature="0" />

      <path
   id="path1097"
   d="m 208,412 v -12 h -16 v 12 c 0,6.616 -5.384,12 -12,12 -6.616,0 -12,-5.384 -12,-12 v -12 h -16 v 12 c 0,15.44 12.56,28 28,28 15.44,0 28,-12.56 28,-28 z"
   inkscape:connector-curvature="0" />

      <rect
   id="rect1099"
   height="16"
   width="16"
   y="368"
   x="192" />

      <path
   id="path1101"
   d="m 224,468 c 0,6.616 -5.384,12 -12,12 -6.616,0 -12,-5.384 -12,-12 v -12 h -16 v 12 c 0,15.44 12.56,28 28,28 15.44,0 28,-12.56 28,-28 v -52 h -16 z"
   inkscape:connector-curvature="0" />

      <rect
   id="rect1103"
   height="16"
   width="16"
   y="368"
   x="256" />

      <rect
   id="rect1105"
   height="32"
   width="16"
   y="368"
   x="224" />

      <path
   id="path1107"
   d="M 460.728,43.968 C 452.152,17.872 427.776,0 400,0 c -26.104,0 -49.696,16.216 -59.344,40.104 -14.672,0.88 -28.52,7.536 -38.392,18.56 l 11.92,10.672 C 321.768,60.856 332.64,56 344,56 l 8.208,0.424 1.784,-6.04 C 359.976,30.144 378.896,16 400,16 c 21.92,0 41.024,14.848 46.448,36.12 l 1.104,4.344 4.28,1.328 C 468.68,62.992 480,78.352 480,96 c 0,22.056 -17.944,40 -40,40 h -88 v 16 h 88 c 30.88,0 56,-25.12 56,-56 0,-23.224 -14,-43.616 -35.272,-52.032 z"
   inkscape:connector-curvature="0" />

      <path
   id="path1109"
   d="M 182.968,230.664 174.12,217.336 C 167.552,221.696 159.912,224 152,224 H 56 c -22.056,0 -40,-17.944 -40,-40 0,-22.056 17.944,-40 40,-40 l 8.208,0.424 1.784,-6.04 C 71.976,118.144 90.896,104 112,104 c 15.656,0 30.36,7.688 39.328,20.568 l 13.136,-9.144 C 152.496,98.256 132.888,88 112,88 85.896,88 62.304,104.208 52.656,128.096 23.328,129.832 0,154.248 0,184 c 0,30.88 25.12,56 56,56 h 96 c 11.072,0 21.776,-3.224 30.968,-9.336 z"
   inkscape:connector-curvature="0" />

    </g>

  </g>

</g>
    
  </g>

  <g 
     aria-label="Know Us" 
     style="font-style:normal;font-variant:normal;font-weight:normal;font-stretch:normal;font-size:124.48784637px;line-height:1.25;font-family:Megrim;-inkscape-font-specification:Megrim;letter-spacing:0px;word-spacing:0px;fill:#ffffff;fill-opacity:0.8;stroke:none;stroke-width:1.2967484"
     id="knowUsEntry">
    <path data-50-bottom="fill-opacity:0;" data-top-top="fill-opacity:0.8;"
       d="m -170.83648,669.62145 v 87.14149 h -3.73464 v -87.14149 z m 51.1645,0 -41.82792,41.57894 45.81153,45.56255 h -5.35298 l -45.81152,-45.56255 41.82791,-41.57894 z"
       style="font-style:normal;font-variant:normal;font-weight:normal;font-stretch:normal;font-family:Megrim;-inkscape-font-specification:Megrim;stroke-width:1.2967484"
       id="path116" />
    <path data-50-bottom="fill-opacity:0;" data-top-top="fill-opacity:0.8;"
       d="m -103.82896,756.76294 v -72.20295 h 3.73464 l 40.583035,65.35612 v -65.35612 h 3.734635 v 72.20295 h -3.734635 l -40.583035,-65.48061 v 65.48061 z"
       style="font-style:normal;font-variant:normal;font-weight:normal;font-stretch:normal;font-family:Megrim;-inkscape-font-specification:Megrim;stroke-width:1.2967484"
       id="path118" />
    <path data-50-bottom="fill-opacity:0;" data-top-top="fill-opacity:0.8;"
       d="m 4.2478872,688.41911 q -4.23258673,-1.36936 -10.4569791,-1.36936 -6.2243921,0 -10.4569791,1.36936 -4.232587,1.24488 -7.842734,4.85503 -3.48566,3.48566 -5.22849,10.33249 -1.74283,6.72234 -1.74283,17.05483 0,10.3325 1.74283,17.17933 1.74283,6.72234 5.22849,10.33249 3.610147,3.48566 7.842734,4.85502 4.232587,1.24488 10.4569791,1.24488 6.22439237,0 10.4569791,-1.24488 4.2325868,-1.36936 7.7182468,-4.85502 3.610147,-3.61015 5.352977,-10.33249 1.74283,-6.84683 1.74283,-17.17933 0,-10.33249 -1.74283,-17.05483 -1.74283,-6.84683 -5.352977,-10.33249 -3.48566,-3.61015 -7.7182468,-4.85503 z m 11.8263458,60.75007 q -6.7223441,8.83864 -22.2833249,8.83864 -15.5609811,0 -22.2833241,-8.83864 -6.722344,-8.83864 -6.722344,-28.50772 0,-19.66908 6.722344,-28.50771 6.722343,-8.83864 22.2833241,-8.83864 15.5609808,0 22.2833249,8.83864 6.722343,8.83863 6.722343,28.50771 0,19.66908 -6.722343,28.50772 z"
       style="font-style:normal;font-variant:normal;font-weight:normal;font-stretch:normal;font-family:Megrim;-inkscape-font-specification:Megrim;stroke-width:1.2967484"
       id="path120" />
    <path data-50-bottom="fill-opacity:0;" data-top-top="fill-opacity:0.8;"
       d="m 37.668972,684.55999 27.138351,63.86226 18.797665,-44.19318 18.673172,44.19318 25.52001,-60.12763 H 47.503512 v -3.73463 H 133.40013 L 102.27816,758.00782 83.604988,713.81463 64.807323,758.00782 33.685361,684.55999 Z"
       style="font-style:normal;font-variant:normal;font-weight:normal;font-stretch:normal;font-family:Megrim;-inkscape-font-specification:Megrim;stroke-width:1.2967484"
       id="path122" />
    <path data-50-bottom="fill-opacity:0;" data-top-top="fill-opacity:0.8;"
       d="m 194.00237,669.62145 h 47.67885 v 49.67065 q 0,19.91805 -6.84684,29.37913 -6.84683,9.33659 -22.15883,9.33659 -15.31201,0 -22.15884,-9.33659 -6.84683,-9.46108 -6.84683,-29.37913 v -49.67065 h 3.73463 v 49.67065 q 0,10.33249 1.74283,17.4283 1.74283,6.97132 5.22849,10.70595 3.48566,3.73464 7.84274,5.35298 4.35707,1.49385 10.45698,1.49385 6.0999,0 10.45698,-1.49385 4.35707,-1.61834 7.84273,-5.35298 3.48566,-3.73463 5.22849,-10.70595 1.74283,-7.09581 1.74283,-17.4283 v -45.93602 h -43.94421 z"
       style="font-style:normal;font-variant:normal;font-weight:normal;font-stretch:normal;font-family:Megrim;-inkscape-font-specification:Megrim;stroke-width:1.2967484"
       id="path124" />
    <path data-50-bottom="fill-opacity:0;" data-top-top="fill-opacity:0.8;"
       d="m 283.81839,683.06613 q 15.43649,0 21.90986,6.84684 l -2.48976,2.73873 q -5.97541,-5.85093 -18.92215,-5.85093 -19.4201,0 -19.4201,15.43649 0,5.97542 4.73054,9.58557 4.73053,3.48566 11.45288,5.35297 6.84683,1.86732 13.56917,3.98362 6.84683,1.9918 11.57737,6.59785 4.73054,4.48156 4.73054,11.82635 0,8.58966 -7.09581,13.69366 -7.0958,5.104 -20.54049,5.104 -6.59786,0 -13.07123,-1.74283 -6.34888,-1.74283 -9.46107,-5.104 l 2.48976,-2.73873 q 6.34888,5.85093 19.54459,5.85093 12.07532,0 18.17522,-4.48157 6.2244,-4.48156 6.2244,-10.45698 0,-6.22439 -4.73054,-10.08351 -4.73054,-3.85912 -11.57737,-5.72644 -6.72235,-1.99181 -13.56918,-3.98361 -6.72234,-2.1163 -11.45288,-6.47337 -4.73054,-4.35708 -4.73054,-11.45288 0,-9.58557 6.34888,-14.19162 6.47337,-4.73054 16.30791,-4.73054 z"
       style="font-style:normal;font-variant:normal;font-weight:normal;font-stretch:normal;font-family:Megrim;-inkscape-font-specification:Megrim;stroke-width:1.2967484"
       id="path126" />
  </g>

</svg>
