<svg id="line3" version="1.1" width="100%" height="850px" viewBox="0 0 501 850">
	<defs
   id="defs46">
   <linearGradient
     inkscape:collect="always"
     id="linearGradient58">
     <stop
       style="stop-color:#ffffff;stop-opacity:0.3;"
       offset="0"
       id="stop54" />
       <stop
         style="stop-color:#ffffff;stop-opacity:0;"
         offset="1"
         id="stop56" />
       </linearGradient>
       <radialGradient
         inkscape:collect="always"
         xlink:href="#linearGradient58"
         id="radialGradient60"
         cx="-486.20273"
         cy="938.32513"
         fx="-486.20273"
         fy="938.32513"
         r="467.02576"
         gradientTransform="matrix(1.3761075,-0.51119281,0.40337517,0.26735928,-226.46192,234.94989)"
         gradientUnits="userSpaceOnUse" />
       </defs>
       <style type="text/css">
        <![CDATA[
        .st1{fill:none;stroke:#FFFFFF;stroke-width:2;stroke-miterlimit:4;
        stroke-linecap: round; 
        stroke-linejoin: miter; 
        stroke-opacity: 1; 
        stroke-dasharray: 6000; stroke-dashoffset: 6000;}
        ]]>
      </style>
      <circle class="st1" style="fill: #fff" data--50-bottom="opacity:0" data-center-top="opacity:1" cx="750" cy="25" r="4.156"/>
      <line class="st1" data--50-bottom="stroke-dashoffset:6000;" data-center-top="stroke-dashoffset:5800;" x1="750" y1="25" x2="750" y2="150"/>
      <circle class="st1" style="fill: #fff" data--50-bottom="opacity:0" data-center-top="opacity:1" cx="750" cy="150" r="4.156"/>
      <line class="st1" data-center-top="stroke-dashoffset:6000;" data--50-bottom="stroke-dashoffset:5200;" x2="105" y1="150" x1="750" y2="600"/>
      <!--<circle class="st1" style="fill: #fff" data--50-bottom="opacity:0" data-center-top="opacity:1" cx="-180" cy="800" r="4.156"/>-->
      <circle class="st1" style="fill: #fff" data--50-bottom="opacity:0" data-center-top="opacity:1" cx="105" cy="600" r="4.156"/>
      <!--<circle class="st0" data--150-bottom="stroke-dashoffset:2000;" data-center-top="stroke-dashoffset:0;" cx="750" cy="800" r="9.156"/> -->
<!--<line class="st0" data-0="stroke-dashoffset:6000;" data--10-bottom="stroke-dashoffset:0;" x1="116" y1="267.5" x2="161" y2="267.5"/>
<line class="st0" data-0="stroke-dashoffset:6000;" data--10-bottom="stroke-dashoffset:0;" x1="182" y1="267.5" x2="474" y2="267.5"/>-->
<rect
 style="fill:url(#radialGradient60);stroke-width:1.03240705;fill-opacity:1"
 id="rect52"
 width="934.05151"
 height="355.83936"
 x="-864.7923"
 y="372.28802"
 transform="matrix(0.81927607,-0.57339927,0.9482409,0.31755187,0,0)"
 data-0="opacity:0" data--800-bottom="opacity:0.8" />

 <style
  type="text/css"
  id="style55"><![CDATA[
  .st2{
  fill:#FFFFFF;
  stroke:#FFFFFF;
  stroke-miterlimit:4;
  stroke-linecap: round; 
  stroke-linejoin: miter; 
  stroke-opacity: 0.8;
  }
]]></style>

   <g id="g1973" transform="matrix(-0.65311157,0,0,0.65311157,122.798,500.42901)" class="st2"
      data-bottom-top="fill-opacity:0;" data-bottom-bottom="fill-opacity:0.8;">
    <g id="g1826">
      <g id="g1824">
        <path id="path1822"
         d="m 256.013,0.014 h -42.667 c -88.324,0.1 -159.9,71.676 -160,160 v 17.931 l -52.01,94.25 c -0.866,1.579 -1.321,3.351 -1.323,5.152 -0.018,0.606 -0.018,1.213 0,1.819 0.502,17.171 14.829,30.684 32,30.181 7.758,0.431 15.2,3.218 21.333,7.989 v 34.677 c -0.024,0.815 -0.024,1.631 0,2.447 0.676,22.888 19.778,40.896 42.667,40.22 h 64 c 0.606,0.018 1.213,0.018 1.819,0 17.171,-0.502 30.684,-14.829 30.181,-32 v -64 H 170.68 v 64 c 0.062,0.634 0.062,1.273 0,1.907 -0.527,5.365 -5.302,9.286 -10.667,8.76 h -64 c -0.851,0.054 -1.705,0.054 -2.556,0 C 82.381,372.641 73.974,363.09 74.68,352.014 v -39.765 c 10e-4,-3.055 -1.308,-5.964 -3.595,-7.989 -10.698,-9.857 -24.539,-15.612 -39.072,-16.245 -0.047,0.006 -0.095,0.011 -0.142,0.016 -5.143,0.545 -9.755,-3.182 -10.301,-8.326 l 51.787,-93.867 c 0.866,-1.579 1.321,-3.351 1.323,-5.152 V 160.014 C 74.768,83.467 136.8,21.435 213.347,21.347 h 42.539 c 0.649,-0.069 1.304,-0.073 1.954,-0.012 5.39,0.507 9.348,5.288 8.841,10.678 v 53.333 h 21.333 V 32.014 c 0.018,-0.606 0.018,-1.213 0,-1.819 -0.503,-17.171 -14.83,-30.684 -32.001,-30.181 z"
         inkscape:connector-curvature="0" 
         data--50-bottom="stroke-dashoffset:6000;" data-center-top="stroke-dashoffset:0;"/>
      </g>
    </g>

    <g id="g1832">
      <g id="g1830">
        <path
         id="path1828"
         d="M 437.347,320.014 H 320.013 v 21.333 h 117.333 c 0.634,-0.062 1.273,-0.062 1.907,0 5.365,0.527 9.287,5.302 8.76,10.667 v 20.16 c -1.536,6.368 -11.819,43.84 -42.667,43.84 -5.891,0 -10.667,4.776 -10.667,10.667 v 64 H 192.013 v -32 H 170.68 v 42.667 c 0,5.891 4.776,10.667 10.667,10.667 h 224 v 0 c 5.891,0 10.667,-4.776 10.667,-10.667 v -64.939 c 33.344,-6.304 49.237,-41.483 53.12,-60.928 0.143,-0.702 0.214,-1.417 0.213,-2.133 v -21.333 c 0.018,-0.606 0.018,-1.213 0,-1.819 -0.502,-17.172 -14.829,-30.685 -32,-30.182 z"
         inkscape:connector-curvature="0" 
         data--50-bottom="stroke-dashoffset:6000;" data-center-top="stroke-dashoffset:0;"/>
      </g>
    </g>

    <g id="g1838">
      <g id="g1836">
        <path
         id="path1834"
         d="m 501.347,128.014 h -26.891 c -1.129,-3.169 -2.421,-6.277 -3.872,-9.312 l 19.029,-19.029 c 4.164,-4.165 4.164,-10.917 0,-15.083 L 459.437,54.414 c -4.165,-4.164 -10.917,-4.164 -15.083,0 l -19.029,19.029 c -3.036,-1.445 -6.144,-2.733 -9.312,-3.861 V 42.68 c 0,-5.891 -4.776,-10.667 -10.667,-10.667 H 362.68 c -5.891,0 -10.667,4.776 -10.667,10.667 v 26.901 c -5.808,2.051 -11.402,4.662 -16.704,7.797 l 10.837,18.368 c 5.998,-3.531 12.461,-6.206 19.2,-7.947 4.709,-1.216 7.999,-5.462 8,-10.325 V 53.347 h 21.333 v 24.128 c -0.006,4.861 3.275,9.111 7.979,10.336 6.739,1.741 13.202,4.416 19.2,7.947 4.192,2.477 9.529,1.801 12.971,-1.643 l 17.067,-17.067 15.093,15.061 -17.067,17.067 c -3.447,3.439 -4.127,8.777 -1.653,12.971 3.538,5.997 6.22,12.46 7.968,19.2 1.215,4.705 5.456,7.994 10.315,8 h 24.128 v 21.323 h -24.107 c -4.859,0.006 -9.1,3.295 -10.315,8 -1.748,6.74 -4.43,13.203 -7.968,19.2 -2.474,4.194 -1.794,9.531 1.653,12.971 l 17.067,17.067 -15.083,15.083 -17.067,-17.067 c -3.442,-3.444 -8.779,-4.12 -12.971,-1.643 -5.998,3.531 -12.461,6.206 -19.2,7.947 -4.709,1.216 -7.999,5.462 -8,10.325 v 24.128 h -21.333 v -24.117 c -10e-4,-4.863 -3.291,-9.11 -8,-10.325 -6.739,-1.741 -13.202,-4.416 -19.2,-7.947 -4.192,-2.477 -9.529,-1.801 -12.971,1.643 L 316.12,243 301.037,227.917 318.104,210.85 c 3.447,-3.439 4.128,-8.777 1.653,-12.971 -3.538,-5.997 -6.22,-12.46 -7.968,-19.2 -1.215,-4.705 -5.456,-7.994 -10.315,-8 H 266.68 v 21.333 h 26.901 c 1.125,3.169 2.414,6.277 3.861,9.312 l -19.029,19.029 c -4.164,4.165 -4.164,10.917 0,15.083 l 30.176,30.176 c 4.165,4.164 10.917,4.164 15.083,0 l 19.029,-19.029 c 3.036,1.445 6.144,2.733 9.312,3.861 v 26.901 c 0,5.891 4.776,10.667 10.667,10.667 h 42.667 v 0 c 5.891,0 10.667,-4.776 10.667,-10.667 v -26.891 c 3.168,-1.128 6.276,-2.417 9.312,-3.861 l 19.029,19.019 c 4.165,4.164 10.917,4.164 15.083,0 l 30.176,-30.176 c 4.164,-4.165 4.164,-10.917 0,-15.083 l -19.04,-19.029 c 1.451,-3.035 2.743,-6.143 3.872,-9.312 h 26.901 c 5.891,0 10.667,-4.776 10.667,-10.667 V 138.68 c -10e-4,-5.891 -4.776,-10.666 -10.667,-10.666 z"
         inkscape:connector-curvature="0" 
         data--50-bottom="stroke-dashoffset:6000;" data-center-top="stroke-dashoffset:0;"/>
      </g>
    </g>
    
    <g id="g1844">
      <g id="g1842">
        <path
           id="path1840"
           d="m 384.013,117.347 c -23.564,0 -42.667,19.103 -42.667,42.667 0,23.564 19.102,42.667 42.667,42.667 23.564,0 42.667,-19.103 42.667,-42.667 0,-23.564 -19.102,-42.667 -42.667,-42.667 z m 0,64 c -11.782,0 -21.333,-9.551 -21.333,-21.333 0,-11.782 9.551,-21.333 21.333,-21.333 11.782,0 21.333,9.551 21.333,21.333 10e-4,11.782 -9.55,21.333 -21.333,21.333 z"
           inkscape:connector-curvature="0" 
           data--50-bottom="stroke-dashoffset:6000;" data-center-top="stroke-dashoffset:0;"/>
      </g>
    </g>

    <g id="g1850">
      <g id="g1848">
        <path
         id="path1846"
         d="m 160.013,170.68 v 10.667 h -32 V 170.68 H 106.68 v 10.667 c -0.006,0.295 -0.006,0.589 0,0.884 0.244,11.538 9.795,20.693 21.333,20.449 h 32 c 0.295,0.006 0.589,0.006 0.884,0 11.538,-0.244 20.693,-9.795 20.449,-21.333 V 170.68 Z"
         inkscape:connector-curvature="0" 
         data--50-bottom="stroke-dashoffset:6000;" data-center-top="stroke-dashoffset:0;"/>
      </g>
    </g>
      
    <g id="g1856">
      <g id="g1854">
       <path
         id="path1852"
         d="m 298.68,298.68 c -17.673,0 -32,14.327 -32,32 0,17.673 14.327,32 32,32 17.673,0 32,-14.327 32,-32 0,-17.673 -14.327,-32 -32,-32 z m 0,42.667 c -5.891,0 -10.667,-4.776 -10.667,-10.667 0,-5.891 4.776,-10.667 10.667,-10.667 5.891,0 10.667,4.776 10.667,10.667 0,5.891 -4.776,10.667 -10.667,10.667 z"
         inkscape:connector-curvature="0" 
         data--50-bottom="stroke-dashoffset:6000;" data-center-top="stroke-dashoffset:0;"/>
      </g>
    </g>
    
    <g id="g1862">
      <g id="g1860">
        <path
         id="path1858"
         d="m 181.347,245.347 c -17.673,0 -32,14.327 -32,32 0,17.673 14.327,32 32,32 17.673,0 32,-14.327 32,-32 0,-17.673 -14.327,-32 -32,-32 z m 0,42.667 c -5.891,0 -10.667,-4.776 -10.667,-10.667 0,-5.891 4.776,-10.667 10.667,-10.667 5.891,0 10.667,4.776 10.667,10.667 -0.001,5.891 -4.776,10.667 -10.667,10.667 z"
         inkscape:connector-curvature="0" 
         data--50-bottom="stroke-dashoffset:6000;" data-center-top="stroke-dashoffset:0;"/>
      </g>
    </g>

    <g id="g1868">
      <g id="g1866">
         <path
           id="path1864"
           d="m 277.347,74.68 c -17.673,0 -32,14.327 -32,32 0,17.673 14.327,32 32,32 17.673,0 32,-14.327 32,-32 0,-17.673 -14.327,-32 -32,-32 z m 0,42.667 c -5.891,0 -10.667,-4.776 -10.667,-10.667 0,-5.891 4.776,-10.667 10.667,-10.667 5.891,0 10.667,4.776 10.667,10.667 0,5.891 -4.776,10.667 -10.667,10.667 z"
           inkscape:connector-curvature="0" 
           data--50-bottom="stroke-dashoffset:6000;" data-center-top="stroke-dashoffset:0;"/>
      </g>
    </g>

    <g id="g1874">
      <g id="g1872">
        <rect
         id="rect1870"
         height="21.333"
         width="21.333"
         y="170.67999"
         x="224.013" 
         data--50-bottom="stroke-dashoffset:6000;" data-center-top="stroke-dashoffset:0;"/>
      </g>
    </g>
    
    <g id="g1880">
      <g id="g1878">
        <rect
         id="rect1876"
         height="21.333"
         width="21.333"
         y="213.347"
         x="224.013" 
         data--50-bottom="stroke-dashoffset:6000;" data-center-top="stroke-dashoffset:0;"/>
      </g>
    </g>
    
    <g id="g1886">
      <g id="g1884">
        <rect
         id="rect1882"
         height="21.333"
         width="21.333"
         y="416.01401"
         x="170.67999" 
         data--50-bottom="stroke-dashoffset:6000;" data-center-top="stroke-dashoffset:0;"/>
      </g>
    </g>
  </g>
  <g
     aria-label="Pronites"
     style="font-style:normal;font-variant:normal;font-weight:normal;font-stretch:normal;font-size:112.0451889px;line-height:1.25;font-family:Megrim;-inkscape-font-specification:Megrim;letter-spacing:0px;word-spacing:0px;fill:#fff;fill-opacity:0.8;stroke:none;stroke-width:1.16713738"
     id="pronitesEntry"
     transform="matrix(1.1704796,0,0,1.1704796,-70.02589,-137.88359)">
    <path
       d="m 300.5265,778.32071 -1.68068,-2.91317 6.27453,-3.58545 q 7.73112,-4.25772 7.73112,-13.55747 0,-17.367 -26.44266,-17.367 h -10.30816 v 75.07028 h -3.36136 v -78.43164 h 13.66952 q 14.78996,0 22.29699,5.49022 7.50703,5.37817 7.50703,15.23814 0,11.20452 -9.4118,16.47065 z"
       style="stroke-width:1.16713738"
       id="path283"
       inkscape:connector-curvature="0" />
    <path
       d="m 358.49763,783.36275 15.23815,32.60515 h -3.69749 l -15.68633,-33.61356 q 0.22409,-0.11205 1.90477,-0.89636 1.79272,-0.89636 2.46499,-1.2325 0.67227,-0.44818 2.24091,-1.45659 1.56863,-1.0084 2.35294,-1.90477 0.78432,-1.0084 1.68068,-2.2409 1.00841,-1.34454 1.45659,-2.91317 0.44818,-1.68068 0.44818,-3.58545 0,-7.05885 -6.72271,-10.4202 -6.72271,-3.36136 -16.69473,-3.36136 h -8.96362 v 61.62486 h -3.36135 v -64.98621 h 12.32497 q 13.22133,0 19.94404,4.59385 6.83476,4.59385 6.83476,12.54906 0,5.15408 -3.4734,9.18771 -3.47341,3.92158 -8.29135,6.05044 z"
       style="stroke-width:1.16713738"
       id="path285"
       inkscape:connector-curvature="0" />
    <path
       d="m 421.6491,754.45509 q -3.80954,-1.2325 -9.41179,-1.2325 -5.60226,0 -9.4118,1.2325 -3.80954,1.12045 -7.05885,4.36976 -3.13726,3.13726 -4.7059,9.29975 -1.56863,6.05044 -1.56863,15.35019 0,9.29975 1.56863,15.46224 1.56864,6.05044 4.7059,9.29975 3.24931,3.13726 7.05885,4.36976 3.80954,1.12045 9.4118,1.12045 5.60225,0 9.41179,-1.12045 3.80954,-1.2325 6.9468,-4.36976 3.24931,-3.24931 4.81795,-9.29975 1.56863,-6.16249 1.56863,-15.46224 0,-9.29975 -1.56863,-15.35019 -1.56864,-6.16249 -4.81795,-9.29975 -3.13726,-3.24931 -6.9468,-4.36976 z m 10.64429,54.67805 q -6.05044,7.95521 -20.05608,7.95521 -14.00565,0 -20.05609,-7.95521 -6.05044,-7.95521 -6.05044,-25.65835 0,-17.70314 6.05044,-25.65835 6.05044,-7.95521 20.05609,-7.95521 14.00564,0 20.05608,7.95521 6.05044,7.95521 6.05044,25.65835 0,17.70314 -6.05044,25.65835 z"
       style="stroke-width:1.16713738"
       id="path287"
       inkscape:connector-curvature="0" />
    <path
       d="m 456.77176,815.9679 v -64.98621 h 3.36136 l 36.52673,58.82372 v -58.82372 h 3.36136 v 64.98621 h -3.36136 l -36.52673,-58.93577 v 58.93577 z"
       style="stroke-width:1.16713738"
       id="path289"
       inkscape:connector-curvature="0" />
    <path
       d="m 521.32905,750.98169 h 3.36135 v 64.98621 h -3.36135 z"
       style="stroke-width:1.16713738"
       id="path291"
       inkscape:connector-curvature="0" />
    <path
       d="m 588.07472,750.98169 v 3.36135 h -23.52949 v 61.62486 h -3.36135 v -61.62486 h -23.52949 v -3.36135 z"
       style="stroke-width:1.16713738"
       id="path293"
       inkscape:connector-curvature="0" />
    <path
       d="m 644.45971,809.35723 q -6.16248,7.73112 -20.16813,7.73112 -14.00565,0 -20.05609,-7.95521 -6.05044,-7.95521 -6.05044,-25.65835 0,-17.70314 6.05044,-25.65835 6.05044,-7.95521 20.05609,-7.95521 16.24655,0 22.0729,10.6443 l -27.45107,22.96926 h -5.26612 l 28.34743,-23.64153 q -4.92999,-6.61067 -17.70314,-6.61067 -5.60226,0 -9.4118,1.2325 -3.80953,1.12045 -7.05884,4.36976 -3.13727,3.13726 -4.7059,9.29975 -1.56863,6.05044 -1.56863,15.35019 0,9.29975 1.56863,15.46224 1.56863,6.05044 4.7059,9.29975 3.24931,3.13726 7.05884,4.36976 3.80954,1.12045 9.4118,1.12045 12.77315,0 17.70314,-6.61066 z"
       style="stroke-width:1.16713738"
       id="path295"
       inkscape:connector-curvature="0" />
    <path
       d="m 679.62266,749.63714 q 13.8936,0 19.71995,6.16249 l -2.2409,2.46499 q -5.37817,-5.26612 -17.03087,-5.26612 -17.47905,0 -17.47905,13.8936 0,5.37817 4.25771,8.62748 4.25772,3.13727 10.30816,4.81795 6.16249,1.68067 12.21293,3.58544 6.16248,1.79272 10.4202,5.9384 4.25772,4.03362 4.25772,10.64429 0,7.73112 -6.38658,12.32497 -6.38657,4.59385 -18.48745,4.59385 -5.9384,0 -11.76475,-1.56863 -5.7143,-1.56863 -8.51543,-4.59385 l 2.2409,-2.465 q 5.7143,5.26613 17.59109,5.26613 10.86839,0 16.3586,-4.03363 5.60226,-4.03363 5.60226,-9.4118 0,-5.60225 -4.25772,-9.07566 -4.25771,-3.4734 -10.4202,-5.15407 -6.05044,-1.79273 -12.21292,-3.58545 -6.05044,-1.90477 -10.30816,-5.82635 -4.25772,-3.92158 -4.25772,-10.30816 0,-8.62748 5.71431,-12.77315 5.82635,-4.25772 14.67792,-4.25772 z"
       style="stroke-width:1.16713738"
       id="path297"
       inkscape:connector-curvature="0" />
  </g>
</svg>
