<svg version="1.1" width="100%" height="850px" viewBox="0 0 501 850">
<style type="text/css">
<![CDATA[
	.st1{fill:none;stroke:#FFFFFF;stroke-width:2;stroke-miterlimit:4;
	stroke-linecap: round; 
	stroke-linejoin: miter; 
	stroke-opacity: 1; 
	stroke-dasharray: 6000; stroke-dashoffset: 6000;}
]]>
</style>
<circle class="st1" style="fill: #fff" data--50-bottom="opacity:0" data-center-top="opacity:1" cx="-180" cy="25" r="4.156"/>
<!--<circle class="st0" data--150-bottom="stroke-dashoffset:2000;" data-center-top="stroke-dashoffset:0;" cx="172.375" cy="25.375" r="9.156"/>-->
<line class="st1" data--50-bottom="stroke-dashoffset:6000;" data-center-top="stroke-dashoffset:0;" x1="-180" y1="25" x2="-180" y2="150"/>
<circle class="st1" style="fill: #fff" data--50-bottom="opacity:0" data-center-top="opacity:1" cx="-180" cy="150" r="4.156"/>
<line class="st1" data-0="stroke-dashoffset:16000;" data--50-bottom="stroke-dashoffset:0;" x1="-180" y1="150" x2="350" y2="520"/>
<circle class="st1" style="fill: #fff" data--50-bottom="opacity:0" data-center-top="opacity:1" cx="350" cy="520" r="4.156"/>
<!--<circle class="st0" data--150-bottom="stroke-dashoffset:2000;" data-center-top="stroke-dashoffset:0;" cx="750" cy="800" r="9.156"/> -->
<!--<line class="st0" data-0="stroke-dashoffset:6000;" data--10-bottom="stroke-dashoffset:0;" x1="116" y1="267.5" x2="161" y2="267.5"/>
<line class="st0" data-0="stroke-dashoffset:6000;" data--10-bottom="stroke-dashoffset:0;" x1="182" y1="267.5" x2="474" y2="267.5"/>-->
<rect
   style="fill:url(#radialGradient3773);fill-opacity:1;stroke-width:2.56225777"
   id="rect3759"
   width="1234.3402"
   height="436.10385"
   x="-105.85511"
   y="-135.68159"
   ry="0"
   transform="matrix(0.81696259,0.57669067,-0.92242988,0.38616463,0,0)"
   data-0="opacity:0" data--800-bottom="opacity:0.8" />
 <g
     id="g89"
     transform="matrix(0.98071153,0,0,0.98071153,244.34893,445.31378)" class="st2"
       data-bottom-top="fill-opacity:0;" data-bottom-bottom="fill-opacity:0.8;">
    <path
       id="path54"
       d="m 223.97266,83.304688 c 1.46484,1.464843 3.38281,2.199218 5.30078,2.199218 1.92187,0 3.83984,-0.734375 5.30468,-2.199218 2.92969,-2.929688 2.92969,-7.675782 0,-10.605469 l -70,-70.003907 c -2.92968,-2.925781 -7.67968,-2.929687 -10.60937,0 -2.92578,2.929688 -2.92578,7.679688 0,10.609376 z m 0,0"
       inkscape:connector-curvature="0" />
    <path
       id="path56"
       d="m 284.92969,231.86328 c 0,-34.24219 -12.33203,-67.34375 -34.71875,-93.20312 -22.15625,-25.59375 -52.69141,-42.500004 -85.98047,-47.605472 -4.09375,-0.636719 -7.92188,2.183593 -8.55078,6.277343 -0.62891,4.089849 2.17968,7.921879 6.27734,8.546879 34.09375,5.23047 63.54297,24.1875 83.03125,50.65625 H 86.882812 c -2.679687,0 -5.152343,1.42968 -6.492187,3.75 l -24.378906,42.22265 c -1.339844,2.32031 -1.339844,5.1836 0,7.5 l 17.882812,30.97266 h -58.5625 C 15.117188,237.95703 15,234.91406 15,231.86719 c 0,-65.78907 49.292969,-120.3125 114.66016,-126.82813 4.12109,-0.41015 7.1289,-4.08593 6.71875,-8.207029 -0.41407,-4.121093 -4.08204,-7.125 -8.20704,-6.71875 C 93.199219,93.597656 60.855469,109.89063 37.097656,135.98437 13.175781,162.25391 0,196.30859 0,231.86328 c 0,33.5625 11.902344,66.16016 33.519531,91.78906 1.480469,1.75782 3.601563,2.66407 5.734375,2.66407 1.707032,0 3.425782,-0.57813 4.832032,-1.76563 3.167968,-2.67187 3.570312,-7.40234 0.898437,-10.57031 -14.09375,-16.71094 -23.566406,-36.74219 -27.671875,-58 h 118.32422 c 2.67969,0 5.15234,-1.42969 6.49609,-3.75 l 24.375,-42.22266 c 1.33985,-2.32031 1.33985,-5.17969 0,-7.5 L 148.625,171.53516 h 105.90234 c 9.83203,18.11718 15.40235,38.72656 15.40235,60.32812 0,70.28516 -57.1836,127.46484 -127.46485,127.46484 -26.60546,0 -52.08984,-8.11328 -73.703121,-23.45703 -3.378907,-2.39843 -8.0625,-1.60547 -10.460938,1.77344 -2.394531,3.375 -1.601562,8.05859 1.773438,10.45703 24.167969,17.15625 52.656251,26.22656 82.390621,26.22656 78.55469,0 142.46485,-63.90625 142.46485,-142.46484 z m -153.6211,9.11719 H 91.214844 L 71.167969,206.25781 91.214844,171.53516 h 40.093746 l 20.04688,34.72265 z m 0,0"
       inkscape:connector-curvature="0" />
    <path
       id="path58"
       d="m 507.03516,211.47266 -4.21875,-4.21485 c 5.85156,-9.30469 8.80468,-20.12109 8.42968,-31.42969 -0.51562,-15.61328 -7.26953,-29.8789 -19.02343,-40.16796 L 422.10937,74.261719 C 416.55078,69.394531 408.3125,69.3125 402.66406,73.835938 L 331.52344,2.695312 c -2.92578,-2.925781 -7.67578,-2.925781 -10.60547,0 -2.92969,2.929688 -2.92969,7.679688 0,10.609376 l 71.33984,71.335937 c -3.23047,5.097656 -3.1875,11.710937 0.42578,16.789065 2.07032,2.91797 19.58594,29.14062 -3.28515,52.01172 -14.49219,14.49218 -29.98047,20.63671 -43.98828,22.50781 v -16.60156 c 0,-8.35547 -6.80078,-15.15625 -15.15625,-15.15625 h -14.78125 c -2.70313,0 -5.23438,0.71875 -7.4336,1.96484 L 256.80859,94.929688 C 253.87891,92 249.12891,92 246.20312,94.929688 c -2.92968,2.929687 -2.92968,7.675782 0,10.605472 l 54.11719,54.11718 v 13.42578 c -1.23828,0.47266 -2.43359,1.09766 -3.53906,1.90235 -3.89063,2.82812 -6.16406,7.20703 -6.23438,12.01562 l -0.88281,57.21875 C 288.92187,276.1875 276.0625,306.25 253.44531,328.86328 l -23.09765,23.10156 c -6.46094,6.45703 -9.33594,15.33594 -7.88672,24.35157 1.44922,9.01953 6.96093,16.55078 15.11718,20.66406 11.44532,5.76562 23.75,8.57031 35.95313,8.57031 11.44922,0 22.80469,-2.48047 33.26562,-7.29297 l 6.72657,6.72656 c 3.32031,3.32032 7.72265,4.96485 12.21093,4.96485 4.85547,0 9.82032,-1.92188 13.63282,-5.73438 3.45312,-3.45312 5.48828,-7.96484 5.72656,-12.70312 0.25,-4.94922 -1.55469,-9.73828 -4.95703,-13.14063 l -3.21094,-3.21093 2.82813,-2.82422 3.21093,3.21094 c 3.32032,3.3164 7.72266,4.96484 12.21094,4.96484 4.85547,0 9.82031,-1.92578 13.63281,-5.73828 7.33594,-7.33594 7.6836,-18.92969 0.76953,-25.84375 l -3.21093,-3.20703 2.82812,-2.82813 3.21094,3.21094 c 3.32031,3.32031 7.71875,4.96875 12.21094,4.96875 4.85547,0 9.8164,-1.92969 13.6289,-5.73828 3.45703,-3.45313 5.48828,-7.96485 5.73047,-12.70313 0.25,-4.94922 -1.55469,-9.73828 -4.95703,-13.14062 l -3.21094,-3.21094 51.96094,-51.96094 3.21094,3.21094 c 3.32031,3.32031 7.72265,4.96484 12.21094,4.96484 4.85546,0 9.82031,-1.92578 13.63281,-5.73437 3.45312,-3.45703 5.48828,-7.96875 5.72656,-12.70313 0.25,-4.94921 -1.55469,-9.73828 -4.95703,-13.14062 l -3.21094,-3.21094 2.82813,-2.82812 3.21093,3.21093 c 3.32032,3.32032 7.71875,4.96485 12.21094,4.96485 4.85547,0 9.82031,-1.92578 13.63281,-5.73828 7.33204,-7.33985 7.67969,-18.9336 0.76954,-25.84375 z m -80.87891,53.24218 H 302.72656 c 1.1211,-6.6289 1.77735,-13.3789 1.9336,-20.21093 l 0.0312,-2.07032 H 448.4375 Z m -24.1875,24.19141 H 296.32812 c 1.10157,-3.02734 2.09766,-6.08984 2.98438,-9.19141 h 111.84375 z m -37.28906,37.28516 h -88.9375 c 5.42578,-7 10.13281,-14.46094 14.08984,-22.28516 h 97.13281 z M 496.25391,176.32422 c 0.3789,11.41797 -3.86328,22.15625 -11.94141,30.23437 l -5.89063,5.89454 c -4.24609,-2.40625 -8.16015,-5.37891 -11.66406,-8.87891 -20.02734,-20.02734 -21.16015,-51.89453 -3.42187,-73.27344 l 19.0039,16.64063 c 8.59375,7.52734 13.53907,17.96093 13.91407,29.38281 z m -96.2461,-12.27734 c 22.44532,-22.44532 18.63282,-51.98829 4.89844,-71.300786 0,0 -0.0117,-0.07422 0.0586,-0.144532 l 7.05079,-7.050781 c 0.0586,-0.05859 0.15234,-0.0625 0.21093,-0.0078 l 39.82422,34.874999 c -22.89453,27.26953 -21.53906,68.12109 4.10156,93.76172 3.47266,3.47656 7.27735,6.54297 11.35157,9.18359 l -4.06641,4.07031 H 304.92188 l 0.61718,-40.20703 c 0.004,-0.0547 0.004,-0.0703 0.0586,-0.11328 0.0391,-0.0273 0.0664,-0.0352 0.0937,-0.0352 0.0234,0 0.0469,0.004 0.0703,0.0156 16.37891,5.02734 58.34766,12.85156 94.24609,-23.04687 z m -84.53515,-4.85547 h 14.78125 c 0.0859,0 0.15234,0.0703 0.15234,0.15625 v 17.11328 c -5.57812,-0.33985 -10.67969,-1.22266 -15.08984,-2.29688 v -14.8164 c 0,-0.0859 0.0703,-0.15625 0.15625,-0.15625 z m -71.14453,224.39062 c -3.8086,-1.91797 -6.37891,-5.43359 -7.05469,-9.64453 -0.67969,-4.21094 0.66406,-8.35547 3.67969,-11.36719 l 21.37499,-21.3789 h 87.35157 l -30.33985,30.33984 c -19.82812,19.82812 -49.97265,24.67187 -75.01171,12.05078 z m 84.42968,10.02344 c -1.58984,1.59375 -3.71875,1.68359 -4.6289,0.77344 l -3.94141,-3.94141 c 2.0625,-1.49219 4.0625,-3.09375 6.00391,-4.80078 l 3.33593,3.33984 c 0.53125,0.52735 0.60938,1.25782 0.58594,1.77735 -0.0508,1.0039 -0.54687,2.04297 -1.35547,2.85156 z m 30.21094,-34.07031 c 0.91406,0.91406 0.82031,3.03906 -0.76953,4.6289 -1.58984,1.59375 -3.71875,1.6875 -4.62891,0.77344 l -3.21093,-3.21094 5.39843,-5.39844 z m 29.44141,-29.4375 c 0.53125,0.52734 0.60937,1.25781 0.58203,1.77343 -0.0508,1.00391 -0.54297,2.04297 -1.35156,2.85547 -1.59375,1.58985 -3.71875,1.6836 -4.62891,0.76953 l -3.21094,-3.21093 5.39844,-5.39844 z m 78.57421,-78.57813 c 0.53125,0.52735 0.60938,1.25781 0.58594,1.77735 -0.0508,1.0039 -0.54687,2.04296 -1.35547,2.85156 -1.58984,1.59375 -3.71875,1.68359 -4.6289,0.76953 l -3.21094,-3.20703 5.40234,-5.40235 z m 28.67188,-24.8125 c -1.58984,1.59375 -3.71875,1.6875 -4.62891,0.77344 l -3.21093,-3.21094 5.39843,-5.39844 3.21094,3.20704 c 0.91406,0.91406 0.82031,3.03906 -0.76953,4.6289 z m 0,0"
       inkscape:connector-curvature="0" />
    <path
       id="path60"
       d="m 127.68359,312.15234 h 24.32032 c 4.14062,0 7.5,-3.35547 7.5,-7.5 0,-4.14062 -3.35938,-7.5 -7.5,-7.5 h -24.32032 c -4.14062,0 -7.5,3.35938 -7.5,7.5 0,4.14453 3.35938,7.5 7.5,7.5 z m 0,0"
       inkscape:connector-curvature="0" />
    <path
       id="path62"
       d="m 127.68359,332.61719 h 24.32032 c 4.14062,0 7.5,-3.35547 7.5,-7.5 0,-4.14063 -3.35938,-7.5 -7.5,-7.5 h -24.32032 c -4.14062,0 -7.5,3.35937 -7.5,7.5 0,4.14453 3.35938,7.5 7.5,7.5 z m 0,0"
       inkscape:connector-curvature="0" />
    <path
       id="path64"
       d="m 216.41406,260.84375 c 0,-12.80859 -10.42187,-23.22656 -23.22656,-23.22656 -12.80859,0 -23.22656,10.41797 -23.22656,23.22656 0,12.80859 10.41797,23.22656 23.22656,23.22656 12.80469,0 23.22656,-10.42187 23.22656,-23.22656 z m -31.45312,0 c 0,-4.53516 3.6875,-8.22656 8.22656,-8.22656 4.53516,0 8.22656,3.6914 8.22656,8.22656 0,4.53516 -3.6914,8.22656 -8.22656,8.22656 -4.53906,0 -8.22656,-3.6914 -8.22656,-8.22656 z m 0,0"
       inkscape:connector-curvature="0" />
    <path
       id="path66"
       d="m 256.00781,66.144531 h 17.46094 c 4.14062,0 7.5,-3.359375 7.5,-7.5 0,-4.144531 -3.35938,-7.5 -7.5,-7.5 h -17.46094 c -4.14453,0 -7.5,3.355469 -7.5,7.5 0,4.140625 3.35547,7.5 7.5,7.5 z m 0,0"
       inkscape:connector-curvature="0" />
    <path
       id="path68"
       d="m 266.22266,76.359375 c 0,4.140625 3.35546,7.5 7.5,7.5 h 17.46093 c 4.14063,0 7.5,-3.359375 7.5,-7.5 0,-4.144531 -3.35937,-7.5 -7.5,-7.5 h -17.46093 c -4.14454,0 -7.5,3.355469 -7.5,7.5 z m 0,0"
       inkscape:connector-curvature="0" />
    <path
       id="path70"
       d="m 283.9375,94.074219 c 0,4.140625 3.35547,7.500001 7.5,7.500001 h 17.46094 c 4.14062,0 7.5,-3.359376 7.5,-7.500001 0,-4.144531 -3.35938,-7.5 -7.5,-7.5 H 291.4375 c -4.14453,0 -7.5,3.355469 -7.5,7.5 z m 0,0"
       inkscape:connector-curvature="0" />
  </g>
</svg>
