<svg id='line7' version="1.1" width="100%" height="850px" viewBox="0 0 501 850">
	<defs
     id="defs46">
    <linearGradient
       inkscape:collect="always"
       id="linearGradient58">
      <stop
         style="stop-color:#ffffff;stop-opacity:0.3;"
         offset="0"
         id="stop54" />
      <stop
         style="stop-color:#ffffff;stop-opacity:0;"
         offset="1"
         id="stop56" />
    </linearGradient>
    <radialGradient
       inkscape:collect="always"
       xlink:href="#linearGradient58"
       id="radialGradient60"
       cx="-486.20273"
       cy="938.32513"
       fx="-486.20273"
       fy="938.32513"
       r="467.02576"
       gradientTransform="matrix(1.3761075,-0.51119281,0.40337517,0.26735928,-226.46192,234.94989)"
       gradientUnits="userSpaceOnUse" />
  </defs>
<style type="text/css">
<![CDATA[
	.st1{fill:none;stroke:#FFFFFF;stroke-width:2;stroke-miterlimit:4;
	stroke-linecap: round; 
	stroke-linejoin: miter; 
	stroke-opacity: 1; 
	stroke-dasharray: 6000; stroke-dashoffset: 6000;}
]]>
</style>
<circle class="st1" style="fill: #fff" data--50-bottom="opacity:0" data-center-top="opacity:1" cx="750" cy="25" r="4.156"/>
<line class="st1" data--50-bottom="stroke-dashoffset:6000;" data-center-top="stroke-dashoffset:5880;" x1="750" y1="25" x2="750" y2="150"/>
<circle class="st1" style="fill: #fff" data--50-bottom="opacity:0" data-center-top="opacity:1" cx="750" cy="150" r="4.156"/>
<line class="st1" data-center-top="stroke-dashoffset:6000;" data--50-bottom="stroke-dashoffset:5200;" x2="250" y1="150" x1="750" y2="502"/>
<circle class="st1" style="fill: #fff" data--50-bottom="opacity:0" data-center-top="opacity:1" cx="250" cy="502" r="4.156"/>
<rect
     style="fill:url(#radialGradient60);stroke-width:1.03240705;fill-opacity:1"
     id="rect52"
     width="934.05151"
     height="355.83936"
     x="-864.7923"
     y="372.28802"
     transform="matrix(0.81927607,-0.57339927,0.9482409,0.31755187,0,0)"
     data-0="opacity:0" data--800-bottom="opacity:0.8" />

<g
     id="svgImg7"
     transform="translate(-210.31647,447.20348)"  class="st2"
       data-bottom-top="fill-opacity:0;" data-bottom-bottom="fill-opacity:0.8;">
    <g
       id="g497">
  <g
   id="g495">
    <path
   id="path493"
   d="M 192.253,60.126 V 88.294 C 123.86,57.245 43.247,87.518 12.197,155.911 c -31.05,68.393 -0.776,149.006 67.616,180.056 35.725,16.219 76.714,16.219 112.439,0 v 28.16 h 16 v -304 h -15.999 z m 0,219.76 C 154.83,310.896 99.355,305.697 68.345,268.274 37.335,230.851 42.534,175.376 79.957,144.366 c 32.568,-26.987 79.728,-26.987 112.296,0 z m 0,-155.304 C 143.902,93.578 79.572,107.642 48.568,155.993 c -31.004,48.351 -16.94,112.681 31.411,143.685 34.21,21.936 78.064,21.936 112.274,0 v 18.488 C 133.691,349.194 61.064,326.874 30.035,268.312 -0.994,209.75 21.328,137.123 79.89,106.094 c 35.141,-18.619 77.223,-18.619 112.363,0 z"
   inkscape:connector-curvature="0" />

  </g>

</g>
    <g
       id="g503">
  <g
   id="g501">
    <rect
   id="rect499"
   height="16"
   width="56"
   y="84.125999"
   x="224.25301" />

  </g>

</g>
    <g
       id="g509">
  <g
   id="g507">
    <rect
   id="rect505"
   height="16"
   width="56"
   y="260.12601"
   x="240.25301" />

  </g>

</g>
    <g
       id="g515">
  <g
   id="g513">
    <rect
   id="rect511"
   height="16"
   width="56"
   y="172.12601"
   x="240.25301" />

  </g>

</g>
    <g
       id="g521">
  <g
   id="g519">
    <rect
   id="rect517"
   height="16"
   width="24"
   y="340.12601"
   x="368.25299" />

  </g>

</g>
    <g
       id="g527">
  <g
   id="g525">
    <rect
   id="rect523"
   height="16"
   width="24"
   y="348.12601"
   x="224.25301" />

  </g>

</g>
    <g
       id="g533">
  <g
   id="g531">
    <rect
   id="rect529"
   height="16"
   width="56"
   y="108.126"
   x="328.25299" />

  </g>

</g>
    <g
       id="g539">
  <g
   id="g537">
    <rect
   id="rect535"
   height="16"
   width="56"
   y="60.125999"
   x="368.25299" />

  </g>

</g>
    <g
       id="g545">
  <g
   id="g543">
    <rect
   id="rect541"
   height="16"
   width="16"
   y="260.12601"
   x="312.25299" />

  </g>

</g>
    <g
       id="g551">
  <g
   id="g549">
    <rect
   id="rect547"
   height="16"
   width="32"
   y="196.12601"
   x="384.25299" />

  </g>

</g>
    <g
       id="g557">
  <g
   id="g555">
    <path
   id="path553"
   d="m 183.297,228.463 c -1.599,-6.358 -5.127,-12.065 -10.1,-16.337 13.298,-11.424 14.817,-31.466 3.393,-44.764 -4.272,-4.973 -9.979,-8.501 -16.337,-10.1 v -17.136 h -16 v 16 h -16 v -16 h -16 v 16 h -16 v 16 h 8 v 80 h -8 v 16 h 16 v 16 h 16 v -16 h 16 v 16 h 16 V 266.99 c 17.002,-4.275 27.319,-21.525 23.044,-38.527 z m -31.044,23.663 h -32 v -32 h 32 c 8.837,0 16,7.163 16,16 0,8.837 -7.164,16 -16,16 z m 0,-48 h -32 v -32 h 32 c 8.837,0 16,7.163 16,16 0,8.837 -7.164,16 -16,16 z"
   inkscape:connector-curvature="0" />

  </g>

</g>
  </g>

  <g
     aria-label="Sponsors"
     style="font-style:normal;font-variant:normal;font-weight:normal;font-stretch:normal;font-size:112.14009094px;line-height:1.25;font-family:Megrim;-inkscape-font-specification:Megrim;letter-spacing:0px;word-spacing:0px;fill:#fff;fill-opacity:0.8;stroke:none;stroke-width:1.16812587"
     id="sponsorsEntry">
    <path data-50-bottom="fill-opacity:0;" data-top-top="fill-opacity:0.8;"
       d="m 252.10793,716.31221 q 0,-10.87759 5.49487,-15.69962 5.49486,-4.82202 17.83027,-4.82202 8.63479,0 13.90537,4.4856 5.27059,4.48561 7.62553,13.68109 l -10.42903,7.84981 h -5.49486 l 12.11113,-9.08335 q -2.35494,-7.51338 -6.84055,-10.54117 -4.37346,-3.02778 -10.87759,-3.02778 -4.4856,0 -7.62552,0.5607 -3.02778,0.5607 -6.16771,2.2428 -3.02778,1.56997 -4.59774,5.15845 -1.56996,3.58848 -1.56996,9.19549 0,4.93416 4.4856,8.74692 4.59774,3.81277 11.10187,6.50413 6.50413,2.69136 13.00825,5.49486 6.61627,2.80351 11.10187,7.17697 4.59774,4.37346 4.59774,10.09261 0,11.21401 -5.607,16.70887 -5.49487,5.49487 -18.95168,5.49487 -10.98973,0 -17.26957,-4.37347 -6.27985,-4.4856 -8.63479,-13.79323 l 3.13993,-1.34568 q 2.2428,9.08335 7.62552,12.67183 5.49487,3.47634 15.13891,3.47634 10.76545,0 15.9239,-4.14918 5.27058,-4.14918 5.27058,-14.69035 0,-4.93417 -4.59774,-8.74693 -4.48561,-3.81276 -11.10187,-6.50413 -6.50413,-2.69136 -13.00825,-5.49486 -6.50413,-2.8035 -11.10187,-7.17697 -4.48561,-4.37346 -4.48561,-10.0926 z"
       style="stroke-width:1.16812587"
       id="path653" />
    <path data-50-bottom="fill-opacity:0;" data-top-top="fill-opacity:0.8;"
       d="m 344.68484,751.18777 -1.6821,-2.91564 6.27984,-3.58848 q 7.73767,-4.26132 7.73767,-13.56895 0,-17.38172 -26.46506,-17.38172 H 320.2383 v 84.10507 h -3.3642 v -87.46927 h 13.68109 q 14.80249,0 22.31587,5.49487 7.51339,5.38272 7.51339,15.25105 0,11.21401 -9.41977,16.48459 z"
       style="stroke-width:1.16812587"
       id="path655" />
    <path data-50-bottom="fill-opacity:0;" data-top-top="fill-opacity:0.8;"
       d="m 408.9744,713.84512 q -3.81276,-1.23354 -9.41977,-1.23354 -5.607,0 -9.41976,1.23354 -3.81277,1.12141 -7.06483,4.37347 -3.13992,3.13992 -4.70988,9.30763 -1.56996,6.05556 -1.56996,15.36319 0,9.30763 1.56996,15.47533 1.56996,6.05557 4.70988,9.30763 3.25206,3.13992 7.06483,4.37346 3.81276,1.1214 9.41976,1.1214 5.60701,0 9.41977,-1.1214 3.81277,-1.23354 6.95269,-4.37346 3.25206,-3.25206 4.82202,-9.30763 1.56996,-6.1677 1.56996,-15.47533 0,-9.30763 -1.56996,-15.36319 -1.56996,-6.16771 -4.82202,-9.30763 -3.13992,-3.25206 -6.95269,-4.37347 z m 10.65331,54.72437 q -6.05556,7.96195 -20.07308,7.96195 -14.01751,0 -20.07307,-7.96195 -6.05557,-7.96195 -6.05557,-25.68008 0,-17.71814 6.05557,-25.68008 6.05556,-7.96195 20.07307,-7.96195 14.01752,0 20.07308,7.96195 6.05557,7.96194 6.05557,25.68008 0,17.71813 -6.05557,25.68008 z"
       style="stroke-width:1.16812587"
       id="path657" />
    <path data-50-bottom="fill-opacity:0;" data-top-top="fill-opacity:0.8;"
       d="m 444.12682,775.41003 v -65.04125 h 3.3642 l 36.55767,58.87355 v -58.87355 h 3.3642 v 65.04125 h -3.3642 l -36.55767,-58.98568 v 58.98568 z"
       style="stroke-width:1.16812587"
       id="path659" />
    <path data-50-bottom="fill-opacity:0;" data-top-top="fill-opacity:0.8;"
       d="m 525.89622,709.0231 q 13.90537,0 19.73666,6.16771 l -2.2428,2.46708 q -5.38273,-5.27059 -17.0453,-5.27059 -17.49385,0 -17.49385,13.90537 0,5.38273 4.26132,8.63479 4.26133,3.13992 10.31689,4.82203 6.16771,1.6821 12.22327,3.58848 6.16771,1.79424 10.42903,5.94342 4.26132,4.03705 4.26132,10.65331 0,7.73767 -6.39198,12.33541 -6.39199,4.59775 -18.50312,4.59775 -5.94342,0 -11.77471,-1.56997 -5.71914,-1.56996 -8.52264,-4.59774 l 2.2428,-2.46708 q 5.71914,5.27058 17.60599,5.27058 10.87759,0 16.37245,-4.03704 5.60701,-4.03704 5.60701,-9.41977 0,-5.607 -4.26132,-9.08335 -4.26133,-3.47634 -10.42903,-5.15844 -6.05557,-1.79424 -12.22327,-3.58848 -6.05557,-1.90638 -10.31689,-5.83129 -4.26132,-3.9249 -4.26132,-10.31689 0,-8.63478 5.71914,-12.78397 5.83129,-4.26132 14.69035,-4.26132 z"
       style="stroke-width:1.16812587"
       id="path661" />
    <path data-50-bottom="fill-opacity:0;" data-top-top="fill-opacity:0.8;"
       d="m 599.52497,713.84512 q -3.81276,-1.23354 -9.41977,-1.23354 -5.607,0 -9.41977,1.23354 -3.81276,1.12141 -7.06482,4.37347 -3.13992,3.13992 -4.70988,9.30763 -1.56997,6.05556 -1.56997,15.36319 0,9.30763 1.56997,15.47533 1.56996,6.05557 4.70988,9.30763 3.25206,3.13992 7.06482,4.37346 3.81277,1.1214 9.41977,1.1214 5.60701,0 9.41977,-1.1214 3.81276,-1.23354 6.95269,-4.37346 3.25206,-3.25206 4.82202,-9.30763 1.56996,-6.1677 1.56996,-15.47533 0,-9.30763 -1.56996,-15.36319 -1.56996,-6.16771 -4.82202,-9.30763 -3.13993,-3.25206 -6.95269,-4.37347 z m 10.65331,54.72437 q -6.05557,7.96195 -20.07308,7.96195 -14.01751,0 -20.07307,-7.96195 -6.05557,-7.96195 -6.05557,-25.68008 0,-17.71814 6.05557,-25.68008 6.05556,-7.96195 20.07307,-7.96195 14.01751,0 20.07308,7.96195 6.05556,7.96194 6.05556,25.68008 0,17.71813 -6.05556,25.68008 z"
       style="stroke-width:1.16812587"
       id="path663" />
    <path data-50-bottom="fill-opacity:0;" data-top-top="fill-opacity:0.8;"
       d="m 662.03955,742.77727 15.25106,32.63276 h -3.70063 l -15.69961,-33.64202 q 0.22428,-0.11214 1.90638,-0.89712 1.79424,-0.89712 2.46708,-1.23354 0.67284,-0.44857 2.24281,-1.45783 1.56996,-1.00926 2.35494,-1.90638 0.78498,-1.00926 1.6821,-2.2428 1.00926,-1.34568 1.45782,-2.91564 0.44856,-1.6821 0.44856,-3.58848 0,-7.06483 -6.7284,-10.42903 -6.72841,-3.36421 -16.70888,-3.36421 h -8.97121 v 61.67705 h -3.3642 v -65.04125 h 12.33541 q 13.23253,0 19.96094,4.59775 6.84054,4.59774 6.84054,12.55969 0,5.15844 -3.47634,9.19548 -3.47634,3.92491 -8.29837,6.05557 z"
       style="stroke-width:1.16812587"
       id="path665" />
    <path data-50-bottom="fill-opacity:0;" data-top-top="fill-opacity:0.8;"
       d="m 709.65704,709.0231 q 13.90537,0 19.73666,6.16771 l -2.24281,2.46708 q -5.38272,-5.27059 -17.04529,-5.27059 -17.49385,0 -17.49385,13.90537 0,5.38273 4.26132,8.63479 4.26132,3.13992 10.31689,4.82203 6.1677,1.6821 12.22327,3.58848 6.1677,1.79424 10.42903,5.94342 4.26132,4.03705 4.26132,10.65331 0,7.73767 -6.39198,12.33541 -6.39199,4.59775 -18.50312,4.59775 -5.94342,0 -11.77471,-1.56997 -5.71914,-1.56996 -8.52265,-4.59774 l 2.24281,-2.46708 q 5.71914,5.27058 17.60599,5.27058 10.87759,0 16.37245,-4.03704 5.60701,-4.03704 5.60701,-9.41977 0,-5.607 -4.26133,-9.08335 -4.26132,-3.47634 -10.42902,-5.15844 -6.05557,-1.79424 -12.22327,-3.58848 -6.05557,-1.90638 -10.31689,-5.83129 -4.26133,-3.9249 -4.26133,-10.31689 0,-8.63478 5.71915,-12.78397 5.83128,-4.26132 14.69035,-4.26132 z"
       style="stroke-width:1.16812587"
       id="path667" />
  </g>

</svg>
