<svg id="line8" version="1.1" width="100%" height="850px" viewBox="0 0 501 850">
<style type="text/css">
<![CDATA[
	.st1{fill:none;stroke:#FFFFFF;stroke-width:2;stroke-miterlimit:4;
	stroke-linecap: round; 
	stroke-linejoin: miter; 
	stroke-opacity: 1; 
	stroke-dasharray: 6000; stroke-dashoffset: 6000;}
]]>
</style>
<circle class="st1" style="fill: #fff" data--50-bottom="opacity:0" data-center-top="opacity:1" cx="-180" cy="25" r="4.156"/>
<line class="st1" data--50-bottom="stroke-dashoffset:6000;" data-center-top="stroke-dashoffset:5880;" x1="-180" y1="25" x2="-180" y2="150"/>
<circle class="st1" style="fill: #fff" data--50-bottom="opacity:0" data-center-top="opacity:1" cx="-180" cy="150" r="4.156"/>
<line class="st1" data-center-top="stroke-dashoffset:6000;" data--50-bottom="stroke-dashoffset:5200;" x1="-180" y1="150" x2="440" y2="580"/>
<circle class="st1" style="fill: #fff" data--50-bottom="opacity:0" data-center-top="opacity:1" cx="440" cy="580" r="4.156"/>
<rect
   style="fill:url(#radialGradient3773);fill-opacity:1;stroke-width:2.56225777"
   id="rect3759"
   width="1234.3402"
   height="436.10385"
   x="-105.85511"
   y="-135.68159"
   ry="0"
   transform="matrix(0.81696259,0.57669067,-0.92242988,0.38616463,0,0)"
   data-0="opacity:0" data--800-bottom="opacity:0.8" />

<g
     id="g747"
     transform="translate(376.15954,363.82568)" class="st2"
       data-bottom-top="fill-opacity:0;" data-bottom-bottom="fill-opacity:0.8;">
    <g
       id="g691">
   <path
   d="m 279.916,190.907 c 0,-9.543 7.631,-17.393 17.254,-17.393 9.464,0 17.074,7.85 17.074,17.393 0,9.563 -7.631,17.333 -17.074,17.333 -9.624,-0.019 -17.254,-7.769 -17.254,-17.333 z M 226.341,43.015 h -0.139 v 23.789 h 21.856 V 43.732 C 255.569,39.927 260.729,32.156 260.729,23.131 260.669,10.32 250.429,0 237.817,0 c -12.711,0 -22.972,10.32 -22.972,23.111 0,8.567 4.643,15.919 11.496,19.904 z m -47.737,165.206 c 9.504,0 17.234,-7.77 17.234,-17.333 0,-9.543 -7.73,-17.393 -17.234,-17.393 -9.523,0 -17.254,7.85 -17.254,17.393 0.001,9.583 7.711,17.333 17.254,17.333 z m 59.213,269.944 c 25.881,0 47.876,-16.736 56.304,-39.807 H 181.553 c 8.328,23.071 30.364,39.807 56.264,39.807 z M 58.446,407.655 c 0,-9.225 5.32,-17.154 13.03,-20.82 v -98.382 c 0,-19.465 14.982,-35.305 33.89,-36.639 v -47.518 c 0,0 4.622,-86.687 76.227,-113.724 21.238,-7.969 40.624,-11.197 57.479,-11.835 16.855,0.657 36.301,3.865 57.479,11.855 71.605,26.937 76.188,113.723 76.188,113.723 v 47.737 c 18.987,1.156 33.93,16.995 33.93,36.46 v 98.323 c 7.671,3.666 13.05,11.615 13.05,20.86 0,12.751 -10.281,23.032 -22.912,23.032 -12.671,0 -22.932,-10.3 -22.932,-23.032 0,-9.245 5.3,-17.154 12.97,-20.86 v -65.628 c -4.303,2.092 -9.045,3.467 -14.066,3.845 v 22.812 c 0.159,1.893 0.319,3.726 0.319,5.579 0,2.032 -0.159,3.905 -0.319,6.017 v 0.558 h -0.08 c -2.989,37.934 -32.655,68.577 -70.071,72.741 l 0.04,0.458 h -63.596 -63.676 l 0.02,-0.458 C 138,428.555 108.473,398.112 105.365,360.018 h -0.04 v -0.558 c -0.179,-2.092 -0.279,-3.985 -0.279,-6.017 0,-1.833 0.159,-3.646 0.279,-5.579 v -22.812 c -5.021,-0.398 -9.842,-1.753 -14.086,-3.845 v 65.628 c 7.69,3.666 13.07,11.615 13.07,20.86 0,12.751 -10.3,23.032 -22.972,23.032 -12.651,0 -22.891,-10.321 -22.891,-23.072 z M 277.266,286.66 c 0,-6.176 -4.961,-11.197 -11.018,-11.197 -6.117,0 -10.958,5.021 -10.958,11.197 0,6.117 4.841,11.117 10.958,11.117 6.097,-0.02 11.018,-5.021 11.018,-11.117 z m 27.215,0 c 0,-6.176 -5.001,-11.197 -11.058,-11.197 -6.037,0 -10.978,5.021 -10.978,11.197 0,6.117 4.961,11.117 10.978,11.117 6.038,-0.02 11.058,-5.021 11.058,-11.117 z m 27.315,0 c 0,-6.176 -4.981,-11.197 -11.117,-11.197 -6.077,0 -11.077,5.021 -11.077,11.197 0,6.117 5.001,11.117 11.077,11.117 6.137,-0.02 11.117,-5.021 11.117,-11.117 z M 146.089,194.075 c 0,29.547 22.932,31.459 22.932,31.459 7.949,2.57 24.884,1.355 32.475,0 7.033,-1.156 32.834,-3.387 36.898,-3.746 0.179,0 0.438,0.02 0.638,0.02 0.219,0 0.478,-0.02 0.578,-0.02 4.164,0.339 29.885,2.59 36.898,3.746 7.71,1.355 24.586,2.57 32.535,0 0,0 22.912,-1.833 22.912,-31.459 0,0 0,-32.794 -22.912,-52.758 -22.255,-19.246 -55.786,-23.47 -68.776,-23.669 v 0 c -0.219,0 -0.458,0 -0.677,0 -0.159,0 -0.398,0 -0.578,0 -0.199,0 -0.438,0 -0.657,0 -0.219,0 -0.418,0 -0.578,0 v 0 c -13.03,0.199 -46.561,4.443 -68.816,23.669 -22.872,19.964 -22.872,52.758 -22.872,52.758 z"
   id="Robo.to"
   inkscape:connector-curvature="0" />

</g>
    
  </g>

</svg>
