<svg version="1.1" id="Layer_1" xmlns="http://www.w3.org/2000/svg" xmlns:xlink="http://www.w3.org/1999/xlink" x="0px" y="0px"
	 width="521.429px" height="64.286px" viewBox="0 0 521.429 64.286" style="enable-background:new 0 0 521.429 64.286;"
	 xml:space="preserve">

<style type="text/css">
.date_text{
	stroke-dashoffset: 225;
	stroke-dasharray: 225;
}
</style>

<g fill="none" fill-rule="evenodd" stroke="#ffffff" stroke-width="1" class="lines">
	<path class="date_text" data--100-bottom="stroke-dashoffset:225;" data-center-top="stroke-dashoffset:0;" d="M29.442,8.548v0.023c1.422,0,2.734,0.137,3.938,0.41s2.273,0.68,3.211,1.219s1.77,1.152,2.496,1.84
		s1.41,1.484,2.051,2.391c0.781,0.969,1.359,2.328,1.734,4.078s0.496,3.547,0.363,5.391s-0.504,3.406-1.113,4.688
		c1.25,0.969,2.316,1.988,3.199,3.059s1.574,2.293,2.074,3.668c0.547,1.359,0.863,3.051,0.949,5.074s-0.074,3.832-0.48,5.426
		c-1.953,6.516-6.375,10.094-13.266,10.734H6.122v-48H29.442z M18.661,18.626v7.453h9.188c2.625-0.094,3.938-1.172,3.938-3.234
		c0-0.656-0.074-1.223-0.223-1.699s-0.402-0.91-0.762-1.301s-0.871-0.688-1.535-0.891s-1.48-0.313-2.449-0.328
		c-0.344,0-0.797,0-1.359,0s-1.438,0-2.625,0s-2.176-0.008-2.965-0.023s-1.184-0.031-1.184-0.047
		C18.669,18.556,18.661,18.579,18.661,18.626z M18.661,36.181v10.406c1.219,0,3.09,0,5.613,0s4.387,0,5.59,0
		c4.016,0,6.023-1.742,6.023-5.227c0-1.5-0.594-2.719-1.781-3.656s-2.656-1.438-4.406-1.5c-1.109-0.125-2.586-0.188-4.43-0.188
		s-4.039,0.039-6.586,0.117C18.669,36.134,18.661,36.149,18.661,36.181z"/>
	<path class="date_text" data--100-bottom="stroke-dashoffset:225;" data-center-top="stroke-dashoffset:0;" d="M59.935,8.548V46.54h9.961c0.031,0,0.047,0.008,0.047,0.023v9.984h-22.43c0-2.906,0-10.91,0-24.012
		s0.008-21.098,0.023-23.988H59.935z"/>
	<path class="date_text" data--100-bottom="stroke-dashoffset:225;" data-center-top="stroke-dashoffset:0;" d="M104.56,40.493c0.047,1.172-0.008,2.281-0.164,3.328c0,0.219-0.031,0.488-0.094,0.809
		s-0.102,0.543-0.117,0.668c-0.016,0.016-0.047,0.023-0.094,0.023c0,0.266-0.047,0.43-0.141,0.492
		c-1.375,4.656-4.773,7.914-10.195,9.773c-1.875,0.641-4.203,0.961-6.984,0.961s-5.109-0.32-6.984-0.961
		c-5.391-1.813-8.797-5.063-10.219-9.75c0-0.016-0.012-0.027-0.035-0.035s-0.043-0.02-0.059-0.035
		c-0.266-0.922-0.434-2.035-0.504-3.34s-0.02-2.52,0.152-3.645c0-0.203,0.035-0.465,0.105-0.785s0.105-0.543,0.105-0.668
		c0.016-0.016,0.047-0.023,0.094-0.023v-0.211c-0.016-0.016,0-0.031,0.047-0.047c-0.016-0.141,0.016-0.227,0.094-0.258
		c1.406-4.656,4.805-7.906,10.195-9.75c1.875-0.641,4.207-0.961,6.996-0.961s5.113,0.32,6.973,0.961
		c5.375,1.813,8.781,5.055,10.219,9.727c0.094,0.141,0.141,0.313,0.141,0.516c0,0.016,0.031,0.031,0.094,0.047
		C104.388,38.267,104.513,39.321,104.56,40.493z M86.677,36.157c-2.641,0.078-4.297,1.352-4.969,3.82
		c-0.266,1.391-0.156,2.621,0.328,3.691s1.211,1.848,2.18,2.332c1.047,0.531,2.273,0.672,3.68,0.422s2.359-0.781,2.859-1.594
		c0.484-0.406,0.828-1.043,1.031-1.91s0.234-1.754,0.094-2.66s-0.422-1.602-0.844-2.086c-1.031-1.344-2.461-2.023-4.289-2.039
		c-0.016,0-0.023,0.008-0.023,0.023H86.677z"/>
	<path class="date_text" data--100-bottom="stroke-dashoffset:225;" data-center-top="stroke-dashoffset:0;" d="M139.036,38.712h-13.031c-0.297-0.672-0.766-1.219-1.406-1.641s-1.34-0.688-2.098-0.797
		s-1.535-0.078-2.332,0.094s-1.508,0.461-2.133,0.867s-1.113,0.969-1.465,1.688s-0.473,1.523-0.363,2.414
		c0.156,3.297,1.883,5.039,5.18,5.227c2.141-0.031,3.703-0.93,4.688-2.695h12.961c-0.063,0.797-0.211,1.453-0.445,1.969
		c-1.75,5.547-6.023,9.016-12.82,10.406c-3.625,0.484-6.918,0.395-9.879-0.27s-5.441-1.859-7.441-3.586s-3.414-3.902-4.242-6.527
		c-0.234-0.563-0.383-1.227-0.445-1.992c-0.125-0.703-0.188-1.551-0.188-2.543s0.063-1.84,0.188-2.543
		c0.063-0.703,0.164-1.203,0.305-1.5v-0.188c0.031-0.016,0.051-0.066,0.059-0.152s0.035-0.137,0.082-0.152
		c2.047-6.109,6.781-9.625,14.203-10.547c5.266-0.453,9.625,0.23,13.078,2.051s5.82,4.645,7.102,8.473
		c0.094,0.125,0.148,0.297,0.164,0.516C138.864,37.532,138.958,38.009,139.036,38.712z"/>
	<path class="date_text" data--100-bottom="stroke-dashoffset:225;" data-center-top="stroke-dashoffset:0;" d="M150.638,8.548v27.609l9.375-10.008H173.7l-14.016,15.07l14.25,15.328h-13.758l-7.359-7.922
		c-0.406,0.406-1.133,1.188-2.18,2.344v5.578h-12.422v-48H150.638z"/>
	<path class="date_text" data--100-bottom="stroke-dashoffset:225;" data-center-top="stroke-dashoffset:0;" d="M248.419,18.579h-17.227c-0.016,2.281-0.023,8.605-0.023,18.973s0,16.699,0,18.996H218.63V18.603
		c-1.031-0.016-3.902-0.023-8.613-0.023s-7.59,0-8.637,0V8.548h46.992c0,0.641,0.016,2.305,0.047,4.992
		C248.466,15.962,248.466,17.642,248.419,18.579z"/>
	<path class="date_text" data--100-bottom="stroke-dashoffset:225;" data-center-top="stroke-dashoffset:0;" d="M260.958,8.548v18.094c1.844-0.391,3.914-0.547,6.211-0.469s4.258,0.375,5.883,0.891
		c3.125,1,5.797,2.797,8.016,5.391c0.703,0.719,1.27,1.645,1.699,2.777s0.715,2.34,0.855,3.621s0.234,2.68,0.281,4.195
		s0.031,3.02-0.047,4.512s-0.117,3.02-0.117,4.582s0.023,3.031,0.07,4.406h-12.539v-12.75c0-1-0.035-1.855-0.105-2.566
		s-0.211-1.395-0.422-2.051s-0.508-1.188-0.891-1.594s-0.883-0.73-1.5-0.973s-1.363-0.379-2.238-0.41
		c-1.891,0.031-3.328,0.727-4.313,2.086c-0.094,0.141-0.184,0.285-0.27,0.434s-0.156,0.324-0.211,0.527s-0.105,0.375-0.152,0.516
		s-0.082,0.344-0.105,0.609s-0.043,0.461-0.059,0.586s-0.027,0.352-0.035,0.68s-0.012,0.547-0.012,0.656s0,0.363,0,0.762
		s0,0.645,0,0.738v12.75h-12.422V8.595c0.719-0.031,2.781-0.043,6.188-0.035S260.208,8.563,260.958,8.548z"/>
	<path class="date_text" data--100-bottom="stroke-dashoffset:225;" data-center-top="stroke-dashoffset:0;" d="M318.38,41.97h-22.945c-0.031,0.891,0.172,1.672,0.609,2.344s1.004,1.176,1.699,1.512s1.469,0.539,2.32,0.609
		s1.656,0,2.414-0.211s1.422-0.586,1.992-1.125s0.934-1.199,1.09-1.98h12.797c-0.016,0.047-0.027,0.168-0.035,0.363
		s-0.043,0.324-0.105,0.387c-0.047,0.781-0.195,1.438-0.445,1.969c-2.031,6.109-6.758,9.625-14.18,10.547
		c-5.281,0.469-9.645-0.207-13.09-2.027s-5.816-4.652-7.113-8.496c-0.234-0.563-0.383-1.227-0.445-1.992
		c-0.125-0.703-0.188-1.551-0.188-2.543s0.063-1.84,0.188-2.543c0.063-0.703,0.164-1.203,0.305-1.5c0-0.219,0.047-0.383,0.141-0.492
		c2.047-6.109,6.781-9.617,14.203-10.523c5.266-0.469,9.625,0.207,13.078,2.027s5.82,4.645,7.102,8.473
		c0.094,0.125,0.148,0.297,0.164,0.516c0.141,0.297,0.234,0.789,0.281,1.477c0.078,0.25,0.129,0.551,0.152,0.902
		s0.031,0.77,0.023,1.254S318.38,41.751,318.38,41.97z M297.849,36.813c0.344,0,1.266,0,2.766,0s2.406-0.008,2.719-0.023
		c-0.297-0.422-1.211-0.633-2.742-0.633C299.419,36.157,298.505,36.376,297.849,36.813z"/>
	<path class="date_text" data--100-bottom="stroke-dashoffset:225;" data-center-top="stroke-dashoffset:0;" d="M372.122,8.548c1.047,0.031,2.461,0.172,4.242,0.422c9.734,2.109,15.742,8,18.023,17.672
		c0.344,1.766,0.516,3.738,0.516,5.918s-0.172,4.137-0.516,5.871c-2.266,9.656-8.266,15.547-18,17.672
		c-1.344,0.203-2.742,0.352-4.195,0.445h-24.023v-48H372.122z M360.591,18.649v27.867c0.609,0,1.453,0.004,2.531,0.012
		s1.957,0.012,2.637,0.012s1.492-0.012,2.438-0.035s1.758-0.082,2.438-0.176s1.387-0.215,2.121-0.363s1.398-0.352,1.992-0.609
		s1.125-0.566,1.594-0.926c1.906-1.297,3.387-2.895,4.441-4.793s1.598-4.246,1.629-7.043c-0.031-2.813-0.57-5.168-1.617-7.066
		s-2.523-3.496-4.43-4.793c-0.469-0.359-0.992-0.672-1.57-0.938s-1.25-0.477-2.016-0.633s-1.465-0.281-2.098-0.375
		s-1.453-0.152-2.461-0.176s-1.813-0.039-2.414-0.047s-1.488-0.008-2.66,0s-2.016,0.012-2.531,0.012
		C360.599,18.579,360.591,18.603,360.591,18.649z"/>
	<path class="date_text" data--100-bottom="stroke-dashoffset:225;" data-center-top="stroke-dashoffset:0;" d="M426.685,56.548h-12.539v-0.539c-2.828,0.609-5.801,0.711-8.918,0.305s-5.551-1.219-7.301-2.438
		c-0.828-0.563-1.566-1.125-2.215-1.688s-1.277-1.219-1.887-1.969s-1.113-1.543-1.512-2.379s-0.719-1.805-0.961-2.906
		s-0.363-2.285-0.363-3.551c0-1.578,0.168-3.016,0.504-4.313s0.828-2.445,1.477-3.445s1.363-1.879,2.145-2.637
		s1.695-1.48,2.742-2.168c1.125-0.828,2.621-1.48,4.488-1.957s3.797-0.727,5.789-0.75s3.988,0.145,5.988,0.504
		c0.031-0.047,0.043-0.129,0.035-0.246s-0.004-0.191,0.012-0.223c0.75,0,2.84,0,6.27,0s5.512,0.008,6.246,0.023V56.548z
		 M408.685,36.157c-1.625,0.078-2.867,0.566-3.727,1.465s-1.305,2.168-1.336,3.809c0.063,1.641,0.539,2.891,1.43,3.75
		s2.156,1.313,3.797,1.359c3.281-0.156,5-1.906,5.156-5.25c-0.203-3.297-1.953-5.016-5.25-5.156c-0.016,0-0.023,0.008-0.023,0.023
		H408.685z"/>
	<path class="date_text" data--100-bottom="stroke-dashoffset:225;" data-center-top="stroke-dashoffset:0;" d="M443.513,56.548H430.95V36.087h-5.156V26.056h5.156c0-0.609,0-2.285,0-5.027s0.008-4.41,0.023-5.004h12.539
		v10.031c0.297,0,1.156-0.004,2.578-0.012s2.281-0.004,2.578,0.012v10.031h-5.156V56.548z"/>
	<path class="date_text" data--100-bottom="stroke-dashoffset:225;" data-center-top="stroke-dashoffset:0;" d="M483.403,41.97h-22.945c-0.031,0.891,0.172,1.672,0.609,2.344s1.004,1.176,1.699,1.512s1.469,0.539,2.32,0.609
		s1.656,0,2.414-0.211s1.422-0.586,1.992-1.125s0.934-1.199,1.09-1.98h12.797c-0.016,0.047-0.027,0.168-0.035,0.363
		s-0.043,0.324-0.105,0.387c-0.047,0.781-0.195,1.438-0.445,1.969c-2.031,6.109-6.758,9.625-14.18,10.547
		c-5.281,0.469-9.645-0.207-13.09-2.027s-5.816-4.652-7.113-8.496c-0.234-0.563-0.383-1.227-0.445-1.992
		c-0.125-0.703-0.188-1.551-0.188-2.543s0.063-1.84,0.188-2.543c0.063-0.703,0.164-1.203,0.305-1.5c0-0.219,0.047-0.383,0.141-0.492
		c2.047-6.109,6.781-9.617,14.203-10.523c5.266-0.469,9.625,0.207,13.078,2.027s5.82,4.645,7.102,8.473
		c0.094,0.125,0.148,0.297,0.164,0.516c0.141,0.297,0.234,0.789,0.281,1.477c0.078,0.25,0.129,0.551,0.152,0.902
		s0.031,0.77,0.023,1.254S483.403,41.751,483.403,41.97z M462.872,36.813c0.344,0,1.266,0,2.766,0s2.406-0.008,2.719-0.023
		c-0.297-0.422-1.211-0.633-2.742-0.633C464.442,36.157,463.528,36.376,462.872,36.813z"/>
	<path class="date_text" data--100-bottom="stroke-dashoffset:225;" data-center-top="stroke-dashoffset:0;" d="M506.091,56.548h-11.438c-7.656-0.484-11.734-4.555-12.234-12.211v-0.328h12.539
		c0,0.375,0.055,0.711,0.164,1.008s0.258,0.535,0.445,0.715s0.438,0.328,0.75,0.445s0.613,0.203,0.902,0.258
		s0.656,0.094,1.102,0.117s0.828,0.031,1.148,0.023s0.727-0.02,1.219-0.035s0.879-0.023,1.16-0.023c0.953,0,1.688-0.086,2.203-0.258
		s0.906-0.523,1.172-1.055c0.281-0.563,0.348-1.199,0.199-1.91s-0.465-1.207-0.949-1.488c-0.469-0.172-1.066-0.301-1.793-0.387
		s-1.367-0.129-1.922-0.129s-1.324,0.012-2.309,0.035s-1.664,0.035-2.039,0.035c-1.641,0-3.035-0.082-4.184-0.246
		s-2.168-0.473-3.059-0.926c-1.984-1.031-3.555-2.375-4.711-4.031s-1.836-3.734-2.039-6.234v-2.391
		c0.156-2.172,0.695-4.02,1.617-5.543s2.172-2.84,3.75-3.949c1-0.766,2.242-1.277,3.727-1.535s3.328-0.387,5.531-0.387
		c0.578,0,1.734-0.023,3.469-0.07s3.18-0.051,4.336-0.012s2.227,0.137,3.211,0.293c3.078,0.5,5.48,1.824,7.207,3.973
		s2.629,4.934,2.707,8.355h-12.516c0-0.453-0.07-0.84-0.211-1.16s-0.367-0.57-0.68-0.75s-0.633-0.324-0.961-0.434
		s-0.754-0.176-1.277-0.199s-0.973-0.035-1.348-0.035s-0.863,0.012-1.465,0.035s-1.059,0.035-1.371,0.035
		c-0.906,0-1.605,0.141-2.098,0.422s-0.824,0.75-0.996,1.406c-0.188,0.719-0.137,1.379,0.152,1.98s0.738,1.004,1.348,1.207
		c0.969,0.063,2.223,0.098,3.762,0.105s2.875,0.027,4.008,0.059s2.32,0.109,3.563,0.234s2.34,0.379,3.293,0.762
		s1.727,0.895,2.32,1.535c1.219,0.797,2.227,1.969,3.023,3.516s1.281,3.258,1.453,5.133s-0.008,3.813-0.539,5.813
		C515.56,53.493,511.778,56.235,506.091,56.548z"/>
</g>
</svg>