<?xml version="1.0" encoding="UTF-8" standalone="no"?>
<svg
   xmlns:dc="http://purl.org/dc/elements/1.1/"
   xmlns:cc="http://creativecommons.org/ns#"
   xmlns:rdf="http://www.w3.org/1999/02/22-rdf-syntax-ns#"
   xmlns:svg="http://www.w3.org/2000/svg"
   xmlns="http://www.w3.org/2000/svg"
   xmlns:sodipodi="http://sodipodi.sourceforge.net/DTD/sodipodi-0.dtd"
   xmlns:inkscape="http://www.inkscape.org/namespaces/inkscape"
   id="logoOutline"
   version="1.1"
   width="100%"
   height="100%"
   viewBox="0 0 400 222.45430809399477"
   sodipodi:docname="logo-svg.svg"
   inkscape:version="0.92.3 (2405546, 2018-03-11)">
  <metadata
     id="metadata64">
    <rdf:RDF>
      <cc:Work
         rdf:about="">
        <dc:format>image/svg+xml</dc:format>
        <dc:type
           rdf:resource="http://purl.org/dc/dcmitype/StillImage" />
        <dc:title></dc:title>
      </cc:Work>
    </rdf:RDF>
  </metadata>
  <defs
     id="defs62" />
  <sodipodi:namedview
     pagecolor="#ffffff"
     bordercolor="#666666"
     borderopacity="1"
     objecttolerance="10"
     gridtolerance="10"
     guidetolerance="10"
     inkscape:pageopacity="0"
     inkscape:pageshadow="2"
     inkscape:window-width="1366"
     inkscape:window-height="705"
     id="namedview60"
     showgrid="false"
     inkscape:pagecheckerboard="true"
     inkscape:zoom="2.4094835"
     inkscape:cx="200"
     inkscape:cy="111.22716"
     inkscape:window-x="-8"
     inkscape:window-y="-8"
     inkscape:window-maximized="1"
     inkscape:current-layer="svg" />
  <path
     style="fill:#555555;fill-rule:evenodd;stroke:none"
     inkscape:connector-curvature="0"
     d=""
     id="path0" />
  <path
     style="fill:#999999;fill-rule:evenodd;stroke:none"
     inkscape:connector-curvature="0"
     d=""
     id="path1" />
  <path
     style="fill:#c6c6c6;fill-rule:evenodd;stroke:none"
     inkscape:connector-curvature="0"
     d=""
     id="path2" />
  <path
     style="fill:none;fill-rule:evenodd;stroke:#ffffff;stroke-opacity:1"
     inkscape:connector-curvature="0"
     d="m 203.332,1.272 c -0.003,2.744 -0.189,11.449 -0.259,12.145 -0.047,0.458 -0.157,5.595 -0.245,11.416 -0.088,5.821 -0.193,10.921 -0.234,11.334 -0.04,0.412 -0.118,5.812 -0.171,12 -0.054,6.187 -0.168,12.787 -0.253,14.666 -0.17,3.735 -0.445,17.332 -0.585,29 -0.049,4.079 -0.129,8.917 -0.177,10.75 -0.362,13.746 -0.442,17.363 -0.502,22.584 -0.037,3.254 -0.143,8.166 -0.235,10.916 -0.092,2.75 -0.207,9.65 -0.256,15.334 -0.095,11.165 -0.392,27.115 -0.506,27.23 -0.115,0.114 -1.758,-1.064 -2.659,-1.907 -0.458,-0.428 -1.021,-0.901 -1.25,-1.051 -0.229,-0.149 -0.642,-0.472 -0.917,-0.717 -0.275,-0.246 -0.687,-0.603 -0.916,-0.794 -3.012,-2.51 -9.059,-8.375 -11.698,-11.345 -2.772,-3.12 -3.505,-3.973 -4.298,-5 -0.318,-0.412 -0.62,-0.787 -0.671,-0.833 -0.05,-0.046 -0.5,-0.608 -1,-1.25 -0.5,-0.642 -0.95,-1.204 -0.999,-1.25 -0.05,-0.046 -0.615,-0.795 -1.254,-1.666 -0.64,-0.87 -1.256,-1.695 -1.368,-1.833 -0.242,-0.298 -1.662,-2.239 -2.71,-3.705 -0.411,-0.575 -0.81,-1.121 -0.888,-1.213 -0.166,-0.197 -1.782,-2.572 -3.574,-5.25 -0.705,-1.054 -1.34,-1.941 -1.411,-1.972 -0.071,-0.03 -0.129,-0.155 -0.129,-0.278 0,-0.122 -0.059,-0.247 -0.131,-0.277 -0.072,-0.031 -0.458,-0.581 -0.858,-1.223 -0.401,-0.641 -0.775,-1.204 -0.831,-1.25 -0.157,-0.128 -1.919,-2.967 -2.498,-4.025 -0.567,-1.036 -0.628,-1.308 -0.294,-1.308 0.506,0 2.586,-0.917 4.528,-1.997 0.55,-0.306 1.15,-0.638 1.334,-0.738 0.183,-0.1 0.37,-0.223 0.416,-0.273 0.046,-0.051 0.496,-0.341 1,-0.645 0.809,-0.487 3.825,-2.58 4.5,-3.122 0.138,-0.111 0.723,-0.575 1.3,-1.031 2.802,-2.215 6.59,-5.963 9.967,-9.861 0.358,-0.412 0.689,-0.787 0.736,-0.833 0.048,-0.046 0.746,-0.908 1.553,-1.917 0.806,-1.008 1.568,-1.958 1.692,-2.111 0.125,-0.154 0.307,-0.429 0.405,-0.612 0.098,-0.184 0.298,-0.454 0.445,-0.601 0.147,-0.146 0.82,-1.108 1.496,-2.138 0.676,-1.029 1.288,-1.95 1.359,-2.047 0.244,-0.329 0.549,-0.823 0.663,-1.074 0.062,-0.138 0.448,-0.775 0.858,-1.417 0.662,-1.037 1.342,-2.252 2.284,-4.083 0.581,-1.13 0.714,-1.431 1.319,-3 0.681,-1.764 1.026,-3.014 1.676,-6.083 0.155,-0.734 0.352,-1.634 0.436,-2 0.085,-0.367 0.265,-1.305 0.402,-2.084 0.136,-0.779 0.32,-1.791 0.409,-2.25 0.951,-4.932 1.247,-12.793 0.665,-17.666 -0.087,-0.734 -0.244,-2.159 -0.348,-3.167 -0.266,-2.578 -0.739,-5.866 -1.14,-7.917 -0.081,-0.412 -0.228,-1.237 -0.329,-1.833 -0.1,-0.596 -0.254,-1.383 -0.342,-1.75 -0.089,-0.367 -0.281,-1.229 -0.428,-1.917 -0.405,-1.894 -0.596,-2.708 -0.743,-3.166 -0.074,-0.229 -0.261,-0.867 -0.416,-1.417 -1.219,-4.318 -3.191,-8.763 -5.574,-12.565 -0.465,-0.741 -0.845,-1.385 -0.845,-1.431 0,-0.279 -3.501,-5.049 -4.651,-6.337 -5.146,-5.764 -9.795,-8.871 -15.496,-10.357 -2.872,-0.749 -9.618,-0.722 -13.353,0.053 -0.687,0.143 -1.587,0.324 -2,0.402 -1.271,0.241 -3.515,0.946 -5.75,1.807 -0.8,0.308 -3.353,1.598 -3.553,1.795 -0.121,0.119 -0.328,0.216 -0.459,0.216 -0.131,0 -0.238,0.063 -0.238,0.139 0,0.076 -0.206,0.243 -0.458,0.371 -0.252,0.127 -0.688,0.421 -0.968,0.653 -0.281,0.231 -0.839,0.683 -1.24,1.004 -1.422,1.137 -3.146,2.942 -3.273,3.429 -0.211,0.804 -0.14,19.59 0.124,33.154 0.068,3.484 0.242,13.496 0.387,22.25 0.145,8.754 0.338,18.692 0.429,22.084 0.146,5.492 0.084,44.694 -0.076,47.333 -0.033,0.55 -0.081,4.412 -0.107,8.583 -0.083,13.661 -0.336,21.082 -1.067,31.334 -0.049,0.687 -0.166,2.712 -0.259,4.5 -0.093,1.787 -0.255,4.525 -0.359,6.083 -0.105,1.558 -0.196,3.757 -0.203,4.885 -0.015,2.324 -0.136,2.114 1.654,2.873 0.458,0.195 1.133,0.488 1.5,0.651 0.366,0.163 1.079,0.465 1.583,0.671 0.504,0.206 1.231,0.516 1.616,0.689 0.384,0.173 0.738,0.314 0.787,0.314 0.048,0 0.483,0.179 0.967,0.397 0.484,0.218 2.08,0.865 3.547,1.439 1.466,0.573 2.984,1.182 3.373,1.353 0.388,0.171 0.752,0.311 0.808,0.311 0.056,0 0.375,0.12 0.71,0.267 0.335,0.147 0.759,0.33 0.942,0.407 0.962,0.404 2.944,1.254 3.75,1.609 3.517,1.547 3.333,1.63 3.336,-1.491 10e-4,-1.398 -0.074,-4.079 -0.168,-5.958 -0.094,-1.88 -0.251,-5.442 -0.348,-7.917 -0.097,-2.475 -0.243,-5.925 -0.324,-7.667 -0.081,-1.741 -0.225,-5.641 -0.32,-8.666 -0.095,-3.025 -0.257,-6.627 -0.361,-8.004 -0.264,-3.517 -0.332,-3.439 1.439,-1.657 0.823,0.829 1.904,1.992 2.402,2.584 1.44,1.712 11.918,12.094 17.99,17.827 1.311,1.237 2.774,2.625 3.251,3.083 1.23,1.182 2.352,2.194 3.603,3.25 0.596,0.503 1.121,0.959 1.167,1.013 0.046,0.054 0.608,0.54 1.25,1.081 0.641,0.541 1.316,1.111 1.5,1.268 0.183,0.156 0.492,0.42 0.686,0.586 0.194,0.166 0.671,0.564 1.059,0.885 0.388,0.321 0.867,0.734 1.064,0.917 0.197,0.183 0.771,0.67 1.275,1.083 0.503,0.412 0.996,0.824 1.095,0.916 0.098,0.092 0.425,0.355 0.725,0.584 0.301,0.23 0.862,0.679 1.247,1 0.385,0.321 1.206,0.959 1.824,1.417 0.618,0.458 1.477,1.103 1.908,1.433 1.659,1.271 5.82,4.091 6.742,4.569 0.343,0.178 0.625,0.382 0.625,0.453 0,0.07 0.08,0.128 0.178,0.128 0.098,0 0.737,0.34 1.42,0.754 3.269,1.985 5.33,2.243 11.318,1.42 4.304,-0.592 5.307,-0.748 8.167,-1.266 5.073,-0.921 9.881,-2.057 14.083,-3.328 1.146,-0.347 2.399,-0.715 2.784,-0.819 0.385,-0.104 0.754,-0.243 0.819,-0.308 0.066,-0.066 0.29,-0.119 0.499,-0.119 0.208,0 0.42,-0.067 0.47,-0.148 0.05,-0.081 0.364,-0.199 0.697,-0.262 0.333,-0.062 0.728,-0.178 0.877,-0.257 0.149,-0.078 1.021,-0.42 1.938,-0.759 0.916,-0.339 1.929,-0.727 2.25,-0.862 0.32,-0.136 0.733,-0.31 0.916,-0.387 1.19,-0.501 2.186,-0.95 3.5,-1.575 0.825,-0.392 2.325,-1.102 3.334,-1.578 3.304,-1.558 4.77,-2.331 6.05,-3.191 0.394,-0.265 0.781,-0.481 0.861,-0.481 0.079,0 0.169,-0.059 0.2,-0.131 0.03,-0.072 0.58,-0.458 1.222,-0.858 0.642,-0.401 1.204,-0.774 1.25,-0.829 0.046,-0.055 0.496,-0.38 1,-0.722 1.501,-1.019 1.712,-1.171 2.595,-1.873 0.464,-0.369 1.054,-0.821 1.311,-1.004 3.081,-2.2 6.152,-5.233 8.438,-8.333 0.406,-0.55 0.779,-1.038 0.83,-1.084 0.051,-0.046 0.351,-0.458 0.667,-0.916 0.508,-0.739 1.056,-1.488 1.467,-2.005 0.074,-0.094 0.278,-0.394 0.452,-0.666 0.173,-0.273 0.362,-0.533 0.42,-0.579 0.057,-0.046 0.314,-0.419 0.571,-0.83 0.257,-0.41 0.569,-0.847 0.692,-0.97 0.123,-0.123 0.224,-0.331 0.224,-0.462 0,-0.131 0.057,-0.238 0.127,-0.238 0.07,0 0.201,-0.144 0.291,-0.321 0.091,-0.176 0.475,-0.87 0.854,-1.541 0.38,-0.672 0.973,-1.747 1.32,-2.388 0.346,-0.642 0.84,-1.542 1.098,-2 0.465,-0.828 1.197,-2.299 1.7,-3.417 0.439,-0.977 1.789,-5.177 2.438,-7.583 0.172,-0.642 0.436,-1.617 0.585,-2.167 0.255,-0.942 0.463,-1.955 1.01,-4.917 0.838,-4.532 0.87,-14.165 0.061,-18.5 -0.094,-0.504 -0.239,-1.291 -0.323,-1.75 -0.57,-3.108 -1.867,-8.036 -2.5,-9.5 -0.08,-0.183 -0.263,-0.708 -0.407,-1.166 -0.822,-2.607 -3.777,-7.878 -5.754,-10.262 -1.158,-1.396 -4.112,-4.29 -5.417,-5.307 -0.733,-0.571 -1.446,-1.128 -1.583,-1.238 -0.138,-0.109 -0.602,-0.436 -1.032,-0.725 -1.112,-0.75 -1.872,-1.287 -1.968,-1.394 -0.046,-0.05 -0.459,-0.35 -0.917,-0.666 -0.458,-0.316 -0.871,-0.62 -0.917,-0.675 -0.046,-0.055 -0.383,-0.294 -0.75,-0.532 -0.366,-0.237 -1.341,-0.897 -2.166,-1.466 -2.12,-1.461 -10.175,-6.485 -10.398,-6.485 -0.102,0 -0.186,-0.075 -0.186,-0.167 0,-0.092 -0.112,-0.167 -0.25,-0.167 -0.137,0 -0.25,-0.073 -0.25,-0.163 0,-0.09 -0.187,-0.211 -0.416,-0.268 -0.229,-0.058 -0.417,-0.16 -0.417,-0.227 0,-0.067 -0.206,-0.215 -0.457,-0.33 -0.843,-0.384 -10.234,-6.338 -10.543,-6.684 -0.046,-0.052 -0.908,-0.69 -1.916,-1.419 -1.666,-1.205 -3.231,-2.601 -3.939,-3.515 -3.165,-4.085 -4.441,-6.634 -5.119,-10.227 -0.095,-0.504 -0.26,-1.359 -0.367,-1.899 -0.281,-1.425 -0.286,-6.633 -0.007,-7.768 0.339,-1.38 0.999,-3.509 1.292,-4.166 1.117,-2.51 2.398,-4.603 3.875,-6.334 1.011,-1.184 1.238,-1.409 2.337,-2.31 0.407,-0.333 0.969,-0.821 1.25,-1.083 1.649,-1.542 5.204,-3.86 7.677,-5.007 0.734,-0.341 1.449,-0.68 1.589,-0.755 0.141,-0.074 0.513,-0.192 0.828,-0.261 0.315,-0.069 0.687,-0.184 0.828,-0.255 2.066,-1.045 7.483,-1.071 10.839,-0.051 1.433,0.435 5.069,2.125 5.5,2.556 0.045,0.045 0.87,0.608 1.833,1.25 0.962,0.641 1.787,1.212 1.833,1.267 0.046,0.056 0.721,0.498 1.5,0.984 0.779,0.486 1.642,1.054 1.918,1.263 0.276,0.209 0.688,0.48 0.917,0.602 0.228,0.123 0.978,0.591 1.665,1.04 0.688,0.45 2.15,1.401 3.25,2.115 1.1,0.713 2.225,1.455 2.5,1.648 1.238,0.869 3.779,2.497 3.899,2.497 0.073,0 0.269,0.15 0.435,0.334 0.166,0.183 0.358,0.333 0.426,0.333 0.069,0 0.849,0.487 1.734,1.083 0.885,0.596 1.673,1.084 1.752,1.084 0.079,0 0.168,0.056 0.199,0.125 0.084,0.189 7.234,3.708 7.534,3.708 0.052,0 0.496,0.183 0.986,0.408 0.49,0.224 1.336,0.567 1.88,0.761 0.544,0.195 1.139,0.419 1.322,0.497 0.541,0.231 3.108,0.983 3.918,1.148 0.412,0.083 1.349,0.272 2.082,0.419 1.96,0.393 4.679,0.36 5.375,-0.065 0.662,-0.403 0.687,-0.63 0.083,-0.763 -1.038,-0.229 -2.115,-0.635 -3.172,-1.195 -0.616,-0.327 -1.345,-0.714 -1.62,-0.86 -0.686,-0.365 -4.334,-2.792 -4.61,-3.067 -0.122,-0.122 -0.448,-0.366 -0.723,-0.543 -1.043,-0.669 -4.98,-3.917 -5.928,-4.889 -0.143,-0.147 -0.772,-0.718 -1.397,-1.268 -0.625,-0.55 -1.75,-1.6 -2.501,-2.333 -1.538,-1.502 -5.7,-5.419 -7.09,-6.673 -0.505,-0.455 -1.146,-1.052 -1.426,-1.327 -0.729,-0.715 -2.797,-2.664 -5.484,-5.167 -3.465,-3.226 -4.428,-4.129 -4.82,-4.519 -0.194,-0.194 -1.066,-0.867 -1.937,-1.497 -0.871,-0.629 -1.658,-1.206 -1.75,-1.281 -0.631,-0.516 -3.161,-2.275 -3.651,-2.539 -0.33,-0.178 -0.599,-0.381 -0.599,-0.452 0,-0.07 -0.08,-0.128 -0.178,-0.128 -0.098,0 -0.423,-0.188 -0.724,-0.417 -0.3,-0.229 -0.633,-0.417 -0.739,-0.417 -0.106,0 -0.192,-0.075 -0.192,-0.166 0,-0.092 -0.113,-0.167 -0.25,-0.167 -0.138,0 -0.25,-0.067 -0.25,-0.149 0,-0.081 -0.188,-0.195 -0.417,-0.253 -0.229,-0.057 -0.417,-0.178 -0.417,-0.268 0,-0.09 -0.077,-0.163 -0.17,-0.163 -0.094,0 -0.646,-0.3 -1.227,-0.667 -0.58,-0.367 -1.111,-0.667 -1.178,-0.667 -0.068,0 -0.322,-0.141 -0.566,-0.314 -0.801,-0.568 -5.26,-2.791 -6.025,-3.004 -1.404,-0.39 -2.85,-0.62 -5.89,-0.937 -1.992,-0.208 -6.674,0.452 -10.777,1.519 -3.627,0.944 -4.105,1.106 -6.5,2.203 -4.175,1.911 -8.633,5.629 -11.655,9.72 -0.364,0.493 -0.722,0.972 -0.795,1.063 -1.618,2.03 -4.05,6.304 -4.05,7.118 0,0.128 -0.065,0.304 -0.145,0.391 -0.079,0.087 -0.275,0.533 -0.434,0.991 -0.159,0.459 -0.355,0.984 -0.435,1.167 -1.085,2.494 -2.105,6.639 -2.5,10.167 -0.226,2.014 -0.104,15.782 0.15,16.916 0.092,0.413 0.292,1.5 0.443,2.417 0.311,1.887 0.494,2.701 0.955,4.25 0.177,0.596 0.432,1.458 0.567,1.917 0.135,0.458 0.308,0.983 0.386,1.166 0.077,0.184 0.347,0.896 0.599,1.584 0.919,2.506 4.63,9.592 5.237,10 0.068,0.045 0.363,0.416 0.656,0.824 1.182,1.646 5.996,6.691 8.44,8.845 0.634,0.559 2.935,2.559 3.998,3.473 0.275,0.237 0.987,0.876 1.583,1.419 0.596,0.544 1.461,1.334 1.924,1.755 0.462,0.422 1.397,1.254 2.078,1.85 1.274,1.115 2.344,2.07 3.661,3.27 0.415,0.377 1.048,0.94 1.407,1.25 0.359,0.31 0.851,0.751 1.093,0.98 0.242,0.23 0.833,0.754 1.315,1.167 3.079,2.639 8.169,7.71 10.045,10.007 0.334,0.409 0.746,0.903 0.917,1.098 1.545,1.766 2.895,3.735 3.641,5.312 3.294,6.956 4.332,14.585 2.811,20.666 -0.137,0.55 -0.35,1.413 -0.472,1.917 -0.514,2.113 -1.594,4.847 -2.963,7.5 -1.696,3.288 -1.673,3.243 -1.777,3.333 -0.053,0.046 -0.241,0.346 -0.417,0.667 -0.177,0.321 -0.364,0.621 -0.417,0.667 -0.053,0.046 -0.471,0.643 -0.929,1.328 -0.699,1.044 -3.385,4.482 -3.989,5.105 -0.098,0.101 -0.478,0.55 -0.845,0.998 -1.711,2.091 -3.719,4.151 -5.586,5.734 -0.594,0.504 -1.118,0.957 -1.164,1.008 -0.092,0.102 -1.963,1.538 -2.748,2.109 -0.276,0.201 -1.289,0.894 -2.252,1.542 -0.962,0.647 -1.829,1.232 -1.925,1.301 -0.377,0.267 -0.836,0.549 -1.075,0.659 -0.137,0.064 -0.796,0.438 -1.463,0.832 -0.667,0.395 -1.247,0.717 -1.288,0.717 -0.042,0 -0.696,0.293 -1.454,0.652 -1.612,0.763 -4.176,1.774 -5.079,2.004 -0.348,0.088 -1.457,0.377 -2.466,0.643 -3.031,0.797 -3.416,0.87 -5.583,1.054 -5.492,0.466 -7.669,0.293 -9.956,-0.791 -2.633,-1.249 -2.623,-1.193 -2.487,-13.477 0.209,-18.919 0.554,-36.964 0.779,-40.752 0.084,-1.421 0.194,-10.421 0.243,-20 0.049,-9.579 0.129,-19.404 0.177,-21.833 0.047,-2.429 0.123,-8.842 0.169,-14.25 0.045,-5.408 0.154,-12.871 0.243,-16.583 0.088,-3.713 0.163,-8.925 0.165,-11.584 0.003,-2.658 0.075,-6.858 0.16,-9.333 0.086,-2.475 0.198,-7.875 0.249,-12 0.085,-6.785 0.148,-9.626 0.342,-15.362 0.035,-1.024 0.117,-5.424 0.182,-9.778 l 0.119,-7.915 -0.734,-0.096 c -0.404,-0.052 -1.522,-0.172 -2.484,-0.267 -0.963,-0.095 -2.35,-0.249 -3.084,-0.343 -1.349,-0.173 -2.256,-0.268 -6.916,-0.724 -2.867,-0.28 -4.889,-0.539 -5.459,-0.699 -0.352,-0.098 -0.375,-0.055 -0.376,0.706 M 148.25,22.299 c 2.444,0.478 2.954,0.602 4.313,1.048 2.705,0.888 7.508,3.295 8.27,4.145 0.046,0.051 0.496,0.4 1,0.775 2.439,1.815 5.661,5.097 7.385,7.521 0.376,0.529 0.743,0.987 0.816,1.018 0.073,0.03 0.133,0.156 0.133,0.279 0,0.124 0.097,0.324 0.215,0.445 0.9,0.919 2.586,4.698 3.371,7.553 0.151,0.55 0.343,1.131 0.428,1.29 0.084,0.159 0.152,0.397 0.152,0.53 0,0.132 0.184,0.827 0.408,1.544 0.484,1.546 1.007,3.681 1.347,5.493 0.135,0.72 0.32,1.647 0.412,2.06 1.719,7.724 1.859,13.839 0.506,22 -0.362,2.184 -1.313,5.428 -2.197,7.5 -0.784,1.836 -3.649,7.392 -4.54,8.804 -0.24,0.379 -0.436,0.76 -0.436,0.845 0,0.086 -0.064,0.182 -0.142,0.212 -0.079,0.031 -0.536,0.684 -1.015,1.453 -1.133,1.813 -3.8,5.507 -4.348,6.019 -0.049,0.046 -0.262,0.309 -0.474,0.584 -1.874,2.438 -5.791,6.279 -8.473,8.309 -1.449,1.097 -4.493,3.107 -4.705,3.107 -0.097,0 -0.176,0.059 -0.176,0.13 0,0.072 -0.206,0.219 -0.458,0.326 -0.252,0.108 -0.909,0.461 -1.459,0.785 -1.108,0.653 -4.666,2.426 -4.87,2.427 -0.071,0 -0.499,0.188 -0.95,0.416 -0.451,0.229 -0.911,0.416 -1.022,0.416 -0.153,0 -0.227,-1.287 -0.303,-5.208 -0.216,-11.235 -0.307,-15.391 -0.439,-19.958 -0.309,-10.69 -0.477,-17.762 -0.569,-24 -0.164,-11.093 -0.269,-16.366 -0.35,-17.546 -0.162,-2.372 -0.513,-24.123 -0.452,-28.093 l 0.039,-2.555 3.875,0.082 c 2.131,0.045 4.25,0.155 4.708,0.244 m -18.62,2.67 c -1.991,1.254 -3.753,2.376 -3.916,2.491 -0.519,0.367 -1.881,1.245 -4.856,3.127 -1.591,1.006 -3.065,1.942 -3.277,2.08 -0.212,0.137 -0.748,0.468 -1.191,0.735 -0.444,0.267 -0.844,0.53 -0.89,0.584 -0.046,0.053 -0.233,0.188 -0.417,0.299 -0.183,0.112 -0.82,0.511 -1.416,0.888 l -1.084,0.686 0.008,8.612 c 0.011,12.215 0.111,21.757 0.253,24.279 0.068,1.192 0.166,3.854 0.218,5.917 0.053,2.062 0.191,5.587 0.308,7.833 0.139,2.674 0.213,9.003 0.212,18.333 -10e-4,13.303 -0.109,18.495 -0.581,27.917 -0.092,1.833 -0.28,5.808 -0.418,8.833 -0.139,3.025 -0.32,6.438 -0.403,7.584 -0.083,1.146 -0.199,3.62 -0.258,5.5 -0.058,1.879 -0.186,4.841 -0.284,6.583 -0.352,6.274 -0.438,8.075 -0.618,12.833 -0.101,2.659 -0.259,5.895 -0.352,7.191 -0.092,1.297 -0.168,3.365 -0.168,4.596 0,1.232 -0.071,3.021 -0.157,3.976 -0.087,0.956 -0.192,2.802 -0.234,4.103 l -0.077,2.365 0.526,0.11 c 0.289,0.061 0.986,0.328 1.549,0.593 0.563,0.266 1.066,0.483 1.116,0.483 0.051,0 0.678,0.273 1.393,0.607 1.274,0.595 2.048,0.942 3.217,1.443 2.028,0.869 3.229,1.398 4.29,1.89 0.663,0.308 1.242,0.56 1.287,0.56 0.044,0 0.514,0.193 1.043,0.429 0.53,0.236 1.189,0.53 1.464,0.652 0.275,0.123 1.008,0.455 1.629,0.738 0.621,0.283 1.183,0.517 1.25,0.52 0.066,0.003 0.421,0.148 0.787,0.321 0.969,0.459 0.905,0.842 1.429,-8.577 0.183,-3.3 0.403,-6.862 0.488,-7.916 0.241,-2.996 0.71,-16.686 0.839,-24.5 0.126,-7.64 0.057,-104.772 -0.077,-107.667 -0.196,-4.255 -0.272,-23.445 -0.096,-24.333 0.277,-1.401 0.674,-2.668 1.108,-3.536 0.987,-1.976 0.724,-1.915 -3.644,0.838"
     id="path3" />
  <path
     style="fill:none;fill-rule:evenodd;stroke:#ffffff;stroke-opacity:1"
     inkscape:connector-curvature="0"
     d="m 374.167,110.761 c -2.063,0.121 -4.313,0.302 -5,0.403 -0.688,0.101 -2.038,0.289 -3,0.418 -4.079,0.546 -5.869,0.952 -7.75,1.759 -0.184,0.078 -1.009,0.416 -1.834,0.75 -1.37,0.555 -2.459,1.016 -3.333,1.411 -0.183,0.084 -1.121,0.498 -2.083,0.92 -3.116,1.37 -8.525,4.169 -9.859,5.102 -0.244,0.17 -0.5,0.309 -0.57,0.309 -0.236,0 -7.76,4.844 -8.208,5.284 -0.121,0.119 -0.276,0.216 -0.344,0.216 -0.068,0 -0.269,0.132 -0.446,0.293 -0.178,0.161 -0.535,0.429 -0.793,0.595 -0.258,0.165 -0.595,0.404 -0.75,0.531 -0.154,0.126 -1.105,0.887 -2.114,1.69 -1.008,0.803 -1.915,1.539 -2.016,1.634 -0.101,0.096 -1.069,0.999 -2.151,2.007 -1.082,1.009 -2.237,2.108 -2.567,2.443 -1.476,1.5 -3.461,3.597 -3.766,3.976 -0.183,0.228 -0.746,0.905 -1.25,1.505 -0.504,0.6 -1.085,1.313 -1.292,1.584 -0.206,0.271 -0.844,1.107 -1.416,1.859 -2.602,3.414 -4.261,6.111 -5.465,8.883 -0.378,0.871 -0.869,1.979 -1.09,2.463 -0.222,0.484 -0.403,0.954 -0.403,1.044 0,0.091 -0.067,0.295 -0.148,0.454 -1.201,2.362 -3.51,9.424 -4.263,13.039 -1.235,5.929 -3.254,10.103 -6.468,13.369 l -1.523,1.548 0.742,0.057 c 1.837,0.141 4.999,-0.684 7.826,-2.042 2.649,-1.272 3.358,-1.789 9.917,-7.228 1.634,-1.355 14.165,-13.861 14.61,-14.58 0.067,-0.108 0.635,-0.723 1.263,-1.368 0.628,-0.645 1.401,-1.51 1.718,-1.922 0.549,-0.714 1.045,-1.324 1.409,-1.731 0.092,-0.103 0.467,-0.561 0.833,-1.02 0.367,-0.458 0.818,-0.983 1.004,-1.166 0.292,-0.289 1.215,-1.329 3.163,-3.565 1.915,-2.198 2.371,-2.664 5.38,-5.497 2.648,-2.495 2.815,-2.645 3.87,-3.498 0.412,-0.334 0.787,-0.647 0.833,-0.697 0.175,-0.19 4.768,-3.455 5.112,-3.635 0.199,-0.104 0.462,-0.286 0.584,-0.404 0.121,-0.118 0.741,-0.54 1.376,-0.939 0.636,-0.399 1.236,-0.791 1.334,-0.873 0.4,-0.331 3.372,-2.207 6.428,-4.058 5.016,-3.037 7.464,-4.441 10.833,-6.211 0.779,-0.41 1.948,-1.031 2.597,-1.381 1.335,-0.719 5.151,-2.224 8.653,-3.412 0.367,-0.124 1.417,-0.499 2.333,-0.832 0.917,-0.334 1.967,-0.707 2.334,-0.829 1.155,-0.385 6.262,-2.195 8,-2.835 0.916,-0.337 2.098,-0.763 2.625,-0.947 1.074,-0.375 1.113,-0.436 0.583,-0.925 -1.217,-1.123 -3.21,-1.755 -9.375,-2.97 -3.815,-0.753 -4.575,-0.831 -10.917,-1.132 -0.779,-0.037 -3.104,0.031 -5.166,0.151 m -316,38.992 c -0.138,0.038 -1.15,0.147 -2.25,0.242 -4.159,0.361 -8.255,1.022 -10.334,1.668 -0.55,0.17 -1.281,0.362 -1.625,0.426 -0.972,0.179 -0.876,0.231 3.501,1.901 2.269,0.865 4.237,1.63 4.374,1.698 0.138,0.069 1.113,0.523 2.167,1.009 2.629,1.212 6.959,3.666 8.25,4.677 0.092,0.071 0.467,0.353 0.833,0.626 0.367,0.273 0.742,0.553 0.834,0.623 0.092,0.07 0.467,0.348 0.833,0.618 0.367,0.27 0.704,0.533 0.75,0.584 0.046,0.05 0.458,0.391 0.917,0.758 1.28,1.023 5.888,5.691 7.341,7.437 0.713,0.858 1.397,1.659 1.52,1.781 0.122,0.123 0.223,0.274 0.223,0.336 10e-4,0.062 0.245,0.377 0.542,0.7 0.297,0.323 0.875,0.998 1.285,1.5 2.017,2.474 5.206,5.635 8.422,8.35 0.367,0.309 0.704,0.6 0.75,0.646 0.046,0.047 0.533,0.422 1.083,0.834 0.55,0.412 1.038,0.792 1.084,0.845 1.739,2.015 9.711,5.297 13.589,5.595 1.638,0.126 1.635,0.13 0.888,-1.235 -0.825,-1.507 -1.811,-3.562 -1.811,-3.775 0,-0.048 -0.187,-0.497 -0.416,-0.998 -0.229,-0.501 -0.417,-0.992 -0.417,-1.091 0,-0.098 -0.074,-0.309 -0.165,-0.469 -0.28,-0.489 -1.269,-3.69 -1.739,-5.622 -0.244,-1.009 -0.512,-2.096 -0.594,-2.417 -0.157,-0.618 -0.731,-3.469 -1.09,-5.417 -0.287,-1.557 -0.824,-3.064 -1.535,-4.309 -0.322,-0.563 -0.774,-1.362 -1.006,-1.774 -3.898,-6.938 -11.134,-12.875 -17.538,-14.387 -1.815,-0.429 -2.684,-0.553 -7.916,-1.132 -1.406,-0.156 -10.322,-0.344 -10.75,-0.228"
     id="path4" />
  <path
     style="fill:#990033;fill-rule:evenodd;stroke:none"
     inkscape:connector-curvature="0"
     d=""
     id="path5" />
  <path
     style="fill:#0000ff;fill-rule:evenodd;stroke:none"
     inkscape:connector-curvature="0"
     d=""
     id="path6" />
  <path
     style="fill:#246db6;fill-rule:evenodd;stroke:none"
     inkscape:connector-curvature="0"
     d=""
     id="path7" />
  <path
     style="fill:none;fill-rule:evenodd;stroke:#ffffff;stroke-opacity:1"
     inkscape:connector-curvature="0"
     d="m 278.333,85.552 c 0,2.769 0.29,4.076 1.346,6.071 2.223,4.198 8.427,11.921 12.163,15.14 0.418,0.359 1,0.862 1.295,1.116 0.91,0.785 2.267,1.583 3.211,1.888 0.87,0.281 1.333,0.507 3.936,1.921 1.326,0.72 4.471,1.977 5.989,2.393 0.537,0.147 1.352,0.37 1.81,0.495 0.459,0.126 1.284,0.317 1.834,0.425 0.55,0.109 1.3,0.264 1.666,0.346 1,0.222 3.951,0.64 5.834,0.826 4.105,0.404 5.732,0.469 7.833,0.313 1.192,-0.089 3.592,-0.232 5.333,-0.318 4.764,-0.235 7.652,-0.671 12.084,-1.823 1.916,-0.499 6.434,-1.808 7.5,-2.174 0.947,-0.325 2.939,-1.04 3.25,-1.166 5.321,-2.161 10.395,-3.604 14.083,-4.006 2.355,-0.256 6.046,-0.491 7.782,-0.495 0.842,-0.002 1.575,-0.073 1.627,-0.158 0.077,-0.125 -3.856,-2.179 -4.171,-2.179 -0.049,0 -0.428,-0.154 -0.841,-0.343 -1.995,-0.909 -6.909,-2.417 -11.564,-3.548 -2.211,-0.538 -2.958,-0.699 -5.166,-1.119 -1.401,-0.266 -4.58,-0.79 -5.5,-0.907 -0.505,-0.064 -1.067,-0.158 -1.25,-0.21 -0.552,-0.155 -12.671,-0.056 -15,0.123 -6.05,0.464 -21.245,0.133 -26.417,-0.575 -0.321,-0.044 -1.633,-0.196 -2.917,-0.337 -5.841,-0.644 -9.382,-1.654 -14,-3.993 -4.133,-2.093 -6.987,-4.346 -9.94,-7.846 -1.938,-2.297 -1.81,-2.307 -1.81,0.14 m -115,109.073 c 0,0.069 0.165,0.537 0.366,1.042 0.411,1.03 0.48,4.82 0.137,7.554 -0.946,7.549 0.761,11.391 6.502,14.629 2.554,1.441 2.476,1.413 4.829,1.739 3.625,0.501 3.663,0.472 2.219,-1.689 -1.293,-1.936 -2.332,-4.067 -3.718,-7.621 -0.279,-0.718 -0.774,-2.255 -1.098,-3.417 -1.436,-5.142 -2.315,-6.999 -4.156,-8.779 -2.196,-2.123 -5.081,-4.086 -5.081,-3.458"
     id="path8" />
  <path
     style="fill:none;fill-rule:evenodd;stroke:#ffffff;stroke-opacity:1"
     inkscape:connector-curvature="0"
     d="m 233.514,1.511 c -6.615,0.516 -8.55,2.953 -8.287,10.437 0.274,7.804 0.414,9.015 1.087,9.375 0.565,0.302 0.659,0.207 0.77,-0.781 0.331,-2.923 1.536,-5.038 3.916,-6.872 0.412,-0.318 0.787,-0.621 0.833,-0.672 0.046,-0.052 0.967,-0.718 2.047,-1.48 3.75,-2.645 5.144,-5.008 5.322,-9.018 l 0.048,-1.083 -2,-0.021 c -1.1,-0.011 -2.781,0.041 -3.736,0.115 M 106.328,53.833 c -2.058,2.06 -4.282,4.463 -5.019,5.422 -0.21,0.272 -0.422,0.533 -0.472,0.578 -0.076,0.07 -0.713,0.838 -1.793,2.164 -1.352,1.662 -3.088,4.03 -4.285,5.849 -0.81,1.23 -1.761,2.661 -2.114,3.179 -0.353,0.517 -0.693,1.08 -0.754,1.25 -0.062,0.169 -0.236,0.496 -0.388,0.725 -0.152,0.229 -0.596,1.279 -0.987,2.333 -0.391,1.054 -0.777,2.067 -0.857,2.25 -0.164,0.374 -0.756,2.117 -3.739,11 -3.699,11.019 -3.609,10.811 -5.528,12.715 -1.723,1.708 -1.636,1.937 0.368,0.976 1.39,-0.666 3.544,-1.991 5.156,-3.171 1.318,-0.964 1.146,-0.827 3.834,-3.055 1.1,-0.912 2.6,-2.101 3.333,-2.641 1.499,-1.104 1.618,-1.2 3.485,-2.824 2.778,-2.416 5.327,-5.219 6.973,-7.666 0.431,-0.642 1.159,-1.708 1.616,-2.37 0.999,-1.444 1.557,-2.536 1.814,-3.547 0.387,-1.522 1.001,-4.272 1.116,-5 0.066,-0.413 0.15,-0.9 0.188,-1.083 0.695,-3.338 0.844,-14.433 0.247,-18.417 l -0.112,-0.75 -2.082,2.083 m -19.495,96.94 c -0.687,0.114 -1.278,0.211 -1.312,0.217 -0.252,0.042 0.593,0.63 1.938,1.349 5.157,2.755 6.145,4.076 12.722,16.994 3.203,6.293 4.775,8.637 6.452,9.621 0.393,0.231 0.747,0.388 0.787,0.349 0.1,-0.101 -0.481,-2.202 -1.438,-5.203 -0.532,-1.667 -0.747,-5.004 -0.487,-7.555 0.714,-6.999 -0.813,-10.727 -5.745,-14.028 -1.763,-1.18 -2.778,-1.525 -5.244,-1.78 -1.907,-0.197 -6.381,-0.176 -7.673,0.036"
     id="path9" />
  <path
     style="fill:#d14600;fill-rule:evenodd;stroke:none"
     inkscape:connector-curvature="0"
     d=""
     id="path10" />
  <path
     style="fill:#ff0000;fill-rule:evenodd;stroke:none"
     inkscape:connector-curvature="0"
     d="m 234.375,1.448 c 0.16,0.042 0.423,0.042 0.583,0 0.161,-0.042 0.029,-0.076 -0.291,-0.076 -0.321,0 -0.452,0.034 -0.292,0.076"
     id="path11" />
  <path
     style="fill:#24b6b6;fill-rule:evenodd;stroke:none"
     inkscape:connector-curvature="0"
     d=""
     id="path12" />
  <path
     style="fill:none;fill-rule:evenodd;stroke:#ffffff;stroke-opacity:1"
     inkscape:connector-curvature="0"
     d="m 246.917,7.496 c -2.309,0.388 -6.936,2.723 -8.25,4.163 -0.046,0.05 -0.641,0.579 -1.322,1.175 -1.718,1.503 -4.024,4.132 -5.189,5.916 -0.539,0.825 -1.039,1.575 -1.111,1.667 -1.073,1.368 -2.173,3.744 -2.699,5.833 -0.092,0.367 -0.437,1.679 -0.766,2.917 -0.801,3.01 -1.247,5.698 -1.247,7.525 0,2.206 0.01,2.197 2.257,-2.192 2.508,-4.899 4.489,-6.683 11.66,-10.502 0.917,-0.488 1.779,-0.949 1.917,-1.025 2.775,-1.524 9.75,-3.763 14.166,-4.548 0.871,-0.154 1.921,-0.347 2.334,-0.429 0.996,-0.196 3.355,-0.422 4.953,-0.473 0.948,-0.031 0.812,-0.325 -0.548,-1.184 -1.454,-0.919 -3.074,-2.318 -5.771,-4.984 -3.543,-3.504 -6.332,-4.54 -10.384,-3.859 M 107,41.909 c -2.219,0.385 -3.332,0.69 -5.333,1.46 -1.253,0.481 -1.536,0.602 -3.084,1.317 -1.792,0.827 -4.12,2.396 -9.366,6.312 -2.258,1.686 -8.986,8.183 -13.205,12.752 -0.677,0.733 -1.614,1.746 -2.081,2.25 -3.98,4.295 -4.88,5.266 -5.098,5.504 -0.632,0.689 -2.124,2.311 -4.524,4.916 -1.434,1.556 -2.968,3.28 -3.409,3.83 -0.441,0.55 -0.844,1.037 -0.895,1.083 -0.051,0.046 -0.429,0.496 -0.84,1 -0.412,0.504 -0.982,1.179 -1.267,1.5 -0.286,0.321 -1.438,1.634 -2.559,2.917 -4.474,5.118 -6.874,7.668 -9.339,9.918 -0.902,0.824 -2.151,1.972 -3.252,2.989 -0.552,0.51 -1.863,1.714 -2.916,2.676 -1.052,0.963 -2.435,2.238 -3.073,2.834 -2.084,1.944 -4.263,3.771 -6.697,5.614 -8.728,6.612 -16.027,10.82 -24.645,14.21 -1.467,0.577 -2.817,1.111 -3,1.186 -0.184,0.076 -0.802,0.271 -1.375,0.434 -1.798,0.511 -1.151,0.856 3.541,1.887 1.284,0.282 2.634,0.581 3,0.665 1.301,0.299 2.356,0.49 4.167,0.754 1.008,0.146 2.283,0.337 2.832,0.424 3.725,0.585 11.623,0.544 15.418,-0.081 1.787,-0.295 4.76,-0.895 5.417,-1.095 2.046,-0.622 4.891,-1.539 5.166,-1.665 0.184,-0.084 0.821,-0.346 1.417,-0.581 1.823,-0.721 1.977,-0.792 4.823,-2.226 3.555,-1.789 11.117,-6.3 11.981,-7.144 0.121,-0.119 0.28,-0.216 0.353,-0.216 0.126,0 6.027,-6.109 7.093,-7.343 2.276,-2.634 6.303,-8.466 8.394,-12.157 0.753,-1.329 1.478,-2.604 1.61,-2.833 0.355,-0.617 3.072,-6.115 4.158,-8.417 2.015,-4.268 4.11,-8.302 5.295,-10.192 0.68,-1.086 1.428,-2.312 1.662,-2.724 0.437,-0.773 3.704,-6.167 4.541,-7.5 0.259,-0.413 0.734,-1.163 1.056,-1.667 0.661,-1.036 1.255,-1.977 1.789,-2.833 0.2,-0.321 0.805,-1.284 1.346,-2.14 0.54,-0.856 1.057,-1.679 1.149,-1.829 1.464,-2.389 5.517,-8.179 6.737,-9.623 0.236,-0.279 0.692,-0.84 1.013,-1.246 0.321,-0.406 1.027,-1.227 1.569,-1.825 0.542,-0.598 1.286,-1.425 1.654,-1.837 0.367,-0.413 0.856,-0.957 1.087,-1.209 0.508,-0.555 0.599,-0.554 -2.31,-0.049 m 165.85,9.514 c -1.277,1.454 -1.969,6.209 -1.363,9.36 0.085,0.44 0.282,1.625 0.439,2.634 0.201,1.291 0.441,2.153 0.813,2.916 0.854,1.753 3.419,6.181 3.765,6.5 0.05,0.046 0.384,0.496 0.743,1 1.526,2.145 4.144,4.966 6.003,6.472 0.642,0.519 1.204,0.984 1.25,1.033 1.136,1.217 9.266,5.842 12.613,7.176 2.541,1.012 7.971,2.701 10.637,3.308 0.458,0.105 1.321,0.3 1.917,0.435 3.83,0.864 14.355,1.255 21.083,0.782 12.6,-0.884 19.289,-0.706 22.667,0.601 1.126,0.436 3.386,1.027 3.927,1.027 0.86,0 -1.007,-3.693 -2.746,-5.431 -1.895,-1.895 -7.264,-5.818 -10.931,-7.989 -0.596,-0.353 -1.557,-0.931 -2.135,-1.286 -4.12,-2.527 -12.216,-5.445 -16.782,-6.049 -1.254,-0.166 -5.808,-0.963 -7,-1.225 -0.367,-0.081 -1.229,-0.268 -1.917,-0.417 -1.35,-0.292 -4.791,-1.156 -7.333,-1.842 -1.627,-0.439 -3.053,-0.79 -6.25,-1.537 -16.392,-3.833 -23.437,-8.103 -28.075,-17.016 -0.633,-1.217 -0.649,-1.222 -1.325,-0.452"
     id="path13" />
  <path
     style="fill:none;fill-rule:evenodd;stroke:#ffffff;stroke-opacity:1"
     inkscape:connector-curvature="0"
     d="m 179.75,0.245 c -1.535,0.315 -3.821,1.077 -5.462,1.82 -0.296,0.134 -0.95,0.429 -1.455,0.655 -4.347,1.952 -4.613,2.092 -5.177,2.734 -0.873,0.995 -0.881,0.992 3.302,1.087 3.916,0.088 5.023,0.256 7.08,1.076 2.685,1.069 6.526,4.238 8.065,6.653 0.168,0.264 0.346,0.517 0.395,0.563 0.316,0.297 1.198,1.921 2.942,5.417 3.213,6.438 3.505,6.915 6.427,10.5 2.769,3.398 5.272,4.346 3.644,1.38 -1.416,-2.58 -1.729,-7.169 -0.866,-12.713 1.104,-7.099 1.1,-9.176 -0.022,-11.628 -1.154,-2.521 -4.378,-5.629 -7.077,-6.823 -2.043,-0.903 -8.872,-1.321 -11.796,-0.721 m -72.917,89.677 c -1.911,0.382 -4.081,1.322 -6.916,2.997 -1.248,0.737 -4.565,2.891 -4.75,3.085 -0.046,0.048 -0.307,0.229 -0.579,0.403 -0.273,0.174 -0.573,0.384 -0.667,0.466 -0.094,0.082 -0.921,0.674 -1.838,1.314 -1.334,0.931 -3.197,2.685 -9.333,8.783 -7.261,7.216 -9.51,9.407 -11.838,11.53 -1.666,1.52 -2.101,1.886 -3.918,3.304 -0.959,0.749 -1.823,1.426 -1.921,1.505 -0.714,0.585 -6.931,3.682 -9.944,4.955 -0.525,0.222 -1.35,0.583 -1.833,0.803 -13.221,6.014 -20.504,7.421 -31.129,6.011 -3.896,-0.517 -7.67,-0.74 -7.664,-0.453 0.01,0.519 5.643,4.022 8.997,5.595 2.556,1.2 3.499,1.613 3.673,1.613 0.091,0 0.295,0.067 0.454,0.148 0.766,0.389 2.565,1.016 4.15,1.445 2.243,0.607 2.733,0.723 4.14,0.982 0.825,0.152 1.8,0.342 2.166,0.423 1.487,0.328 7.525,0.709 9.667,0.61 2.975,-0.137 6.269,-0.403 7.667,-0.619 1.86,-0.287 3.944,-0.654 4.666,-0.822 0.367,-0.086 1.23,-0.278 1.917,-0.427 1.807,-0.393 3.232,-0.85 4.75,-1.522 2.081,-0.923 2.244,-0.992 3.781,-1.618 7.296,-2.97 13.78,-7.819 18.072,-13.516 0.346,-0.459 0.672,-0.871 0.725,-0.917 0.773,-0.669 3.724,-5.883 4.386,-7.75 0.931,-2.629 4.213,-11.265 4.636,-12.199 0.174,-0.385 0.317,-0.747 0.317,-0.804 0,-0.058 0.375,-0.896 0.833,-1.863 0.458,-0.967 0.833,-1.783 0.833,-1.815 0,-0.103 1.852,-3.295 2.554,-4.402 1.036,-1.634 2.995,-4.227 3.779,-5 0.277,-0.275 1.313,-1.642 1.475,-1.948 0.339,-0.641 0.373,-0.633 -1.308,-0.297"
     id="path14" />
  <path
     style="fill:#ff00ff;fill-rule:evenodd;stroke:none"
     inkscape:connector-curvature="0"
     d=""
     id="path15" />
  <path
     style="fill:none;fill-rule:evenodd;stroke:#ffffff;stroke-opacity:1"
     inkscape:connector-curvature="0"
     d="m 266.583,46.265 c -1.491,0.355 -1.977,0.521 -3,1.024 -2.293,1.126 -4.274,2.878 -6.557,5.796 -1.66,2.124 -3.205,5.643 -4.059,9.248 -0.413,1.745 -0.269,6.45 0.261,8.5 2.072,8.022 7.719,14.865 15.576,18.873 3.612,1.843 5.025,3.374 5.348,5.794 0.183,1.369 1.547,0.848 2.367,-0.904 1.847,-3.949 1.118,-7.505 -3.032,-14.793 -0.747,-1.312 -1.716,-3.061 -2.152,-3.886 -0.437,-0.825 -0.941,-1.763 -1.12,-2.084 -0.18,-0.321 -0.578,-1.033 -0.885,-1.583 -2.91,-5.218 -3.679,-7.858 -3.717,-12.75 -0.021,-2.889 0.021,-3.241 0.669,-5.474 0.847,-2.919 2.684,-5.159 4.383,-5.346 0.896,-0.098 0.918,-0.113 0.884,-0.599 -0.082,-1.183 -3.057,-2.272 -4.966,-1.816"
     id="path16" />
  <path
     style="fill:#ff9900;fill-rule:evenodd;stroke:none"
     inkscape:connector-curvature="0"
     d=""
     id="path17" />
  <path
     style="fill:none;fill-rule:evenodd;stroke:#ffffff;stroke-opacity:1"
     inkscape:connector-curvature="0"
     d="m 109.627,96.339 c -0.419,0.278 -1.023,0.821 -1.343,1.208 -0.319,0.387 -0.746,0.891 -0.949,1.12 -1.665,1.88 -4.651,6.418 -5.68,8.633 -0.371,0.797 -0.733,1.562 -0.805,1.7 -0.072,0.138 -0.333,0.925 -0.58,1.75 -1.042,3.481 -2.079,6.491 -2.697,7.833 -0.127,0.275 -0.911,2.263 -1.742,4.417 -1.906,4.943 -3.242,7.364 -5.747,10.417 -2.906,3.54 -7.398,6.194 -13.417,7.927 -3.592,1.034 -3.614,1.056 -1.872,1.862 1.923,0.89 4.085,1.581 6.122,1.956 6.297,1.16 8.3,1.203 11.166,0.242 5.298,-1.777 8.779,-4.778 11.585,-9.987 0.395,-0.734 0.906,-1.671 1.136,-2.084 1.521,-2.728 2.146,-4.663 2.933,-9.083 0.658,-3.691 0.678,-4.674 0.327,-15.784 -0.129,-4.106 0.262,-6.827 1.457,-10.118 0.186,-0.512 0.418,-1.156 0.516,-1.431 0.098,-0.275 0.253,-0.596 0.344,-0.713 0.329,-0.42 -0.006,-0.36 -0.754,0.135 m 210.29,22.982 c -3.14,0.702 -6.97,2.562 -9,4.369 -4.231,3.765 -4.458,4.465 -4.306,13.273 0.108,6.246 0.015,7.968 -0.48,8.926 -0.249,0.483 -0.035,0.522 0.984,0.18 1.082,-0.363 2.382,-1.527 3.898,-3.486 0.926,-1.196 1.349,-1.699 2.654,-3.155 0.412,-0.46 0.825,-0.921 0.916,-1.025 0.811,-0.921 1.273,-1.462 1.912,-2.243 0.41,-0.5 1.057,-1.248 1.437,-1.66 0.38,-0.413 0.944,-1.05 1.254,-1.416 2.032,-2.403 5.723,-6.064 7.481,-7.422 0.412,-0.318 0.787,-0.623 0.833,-0.676 0.568,-0.667 3.359,-1.999 5.929,-2.832 3.415,-1.107 3.92,-1.817 1.434,-2.016 -0.795,-0.064 -2.271,-0.199 -3.28,-0.301 -8.172,-0.823 -9.944,-0.901 -11.666,-0.516 M 164.766,186.36 c 0.174,0.198 0.692,0.744 1.151,1.215 0.46,0.472 1.421,1.859 2.147,3.098 0.722,1.234 1.679,2.827 2.125,3.541 0.446,0.713 0.811,1.329 0.811,1.367 0,0.039 0.525,0.935 1.167,1.992 1.653,2.719 2.768,4.965 3.854,7.76 0.6,1.544 1.659,3.731 1.843,3.806 0.075,0.03 0.136,0.117 0.136,0.191 0,0.252 1.215,2.005 2.901,4.188 2.578,3.338 7.702,6.34 13.016,7.625 0.366,0.089 1.079,0.274 1.583,0.412 4.643,1.269 13.525,0.797 17.328,-0.921 0.41,-0.185 0.914,-0.401 1.122,-0.48 0.514,-0.195 0.326,-0.606 -0.339,-0.741 -2.156,-0.438 -4.797,-1.537 -7.611,-3.169 -0.596,-0.345 -1.383,-0.792 -1.75,-0.992 -2.614,-1.431 -9.769,-6.155 -11.322,-7.476 -2.795,-2.376 -7.06,-6.847 -8.928,-9.357 -0.669,-0.9 -3.227,-3.277 -6.083,-5.654 -5.774,-4.805 -9.314,-6.762 -12.234,-6.764 l -1.235,-0.001 0.318,0.36"
     id="path18" />
  <path
     style="fill:#00ffff;fill-rule:evenodd;stroke:none"
     inkscape:connector-curvature="0"
     d=""
     id="path19" />
</svg>
