<svg id="svg" version="1.1" width="400" height="222.45430809399477" viewBox="0 0 400 222.45430809399477" xmlns="http://www.w3.org/2000/svg" xmlns:xlink="http://www.w3.org/1999/xlink" ><g id="svgg"><path id="path0" d="" stroke="none" fill="#555555" fill-rule="evenodd"></path><path id="path1" d="" stroke="none" fill="#999999" fill-rule="evenodd"></path><path id="path2" d="" stroke="none" fill="#c6c6c6" fill-rule="evenodd"></path><path id="path3" d="M203.332 1.272 C 203.329 4.016,203.143 12.721,203.073 13.417 C 203.026 13.875,202.916 19.012,202.828 24.833 C 202.740 30.654,202.635 35.754,202.594 36.167 C 202.554 36.579,202.476 41.979,202.423 48.167 C 202.369 54.354,202.255 60.954,202.170 62.833 C 202.000 66.568,201.725 80.165,201.585 91.833 C 201.536 95.912,201.456 100.750,201.408 102.583 C 201.046 116.329,200.966 119.946,200.906 125.167 C 200.869 128.421,200.763 133.333,200.671 136.083 C 200.579 138.833,200.464 145.733,200.415 151.417 C 200.320 162.582,200.023 178.532,199.909 178.647 C 199.794 178.761,198.151 177.583,197.250 176.740 C 196.792 176.312,196.229 175.839,196.000 175.689 C 195.771 175.540,195.358 175.217,195.083 174.972 C 194.808 174.726,194.396 174.369,194.167 174.178 C 191.155 171.668,185.108 165.803,182.469 162.833 C 179.697 159.713,178.964 158.860,178.171 157.833 C 177.853 157.421,177.551 157.046,177.500 157.000 C 177.450 156.954,177.000 156.392,176.500 155.750 C 176.000 155.108,175.550 154.546,175.501 154.500 C 175.451 154.454,174.886 153.705,174.247 152.834 C 173.607 151.964,172.991 151.139,172.879 151.001 C 172.637 150.703,171.217 148.762,170.169 147.296 C 169.758 146.721,169.359 146.175,169.281 146.083 C 169.115 145.886,167.499 143.511,165.707 140.833 C 165.002 139.779,164.367 138.892,164.296 138.861 C 164.225 138.831,164.167 138.706,164.167 138.583 C 164.167 138.461,164.108 138.336,164.036 138.306 C 163.964 138.275,163.578 137.725,163.178 137.083 C 162.777 136.442,162.403 135.879,162.347 135.833 C 162.190 135.705,160.428 132.866,159.849 131.808 C 159.282 130.772,159.221 130.500,159.555 130.500 C 160.061 130.500,162.141 129.583,164.083 128.503 C 164.633 128.197,165.233 127.865,165.417 127.765 C 165.600 127.665,165.787 127.542,165.833 127.492 C 165.879 127.441,166.329 127.151,166.833 126.847 C 167.642 126.360,170.658 124.267,171.333 123.725 C 171.471 123.614,172.056 123.150,172.633 122.694 C 175.435 120.479,179.223 116.731,182.600 112.833 C 182.958 112.421,183.289 112.046,183.336 112.000 C 183.384 111.954,184.082 111.092,184.889 110.083 C 185.695 109.075,186.457 108.125,186.581 107.972 C 186.706 107.818,186.888 107.543,186.986 107.360 C 187.084 107.176,187.284 106.906,187.431 106.759 C 187.578 106.613,188.251 105.651,188.927 104.621 C 189.603 103.592,190.215 102.671,190.286 102.574 C 190.530 102.245,190.835 101.751,190.949 101.500 C 191.011 101.362,191.397 100.725,191.807 100.083 C 192.469 99.046,193.149 97.831,194.091 96.000 C 194.672 94.870,194.805 94.569,195.410 93.000 C 196.091 91.236,196.436 89.986,197.086 86.917 C 197.241 86.183,197.438 85.283,197.522 84.917 C 197.607 84.550,197.787 83.612,197.924 82.833 C 198.060 82.054,198.244 81.042,198.333 80.583 C 199.284 75.651,199.580 67.790,198.998 62.917 C 198.911 62.183,198.754 60.758,198.650 59.750 C 198.384 57.172,197.911 53.884,197.510 51.833 C 197.429 51.421,197.282 50.596,197.181 50.000 C 197.081 49.404,196.927 48.617,196.839 48.250 C 196.750 47.883,196.558 47.021,196.411 46.333 C 196.006 44.439,195.815 43.625,195.668 43.167 C 195.594 42.938,195.407 42.300,195.252 41.750 C 194.033 37.432,192.061 32.987,189.678 29.185 C 189.213 28.444,188.833 27.800,188.833 27.754 C 188.833 27.475,185.332 22.705,184.182 21.417 C 179.036 15.653,174.387 12.546,168.686 11.060 C 165.814 10.311,159.068 10.338,155.333 11.113 C 154.646 11.256,153.746 11.437,153.333 11.515 C 152.062 11.756,149.818 12.461,147.583 13.322 C 146.783 13.630,144.230 14.920,144.030 15.117 C 143.909 15.236,143.702 15.333,143.571 15.333 C 143.440 15.333,143.333 15.396,143.333 15.472 C 143.333 15.548,143.127 15.715,142.875 15.843 C 142.623 15.970,142.187 16.264,141.907 16.496 C 141.626 16.727,141.068 17.179,140.667 17.500 C 139.245 18.637,137.521 20.442,137.394 20.929 C 137.183 21.733,137.254 40.519,137.518 54.083 C 137.586 57.567,137.760 67.579,137.905 76.333 C 138.050 85.087,138.243 95.025,138.334 98.417 C 138.480 103.909,138.418 143.111,138.258 145.750 C 138.225 146.300,138.177 150.162,138.151 154.333 C 138.068 167.994,137.815 175.415,137.084 185.667 C 137.035 186.354,136.918 188.379,136.825 190.167 C 136.732 191.954,136.570 194.692,136.466 196.250 C 136.361 197.808,136.270 200.007,136.263 201.135 C 136.248 203.459,136.127 203.249,137.917 204.008 C 138.375 204.203,139.050 204.496,139.417 204.659 C 139.783 204.822,140.496 205.124,141.000 205.330 C 141.504 205.536,142.231 205.846,142.616 206.019 C 143.000 206.192,143.354 206.333,143.403 206.333 C 143.451 206.333,143.886 206.512,144.370 206.730 C 144.854 206.948,146.450 207.595,147.917 208.169 C 149.383 208.742,150.901 209.351,151.290 209.522 C 151.678 209.693,152.042 209.833,152.098 209.833 C 152.154 209.833,152.473 209.953,152.808 210.100 C 153.143 210.247,153.567 210.430,153.750 210.507 C 154.712 210.911,156.694 211.761,157.500 212.116 C 161.017 213.663,160.833 213.746,160.836 210.625 C 160.837 209.227,160.762 206.546,160.668 204.667 C 160.574 202.787,160.417 199.225,160.320 196.750 C 160.223 194.275,160.077 190.825,159.996 189.083 C 159.915 187.342,159.771 183.442,159.676 180.417 C 159.581 177.392,159.419 173.790,159.315 172.413 C 159.051 168.896,158.983 168.974,160.754 170.756 C 161.577 171.585,162.658 172.748,163.156 173.340 C 164.596 175.052,175.074 185.434,181.146 191.167 C 182.457 192.404,183.920 193.792,184.397 194.250 C 185.627 195.432,186.749 196.444,188.000 197.500 C 188.596 198.003,189.121 198.459,189.167 198.513 C 189.213 198.567,189.775 199.053,190.417 199.594 C 191.058 200.135,191.733 200.705,191.917 200.862 C 192.100 201.018,192.409 201.282,192.603 201.448 C 192.797 201.614,193.274 202.012,193.662 202.333 C 194.050 202.654,194.529 203.067,194.726 203.250 C 194.923 203.433,195.497 203.920,196.001 204.333 C 196.504 204.745,196.997 205.157,197.096 205.249 C 197.194 205.341,197.521 205.604,197.821 205.833 C 198.122 206.063,198.683 206.512,199.068 206.833 C 199.453 207.154,200.274 207.792,200.892 208.250 C 201.510 208.708,202.369 209.353,202.800 209.683 C 204.459 210.954,208.620 213.774,209.542 214.252 C 209.885 214.430,210.167 214.634,210.167 214.705 C 210.167 214.775,210.247 214.833,210.345 214.833 C 210.443 214.833,211.082 215.173,211.765 215.587 C 215.034 217.572,217.095 217.830,223.083 217.007 C 227.387 216.415,228.390 216.259,231.250 215.741 C 236.323 214.820,241.131 213.684,245.333 212.413 C 246.479 212.066,247.732 211.698,248.117 211.594 C 248.502 211.490,248.871 211.351,248.936 211.286 C 249.002 211.220,249.226 211.167,249.435 211.167 C 249.643 211.167,249.855 211.100,249.905 211.019 C 249.955 210.938,250.269 210.820,250.602 210.757 C 250.935 210.695,251.330 210.579,251.479 210.500 C 251.628 210.422,252.500 210.080,253.417 209.741 C 254.333 209.402,255.346 209.014,255.667 208.879 C 255.987 208.743,256.400 208.569,256.583 208.492 C 257.773 207.991,258.769 207.542,260.083 206.917 C 260.908 206.525,262.408 205.815,263.417 205.339 C 266.721 203.781,268.187 203.008,269.467 202.148 C 269.861 201.883,270.248 201.667,270.328 201.667 C 270.407 201.667,270.497 201.608,270.528 201.536 C 270.558 201.464,271.108 201.078,271.750 200.678 C 272.392 200.277,272.954 199.904,273.000 199.849 C 273.046 199.794,273.496 199.469,274.000 199.127 C 275.501 198.108,275.712 197.956,276.595 197.254 C 277.059 196.885,277.649 196.433,277.906 196.250 C 280.987 194.050,284.058 191.017,286.344 187.917 C 286.750 187.367,287.123 186.879,287.174 186.833 C 287.225 186.787,287.525 186.375,287.841 185.917 C 288.349 185.178,288.897 184.429,289.308 183.912 C 289.382 183.818,289.586 183.518,289.760 183.246 C 289.933 182.973,290.122 182.713,290.180 182.667 C 290.237 182.621,290.494 182.248,290.751 181.837 C 291.008 181.427,291.320 180.990,291.443 180.867 C 291.566 180.744,291.667 180.536,291.667 180.405 C 291.667 180.274,291.724 180.167,291.794 180.167 C 291.864 180.167,291.995 180.023,292.085 179.846 C 292.176 179.670,292.560 178.976,292.939 178.305 C 293.319 177.633,293.912 176.558,294.259 175.917 C 294.605 175.275,295.099 174.375,295.357 173.917 C 295.822 173.089,296.554 171.618,297.057 170.500 C 297.496 169.523,298.846 165.323,299.495 162.917 C 299.667 162.275,299.931 161.300,300.080 160.750 C 300.335 159.808,300.543 158.795,301.090 155.833 C 301.928 151.301,301.960 141.668,301.151 137.333 C 301.057 136.829,300.912 136.042,300.828 135.583 C 300.258 132.475,298.961 127.547,298.328 126.083 C 298.248 125.900,298.065 125.375,297.921 124.917 C 297.099 122.310,294.144 117.039,292.167 114.655 C 291.009 113.259,288.055 110.365,286.750 109.348 C 286.017 108.777,285.304 108.220,285.167 108.110 C 285.029 108.001,284.565 107.674,284.135 107.385 C 283.023 106.635,282.263 106.098,282.167 105.991 C 282.121 105.941,281.708 105.641,281.250 105.325 C 280.792 105.009,280.379 104.705,280.333 104.650 C 280.287 104.595,279.950 104.356,279.583 104.118 C 279.217 103.881,278.242 103.221,277.417 102.652 C 275.297 101.191,267.242 96.167,267.019 96.167 C 266.917 96.167,266.833 96.092,266.833 96.000 C 266.833 95.908,266.721 95.833,266.583 95.833 C 266.446 95.833,266.333 95.760,266.333 95.670 C 266.333 95.580,266.146 95.459,265.917 95.402 C 265.688 95.344,265.500 95.242,265.500 95.175 C 265.500 95.108,265.294 94.960,265.043 94.845 C 264.200 94.461,254.809 88.507,254.500 88.161 C 254.454 88.109,253.592 87.471,252.584 86.742 C 250.918 85.537,249.353 84.141,248.645 83.227 C 245.480 79.142,244.204 76.593,243.526 73.000 C 243.431 72.496,243.266 71.641,243.159 71.101 C 242.878 69.676,242.873 64.468,243.152 63.333 C 243.491 61.953,244.151 59.824,244.444 59.167 C 245.561 56.657,246.842 54.564,248.319 52.833 C 249.330 51.649,249.557 51.424,250.656 50.523 C 251.063 50.190,251.625 49.702,251.906 49.440 C 253.555 47.898,257.110 45.580,259.583 44.433 C 260.317 44.092,261.032 43.753,261.172 43.678 C 261.313 43.604,261.685 43.486,262.000 43.417 C 262.315 43.348,262.687 43.233,262.828 43.162 C 264.894 42.117,270.311 42.091,273.667 43.111 C 275.100 43.546,278.736 45.236,279.167 45.667 C 279.212 45.712,280.037 46.275,281.000 46.917 C 281.962 47.558,282.787 48.129,282.833 48.184 C 282.879 48.240,283.554 48.682,284.333 49.168 C 285.112 49.654,285.975 50.222,286.251 50.431 C 286.527 50.640,286.939 50.911,287.168 51.033 C 287.396 51.156,288.146 51.624,288.833 52.073 C 289.521 52.523,290.983 53.474,292.083 54.188 C 293.183 54.901,294.308 55.643,294.583 55.836 C 295.821 56.705,298.362 58.333,298.482 58.333 C 298.555 58.333,298.751 58.483,298.917 58.667 C 299.083 58.850,299.275 59.000,299.343 59.000 C 299.412 59.000,300.192 59.487,301.077 60.083 C 301.962 60.679,302.750 61.167,302.829 61.167 C 302.908 61.167,302.997 61.223,303.028 61.292 C 303.112 61.481,310.262 65.000,310.562 65.000 C 310.614 65.000,311.058 65.183,311.548 65.408 C 312.038 65.632,312.884 65.975,313.428 66.169 C 313.972 66.364,314.567 66.588,314.750 66.666 C 315.291 66.897,317.858 67.649,318.668 67.814 C 319.080 67.897,320.017 68.086,320.750 68.233 C 322.710 68.626,325.429 68.593,326.125 68.168 C 326.787 67.765,326.812 67.538,326.208 67.405 C 325.170 67.176,324.093 66.770,323.036 66.210 C 322.420 65.883,321.691 65.496,321.416 65.350 C 320.730 64.985,317.082 62.558,316.806 62.283 C 316.684 62.161,316.358 61.917,316.083 61.740 C 315.040 61.071,311.103 57.823,310.155 56.851 C 310.012 56.704,309.383 56.133,308.758 55.583 C 308.133 55.033,307.008 53.983,306.257 53.250 C 304.719 51.748,300.557 47.831,299.167 46.577 C 298.662 46.122,298.021 45.525,297.741 45.250 C 297.012 44.535,294.944 42.586,292.257 40.083 C 288.792 36.857,287.829 35.954,287.437 35.564 C 287.243 35.370,286.371 34.697,285.500 34.067 C 284.629 33.438,283.842 32.861,283.750 32.786 C 283.119 32.270,280.589 30.511,280.099 30.247 C 279.769 30.069,279.500 29.866,279.500 29.795 C 279.500 29.725,279.420 29.667,279.322 29.667 C 279.224 29.667,278.899 29.479,278.598 29.250 C 278.298 29.021,277.965 28.833,277.859 28.833 C 277.753 28.833,277.667 28.758,277.667 28.667 C 277.667 28.575,277.554 28.500,277.417 28.500 C 277.279 28.500,277.167 28.433,277.167 28.351 C 277.167 28.270,276.979 28.156,276.750 28.098 C 276.521 28.041,276.333 27.920,276.333 27.830 C 276.333 27.740,276.256 27.667,276.163 27.667 C 276.069 27.667,275.517 27.367,274.936 27.000 C 274.356 26.633,273.825 26.333,273.758 26.333 C 273.690 26.333,273.436 26.192,273.192 26.019 C 272.391 25.451,267.932 23.228,267.167 23.015 C 265.763 22.625,264.317 22.395,261.277 22.078 C 259.285 21.870,254.603 22.530,250.500 23.597 C 246.873 24.541,246.395 24.703,244.000 25.800 C 239.825 27.711,235.367 31.429,232.345 35.520 C 231.981 36.013,231.623 36.492,231.550 36.583 C 229.932 38.613,227.500 42.887,227.500 43.701 C 227.500 43.829,227.435 44.005,227.355 44.092 C 227.276 44.179,227.080 44.625,226.921 45.083 C 226.762 45.542,226.566 46.067,226.486 46.250 C 225.401 48.744,224.381 52.889,223.986 56.417 C 223.760 58.431,223.882 72.199,224.136 73.333 C 224.228 73.746,224.428 74.833,224.579 75.750 C 224.890 77.637,225.073 78.451,225.534 80.000 C 225.711 80.596,225.966 81.458,226.101 81.917 C 226.236 82.375,226.409 82.900,226.487 83.083 C 226.564 83.267,226.834 83.979,227.086 84.667 C 228.005 87.173,231.716 94.259,232.323 94.667 C 232.391 94.712,232.686 95.083,232.979 95.491 C 234.161 97.137,238.975 102.182,241.419 104.336 C 242.053 104.895,244.354 106.895,245.417 107.809 C 245.692 108.046,246.404 108.685,247.000 109.228 C 247.596 109.772,248.461 110.562,248.924 110.983 C 249.386 111.405,250.321 112.237,251.002 112.833 C 252.276 113.948,253.346 114.903,254.663 116.103 C 255.078 116.480,255.711 117.043,256.070 117.353 C 256.429 117.663,256.921 118.104,257.163 118.333 C 257.405 118.563,257.996 119.087,258.478 119.500 C 261.557 122.139,266.647 127.210,268.523 129.507 C 268.857 129.916,269.269 130.410,269.440 130.605 C 270.985 132.371,272.335 134.340,273.081 135.917 C 276.375 142.873,277.413 150.502,275.892 156.583 C 275.755 157.133,275.542 157.996,275.420 158.500 C 274.906 160.613,273.826 163.347,272.457 166.000 C 270.761 169.288,270.784 169.243,270.680 169.333 C 270.627 169.379,270.439 169.679,270.263 170.000 C 270.086 170.321,269.899 170.621,269.846 170.667 C 269.793 170.713,269.375 171.310,268.917 171.995 C 268.218 173.039,265.532 176.477,264.928 177.100 C 264.830 177.201,264.450 177.650,264.083 178.098 C 262.372 180.189,260.364 182.249,258.497 183.832 C 257.903 184.336,257.379 184.789,257.333 184.840 C 257.241 184.942,255.370 186.378,254.585 186.949 C 254.309 187.150,253.296 187.843,252.333 188.491 C 251.371 189.138,250.504 189.723,250.408 189.792 C 250.031 190.059,249.572 190.341,249.333 190.451 C 249.196 190.515,248.537 190.889,247.870 191.283 C 247.203 191.678,246.623 192.000,246.582 192.000 C 246.540 192.000,245.886 192.293,245.128 192.652 C 243.516 193.415,240.952 194.426,240.049 194.656 C 239.701 194.744,238.592 195.033,237.583 195.299 C 234.552 196.096,234.167 196.169,232.000 196.353 C 226.508 196.819,224.331 196.646,222.044 195.562 C 219.411 194.313,219.421 194.369,219.557 182.085 C 219.766 163.166,220.111 145.121,220.336 141.333 C 220.420 139.912,220.530 130.912,220.579 121.333 C 220.628 111.754,220.708 101.929,220.756 99.500 C 220.803 97.071,220.879 90.658,220.925 85.250 C 220.970 79.842,221.079 72.379,221.168 68.667 C 221.256 64.954,221.331 59.742,221.333 57.083 C 221.336 54.425,221.408 50.225,221.493 47.750 C 221.579 45.275,221.691 39.875,221.742 35.750 C 221.827 28.965,221.890 26.124,222.084 20.388 C 222.119 19.364,222.201 14.964,222.266 10.610 L 222.385 2.695 221.651 2.599 C 221.247 2.547,220.129 2.427,219.167 2.332 C 218.204 2.237,216.817 2.083,216.083 1.989 C 214.734 1.816,213.827 1.721,209.167 1.265 C 206.300 0.985,204.278 0.726,203.708 0.566 C 203.356 0.468,203.333 0.511,203.332 1.272 M148.250 22.299 C 150.694 22.777,151.204 22.901,152.563 23.347 C 155.268 24.235,160.071 26.642,160.833 27.492 C 160.879 27.543,161.329 27.892,161.833 28.267 C 164.272 30.082,167.494 33.364,169.218 35.788 C 169.594 36.317,169.961 36.775,170.034 36.806 C 170.107 36.836,170.167 36.962,170.167 37.085 C 170.167 37.209,170.264 37.409,170.382 37.530 C 171.282 38.449,172.968 42.228,173.753 45.083 C 173.904 45.633,174.096 46.214,174.181 46.373 C 174.265 46.532,174.333 46.770,174.333 46.903 C 174.333 47.035,174.517 47.730,174.741 48.447 C 175.225 49.993,175.748 52.128,176.088 53.940 C 176.223 54.660,176.408 55.587,176.500 56.000 C 178.219 63.724,178.359 69.839,177.006 78.000 C 176.644 80.184,175.693 83.428,174.809 85.500 C 174.025 87.336,171.160 92.892,170.269 94.304 C 170.029 94.683,169.833 95.064,169.833 95.149 C 169.833 95.235,169.769 95.331,169.691 95.361 C 169.612 95.392,169.155 96.045,168.676 96.814 C 167.543 98.627,164.876 102.321,164.328 102.833 C 164.279 102.879,164.066 103.142,163.854 103.417 C 161.980 105.855,158.063 109.696,155.381 111.726 C 153.932 112.823,150.888 114.833,150.676 114.833 C 150.579 114.833,150.500 114.892,150.500 114.963 C 150.500 115.035,150.294 115.182,150.042 115.289 C 149.790 115.397,149.133 115.750,148.583 116.074 C 147.475 116.727,143.917 118.500,143.713 118.501 C 143.642 118.501,143.214 118.689,142.763 118.917 C 142.312 119.146,141.852 119.333,141.741 119.333 C 141.588 119.333,141.514 118.046,141.438 114.125 C 141.222 102.890,141.131 98.734,140.999 94.167 C 140.690 83.477,140.522 76.405,140.430 70.167 C 140.266 59.074,140.161 53.801,140.080 52.621 C 139.918 50.249,139.567 28.498,139.628 24.528 L 139.667 21.973 143.542 22.055 C 145.673 22.100,147.792 22.210,148.250 22.299 M129.630 24.969 C 127.639 26.223,125.877 27.345,125.714 27.460 C 125.195 27.827,123.833 28.705,120.858 30.587 C 119.267 31.593,117.793 32.529,117.581 32.667 C 117.369 32.804,116.833 33.135,116.390 33.402 C 115.946 33.669,115.546 33.932,115.500 33.986 C 115.454 34.039,115.267 34.174,115.083 34.285 C 114.900 34.397,114.263 34.796,113.667 35.173 L 112.583 35.859 112.591 44.471 C 112.602 56.686,112.702 66.228,112.844 68.750 C 112.912 69.942,113.010 72.604,113.062 74.667 C 113.115 76.729,113.253 80.254,113.370 82.500 C 113.509 85.174,113.583 91.503,113.582 100.833 C 113.581 114.136,113.473 119.328,113.001 128.750 C 112.909 130.583,112.721 134.558,112.583 137.583 C 112.444 140.608,112.263 144.021,112.180 145.167 C 112.097 146.313,111.981 148.787,111.922 150.667 C 111.864 152.546,111.736 155.508,111.638 157.250 C 111.286 163.524,111.200 165.325,111.020 170.083 C 110.919 172.742,110.761 175.978,110.668 177.274 C 110.576 178.571,110.500 180.639,110.500 181.870 C 110.500 183.102,110.429 184.891,110.343 185.846 C 110.256 186.802,110.151 188.648,110.109 189.949 L 110.032 192.314 110.558 192.424 C 110.847 192.485,111.544 192.752,112.107 193.017 C 112.670 193.283,113.173 193.500,113.223 193.500 C 113.274 193.500,113.901 193.773,114.616 194.107 C 115.890 194.702,116.664 195.049,117.833 195.550 C 119.861 196.419,121.062 196.948,122.123 197.440 C 122.786 197.748,123.365 198.000,123.410 198.000 C 123.454 198.000,123.924 198.193,124.453 198.429 C 124.983 198.665,125.642 198.959,125.917 199.081 C 126.192 199.204,126.925 199.536,127.546 199.819 C 128.167 200.102,128.729 200.336,128.796 200.339 C 128.862 200.342,129.217 200.487,129.583 200.660 C 130.552 201.119,130.488 201.502,131.012 192.083 C 131.195 188.783,131.415 185.221,131.500 184.167 C 131.741 181.171,132.210 167.481,132.339 159.667 C 132.465 152.027,132.396 54.895,132.262 52.000 C 132.066 47.745,131.990 28.555,132.166 27.667 C 132.443 26.266,132.840 24.999,133.274 24.131 C 134.261 22.155,133.998 22.216,129.630 24.969 " stroke="none" fill="#fefefe" fill-rule="evenodd"></path><path id="path4" d="M374.167 110.761 C 372.104 110.882,369.854 111.063,369.167 111.164 C 368.479 111.265,367.129 111.453,366.167 111.582 C 362.088 112.128,360.298 112.534,358.417 113.341 C 358.233 113.419,357.408 113.757,356.583 114.091 C 355.213 114.646,354.124 115.107,353.250 115.502 C 353.067 115.586,352.129 116.000,351.167 116.422 C 348.051 117.792,342.642 120.591,341.308 121.524 C 341.064 121.694,340.808 121.833,340.738 121.833 C 340.502 121.833,332.978 126.677,332.530 127.117 C 332.409 127.236,332.254 127.333,332.186 127.333 C 332.118 127.333,331.917 127.465,331.740 127.626 C 331.562 127.787,331.205 128.055,330.947 128.221 C 330.689 128.386,330.352 128.625,330.197 128.752 C 330.043 128.878,329.092 129.639,328.083 130.442 C 327.075 131.245,326.168 131.981,326.067 132.076 C 325.966 132.172,324.998 133.075,323.916 134.083 C 322.834 135.092,321.679 136.191,321.349 136.526 C 319.873 138.026,317.888 140.123,317.583 140.502 C 317.400 140.730,316.837 141.407,316.333 142.007 C 315.829 142.607,315.248 143.320,315.041 143.591 C 314.835 143.862,314.197 144.698,313.625 145.450 C 311.023 148.864,309.364 151.561,308.160 154.333 C 307.782 155.204,307.291 156.312,307.070 156.796 C 306.848 157.280,306.667 157.750,306.667 157.840 C 306.667 157.931,306.600 158.135,306.519 158.294 C 305.318 160.656,303.009 167.718,302.256 171.333 C 301.021 177.262,299.002 181.436,295.788 184.702 L 294.265 186.250 295.007 186.307 C 296.844 186.448,300.006 185.623,302.833 184.265 C 305.482 182.993,306.191 182.476,312.750 177.037 C 314.384 175.682,326.915 163.176,327.360 162.457 C 327.427 162.349,327.995 161.734,328.623 161.089 C 329.251 160.444,330.024 159.579,330.341 159.167 C 330.890 158.453,331.386 157.843,331.750 157.436 C 331.842 157.333,332.217 156.875,332.583 156.416 C 332.950 155.958,333.401 155.433,333.587 155.250 C 333.879 154.961,334.802 153.921,336.750 151.685 C 338.665 149.487,339.121 149.021,342.130 146.188 C 344.778 143.693,344.945 143.543,346.000 142.690 C 346.412 142.356,346.787 142.043,346.833 141.993 C 347.008 141.803,351.601 138.538,351.945 138.358 C 352.144 138.254,352.407 138.072,352.529 137.954 C 352.650 137.836,353.270 137.414,353.905 137.015 C 354.541 136.616,355.141 136.224,355.239 136.142 C 355.639 135.811,358.611 133.935,361.667 132.084 C 366.683 129.047,369.131 127.643,372.500 125.873 C 373.279 125.463,374.448 124.842,375.097 124.492 C 376.432 123.773,380.248 122.268,383.750 121.080 C 384.117 120.956,385.167 120.581,386.083 120.248 C 387.000 119.914,388.050 119.541,388.417 119.419 C 389.572 119.034,394.679 117.224,396.417 116.584 C 397.333 116.247,398.515 115.821,399.042 115.637 C 400.116 115.262,400.155 115.201,399.625 114.712 C 398.408 113.589,396.415 112.957,390.250 111.742 C 386.435 110.989,385.675 110.911,379.333 110.610 C 378.554 110.573,376.229 110.641,374.167 110.761 M58.167 149.753 C 58.029 149.791,57.017 149.900,55.917 149.995 C 51.758 150.356,47.662 151.017,45.583 151.663 C 45.033 151.833,44.302 152.025,43.958 152.089 C 42.986 152.268,43.082 152.320,47.459 153.990 C 49.728 154.855,51.696 155.620,51.833 155.688 C 51.971 155.757,52.946 156.211,54.000 156.697 C 56.629 157.909,60.959 160.363,62.250 161.374 C 62.342 161.445,62.717 161.727,63.083 162.000 C 63.450 162.273,63.825 162.553,63.917 162.623 C 64.009 162.693,64.384 162.971,64.750 163.241 C 65.117 163.511,65.454 163.774,65.500 163.825 C 65.546 163.875,65.958 164.216,66.417 164.583 C 67.697 165.606,72.305 170.274,73.758 172.020 C 74.471 172.878,75.155 173.679,75.278 173.801 C 75.400 173.924,75.501 174.075,75.501 174.137 C 75.502 174.199,75.746 174.514,76.043 174.837 C 76.340 175.160,76.918 175.835,77.328 176.337 C 79.345 178.811,82.534 181.972,85.750 184.687 C 86.117 184.996,86.454 185.287,86.500 185.333 C 86.546 185.380,87.033 185.755,87.583 186.167 C 88.133 186.579,88.621 186.959,88.667 187.012 C 90.406 189.027,98.378 192.309,102.256 192.607 C 103.894 192.733,103.891 192.737,103.144 191.372 C 102.319 189.865,101.333 187.810,101.333 187.597 C 101.333 187.549,101.146 187.100,100.917 186.599 C 100.688 186.098,100.500 185.607,100.500 185.508 C 100.500 185.410,100.426 185.199,100.335 185.039 C 100.055 184.550,99.066 181.349,98.596 179.417 C 98.352 178.408,98.084 177.321,98.002 177.000 C 97.845 176.382,97.271 173.531,96.912 171.583 C 96.625 170.026,96.088 168.519,95.377 167.274 C 95.055 166.711,94.603 165.912,94.371 165.500 C 90.473 158.562,83.237 152.625,76.833 151.113 C 75.018 150.684,74.149 150.560,68.917 149.981 C 67.511 149.825,58.595 149.637,58.167 149.753 " stroke="none" fill="#330066" fill-rule="evenodd"></path><path id="path5" d="" stroke="none" fill="#990033" fill-rule="evenodd"></path><path id="path6" d="" stroke="none" fill="#0000ff" fill-rule="evenodd"></path><path id="path7" d="" stroke="none" fill="#246db6" fill-rule="evenodd"></path><path id="path8" d="M278.333 85.552 C 278.333 88.321,278.623 89.628,279.679 91.623 C 281.902 95.821,288.106 103.544,291.842 106.763 C 292.260 107.122,292.842 107.625,293.137 107.879 C 294.047 108.664,295.404 109.462,296.348 109.767 C 297.218 110.048,297.681 110.274,300.284 111.688 C 301.610 112.408,304.755 113.665,306.273 114.081 C 306.810 114.228,307.625 114.451,308.083 114.576 C 308.542 114.702,309.367 114.893,309.917 115.001 C 310.467 115.110,311.217 115.265,311.583 115.347 C 312.583 115.569,315.534 115.987,317.417 116.173 C 321.522 116.577,323.149 116.642,325.250 116.486 C 326.442 116.397,328.842 116.254,330.583 116.168 C 335.347 115.933,338.235 115.497,342.667 114.345 C 344.583 113.846,349.101 112.537,350.167 112.171 C 351.114 111.846,353.106 111.131,353.417 111.005 C 358.738 108.844,363.812 107.401,367.500 106.999 C 369.855 106.743,373.546 106.508,375.282 106.504 C 376.124 106.502,376.857 106.431,376.909 106.346 C 376.986 106.221,373.053 104.167,372.738 104.167 C 372.689 104.167,372.310 104.013,371.897 103.824 C 369.902 102.915,364.988 101.407,360.333 100.276 C 358.122 99.738,357.375 99.577,355.167 99.157 C 353.766 98.891,350.587 98.367,349.667 98.250 C 349.162 98.186,348.600 98.092,348.417 98.040 C 347.865 97.885,335.746 97.984,333.417 98.163 C 327.367 98.627,312.172 98.296,307.000 97.588 C 306.679 97.544,305.367 97.392,304.083 97.251 C 298.242 96.607,294.701 95.597,290.083 93.258 C 285.950 91.165,283.096 88.912,280.143 85.412 C 278.205 83.115,278.333 83.105,278.333 85.552 M163.333 194.625 C 163.333 194.694,163.498 195.162,163.699 195.667 C 164.110 196.697,164.179 200.487,163.836 203.221 C 162.890 210.770,164.597 214.612,170.338 217.850 C 172.892 219.291,172.814 219.263,175.167 219.589 C 178.792 220.090,178.830 220.061,177.386 217.900 C 176.093 215.964,175.054 213.833,173.668 210.279 C 173.389 209.561,172.894 208.024,172.570 206.862 C 171.134 201.720,170.255 199.863,168.414 198.083 C 166.218 195.960,163.333 193.997,163.333 194.625 " stroke="none" fill="#a82682" fill-rule="evenodd"></path><path id="path9" d="M233.514 1.511 C 226.899 2.027,224.964 4.464,225.227 11.948 C 225.501 19.752,225.641 20.963,226.314 21.323 C 226.879 21.625,226.973 21.530,227.084 20.542 C 227.415 17.619,228.620 15.504,231.000 13.670 C 231.412 13.352,231.787 13.049,231.833 12.998 C 231.879 12.946,232.800 12.280,233.880 11.518 C 237.630 8.873,239.024 6.510,239.202 2.500 L 239.250 1.417 237.250 1.396 C 236.150 1.385,234.469 1.437,233.514 1.511 M106.328 53.833 C 104.270 55.893,102.046 58.296,101.309 59.255 C 101.099 59.527,100.887 59.788,100.837 59.833 C 100.761 59.903,100.124 60.671,99.044 61.997 C 97.692 63.659,95.956 66.027,94.759 67.846 C 93.949 69.076,92.998 70.507,92.645 71.025 C 92.292 71.542,91.952 72.105,91.891 72.275 C 91.829 72.444,91.655 72.771,91.503 73.000 C 91.351 73.229,90.907 74.279,90.516 75.333 C 90.125 76.387,89.739 77.400,89.659 77.583 C 89.495 77.957,88.903 79.700,85.920 88.583 C 82.221 99.602,82.311 99.394,80.392 101.298 C 78.669 103.006,78.756 103.235,80.760 102.274 C 82.150 101.608,84.304 100.283,85.916 99.103 C 87.234 98.139,87.062 98.276,89.750 96.048 C 90.850 95.136,92.350 93.947,93.083 93.407 C 94.582 92.303,94.701 92.207,96.568 90.583 C 99.346 88.167,101.895 85.364,103.541 82.917 C 103.972 82.275,104.700 81.209,105.157 80.547 C 106.156 79.103,106.714 78.011,106.971 77.000 C 107.358 75.478,107.972 72.728,108.087 72.000 C 108.153 71.587,108.237 71.100,108.275 70.917 C 108.970 67.579,109.119 56.484,108.522 52.500 L 108.410 51.750 106.328 53.833 M86.833 150.773 C 86.146 150.887,85.555 150.984,85.521 150.990 C 85.269 151.032,86.114 151.620,87.459 152.339 C 92.616 155.094,93.604 156.415,100.181 169.333 C 103.384 175.626,104.956 177.970,106.633 178.954 C 107.026 179.185,107.380 179.342,107.420 179.303 C 107.520 179.202,106.939 177.101,105.982 174.100 C 105.450 172.433,105.235 169.096,105.495 166.545 C 106.209 159.546,104.682 155.818,99.750 152.517 C 97.987 151.337,96.972 150.992,94.506 150.737 C 92.599 150.540,88.125 150.561,86.833 150.773 " stroke="none" fill="#e31e24" fill-rule="evenodd"></path><path id="path10" d="" stroke="none" fill="#d14600" fill-rule="evenodd"></path><path id="path11" d="M234.375 1.448 C 234.535 1.490,234.798 1.490,234.958 1.448 C 235.119 1.406,234.987 1.372,234.667 1.372 C 234.346 1.372,234.215 1.406,234.375 1.448 " stroke="none" fill="#ff0000" fill-rule="evenodd"></path><path id="path12" d="" stroke="none" fill="#24b6b6" fill-rule="evenodd"></path><path id="path13" d="M246.917 7.496 C 244.608 7.884,239.981 10.219,238.667 11.659 C 238.621 11.709,238.026 12.238,237.345 12.834 C 235.627 14.337,233.321 16.966,232.156 18.750 C 231.617 19.575,231.117 20.325,231.045 20.417 C 229.972 21.785,228.872 24.161,228.346 26.250 C 228.254 26.617,227.909 27.929,227.580 29.167 C 226.779 32.177,226.333 34.865,226.333 36.692 C 226.333 38.898,226.343 38.889,228.590 34.500 C 231.098 29.601,233.079 27.817,240.250 23.998 C 241.167 23.510,242.029 23.049,242.167 22.973 C 244.942 21.449,251.917 19.210,256.333 18.425 C 257.204 18.271,258.254 18.078,258.667 17.996 C 259.663 17.800,262.022 17.574,263.620 17.523 C 264.568 17.492,264.432 17.198,263.072 16.339 C 261.618 15.420,259.998 14.021,257.301 11.355 C 253.758 7.851,250.969 6.815,246.917 7.496 M107.000 41.909 C 104.781 42.294,103.668 42.599,101.667 43.369 C 100.414 43.850,100.131 43.971,98.583 44.686 C 96.791 45.513,94.463 47.082,89.217 50.998 C 86.959 52.684,80.231 59.181,76.012 63.750 C 75.335 64.483,74.398 65.496,73.931 66.000 C 69.951 70.295,69.051 71.266,68.833 71.504 C 68.201 72.193,66.709 73.815,64.309 76.420 C 62.875 77.976,61.341 79.700,60.900 80.250 C 60.459 80.800,60.056 81.287,60.005 81.333 C 59.954 81.379,59.576 81.829,59.165 82.333 C 58.753 82.837,58.183 83.512,57.898 83.833 C 57.612 84.154,56.460 85.467,55.339 86.750 C 50.865 91.868,48.465 94.418,46.000 96.668 C 45.098 97.492,43.849 98.640,42.748 99.657 C 42.196 100.167,40.885 101.371,39.832 102.333 C 38.780 103.296,37.397 104.571,36.759 105.167 C 34.675 107.111,32.496 108.938,30.062 110.781 C 21.334 117.393,14.035 121.601,5.417 124.991 C 3.950 125.568,2.600 126.102,2.417 126.177 C 2.233 126.253,1.615 126.448,1.042 126.611 C -0.756 127.122,-0.109 127.467,4.583 128.498 C 5.867 128.780,7.217 129.079,7.583 129.163 C 8.884 129.462,9.939 129.653,11.750 129.917 C 12.758 130.063,14.033 130.254,14.582 130.341 C 18.307 130.926,26.205 130.885,30.000 130.260 C 31.787 129.965,34.760 129.365,35.417 129.165 C 37.463 128.543,40.308 127.626,40.583 127.500 C 40.767 127.416,41.404 127.154,42.000 126.919 C 43.823 126.198,43.977 126.127,46.823 124.693 C 50.378 122.904,57.940 118.393,58.804 117.549 C 58.925 117.430,59.084 117.333,59.157 117.333 C 59.283 117.333,65.184 111.224,66.250 109.990 C 68.526 107.356,72.553 101.524,74.644 97.833 C 75.397 96.504,76.122 95.229,76.254 95.000 C 76.609 94.383,79.326 88.885,80.412 86.583 C 82.427 82.315,84.522 78.281,85.707 76.391 C 86.387 75.305,87.135 74.079,87.369 73.667 C 87.806 72.894,91.073 67.500,91.910 66.167 C 92.169 65.754,92.644 65.004,92.966 64.500 C 93.627 63.464,94.221 62.523,94.755 61.667 C 94.955 61.346,95.560 60.383,96.101 59.527 C 96.641 58.671,97.158 57.848,97.250 57.698 C 98.714 55.309,102.767 49.519,103.987 48.075 C 104.223 47.796,104.679 47.235,105.000 46.829 C 105.321 46.423,106.027 45.602,106.569 45.004 C 107.111 44.406,107.855 43.579,108.223 43.167 C 108.590 42.754,109.079 42.210,109.310 41.958 C 109.818 41.403,109.909 41.404,107.000 41.909 M272.850 51.423 C 271.573 52.877,270.881 57.632,271.487 60.783 C 271.572 61.223,271.769 62.408,271.926 63.417 C 272.127 64.708,272.367 65.570,272.739 66.333 C 273.593 68.086,276.158 72.514,276.504 72.833 C 276.554 72.879,276.888 73.329,277.247 73.833 C 278.773 75.978,281.391 78.799,283.250 80.305 C 283.892 80.824,284.454 81.289,284.500 81.338 C 285.636 82.555,293.766 87.180,297.113 88.514 C 299.654 89.526,305.084 91.215,307.750 91.822 C 308.208 91.927,309.071 92.122,309.667 92.257 C 313.497 93.121,324.022 93.512,330.750 93.039 C 343.350 92.155,350.039 92.333,353.417 93.640 C 354.543 94.076,356.803 94.667,357.344 94.667 C 358.204 94.667,356.337 90.974,354.598 89.236 C 352.703 87.341,347.334 83.418,343.667 81.247 C 343.071 80.894,342.110 80.316,341.532 79.961 C 337.412 77.434,329.316 74.516,324.750 73.912 C 323.496 73.746,318.942 72.949,317.750 72.687 C 317.383 72.606,316.521 72.419,315.833 72.270 C 314.483 71.978,311.042 71.114,308.500 70.428 C 306.873 69.989,305.447 69.638,302.250 68.891 C 285.858 65.058,278.813 60.788,274.175 51.875 C 273.542 50.658,273.526 50.653,272.850 51.423 " stroke="none" fill="#e86d1d" fill-rule="evenodd"></path><path id="path14" d="M179.750 0.245 C 178.215 0.560,175.929 1.322,174.288 2.065 C 173.992 2.199,173.338 2.494,172.833 2.720 C 168.486 4.672,168.220 4.812,167.656 5.454 C 166.783 6.449,166.775 6.446,170.958 6.541 C 174.874 6.629,175.981 6.797,178.038 7.617 C 180.723 8.686,184.564 11.855,186.103 14.270 C 186.271 14.534,186.449 14.787,186.498 14.833 C 186.814 15.130,187.696 16.754,189.440 20.250 C 192.653 26.688,192.945 27.165,195.867 30.750 C 198.636 34.148,201.139 35.096,199.511 32.130 C 198.095 29.550,197.782 24.961,198.645 19.417 C 199.749 12.318,199.745 10.241,198.623 7.789 C 197.469 5.268,194.245 2.160,191.546 0.966 C 189.503 0.063,182.674 -0.355,179.750 0.245 M106.833 89.922 C 104.922 90.304,102.752 91.244,99.917 92.919 C 98.669 93.656,95.352 95.810,95.167 96.004 C 95.121 96.052,94.860 96.233,94.588 96.407 C 94.315 96.581,94.015 96.791,93.921 96.873 C 93.827 96.955,93.000 97.547,92.083 98.187 C 90.749 99.118,88.886 100.872,82.750 106.970 C 75.489 114.186,73.240 116.377,70.912 118.500 C 69.246 120.020,68.811 120.386,66.994 121.804 C 66.035 122.553,65.171 123.230,65.073 123.309 C 64.359 123.894,58.142 126.991,55.129 128.264 C 54.604 128.486,53.779 128.847,53.296 129.067 C 40.075 135.081,32.792 136.488,22.167 135.078 C 18.271 134.561,14.497 134.338,14.503 134.625 C 14.513 135.144,20.146 138.647,23.500 140.220 C 26.056 141.420,26.999 141.833,27.173 141.833 C 27.264 141.833,27.468 141.900,27.627 141.981 C 28.393 142.370,30.192 142.997,31.777 143.426 C 34.020 144.033,34.510 144.149,35.917 144.408 C 36.742 144.560,37.717 144.750,38.083 144.831 C 39.570 145.159,45.608 145.540,47.750 145.441 C 50.725 145.304,54.019 145.038,55.417 144.822 C 57.277 144.535,59.361 144.168,60.083 144.000 C 60.450 143.914,61.313 143.722,62.000 143.573 C 63.807 143.180,65.232 142.723,66.750 142.051 C 68.831 141.128,68.994 141.059,70.531 140.433 C 77.827 137.463,84.311 132.614,88.603 126.917 C 88.949 126.458,89.275 126.046,89.328 126.000 C 90.101 125.331,93.052 120.117,93.714 118.250 C 94.645 115.621,97.927 106.985,98.350 106.051 C 98.524 105.666,98.667 105.304,98.667 105.247 C 98.667 105.189,99.042 104.351,99.500 103.384 C 99.958 102.417,100.333 101.601,100.333 101.569 C 100.333 101.466,102.185 98.274,102.887 97.167 C 103.923 95.533,105.882 92.940,106.666 92.167 C 106.943 91.892,107.979 90.525,108.141 90.219 C 108.480 89.578,108.514 89.586,106.833 89.922 " stroke="none" fill="#fe4f92" fill-rule="evenodd"></path><path id="path15" d="" stroke="none" fill="#ff00ff" fill-rule="evenodd"></path><path id="path16" d="M266.583 46.265 C 265.092 46.620,264.606 46.786,263.583 47.289 C 261.290 48.415,259.309 50.167,257.026 53.085 C 255.366 55.209,253.821 58.728,252.967 62.333 C 252.554 64.078,252.698 68.783,253.228 70.833 C 255.300 78.855,260.947 85.698,268.804 89.706 C 272.416 91.549,273.829 93.080,274.152 95.500 C 274.335 96.869,275.699 96.348,276.519 94.596 C 278.366 90.647,277.637 87.091,273.487 79.803 C 272.740 78.491,271.771 76.742,271.335 75.917 C 270.898 75.092,270.394 74.154,270.215 73.833 C 270.035 73.512,269.637 72.800,269.330 72.250 C 266.420 67.032,265.651 64.392,265.613 59.500 C 265.592 56.611,265.634 56.259,266.282 54.026 C 267.129 51.107,268.966 48.867,270.665 48.680 C 271.561 48.582,271.583 48.567,271.549 48.081 C 271.467 46.898,268.492 45.809,266.583 46.265 " stroke="none" fill="#66c3d0" fill-rule="evenodd"></path><path id="path17" d="" stroke="none" fill="#ff9900" fill-rule="evenodd"></path><path id="path18" d="M109.627 96.339 C 109.208 96.617,108.604 97.160,108.284 97.547 C 107.965 97.934,107.538 98.438,107.335 98.667 C 105.670 100.547,102.684 105.085,101.655 107.300 C 101.284 108.097,100.922 108.862,100.850 109.000 C 100.778 109.138,100.517 109.925,100.270 110.750 C 99.228 114.231,98.191 117.241,97.573 118.583 C 97.446 118.858,96.662 120.846,95.831 123.000 C 93.925 127.943,92.589 130.364,90.084 133.417 C 87.178 136.957,82.686 139.611,76.667 141.344 C 73.075 142.378,73.053 142.400,74.795 143.206 C 76.718 144.096,78.880 144.787,80.917 145.162 C 87.214 146.322,89.217 146.365,92.083 145.404 C 97.381 143.627,100.862 140.626,103.668 135.417 C 104.063 134.683,104.574 133.746,104.804 133.333 C 106.325 130.605,106.950 128.670,107.737 124.250 C 108.395 120.559,108.415 119.576,108.064 108.466 C 107.935 104.360,108.326 101.639,109.521 98.348 C 109.707 97.836,109.939 97.192,110.037 96.917 C 110.135 96.642,110.290 96.321,110.381 96.204 C 110.710 95.784,110.375 95.844,109.627 96.339 M319.917 119.321 C 316.777 120.023,312.947 121.883,310.917 123.690 C 306.686 127.455,306.459 128.155,306.611 136.963 C 306.719 143.209,306.626 144.931,306.131 145.889 C 305.882 146.372,306.096 146.411,307.115 146.069 C 308.197 145.706,309.497 144.542,311.013 142.583 C 311.939 141.387,312.362 140.884,313.667 139.428 C 314.079 138.968,314.492 138.507,314.583 138.403 C 315.394 137.482,315.856 136.941,316.495 136.160 C 316.905 135.660,317.552 134.912,317.932 134.500 C 318.312 134.087,318.876 133.450,319.186 133.084 C 321.218 130.681,324.909 127.020,326.667 125.662 C 327.079 125.344,327.454 125.039,327.500 124.986 C 328.068 124.319,330.859 122.987,333.429 122.154 C 336.844 121.047,337.349 120.337,334.863 120.138 C 334.068 120.074,332.592 119.939,331.583 119.837 C 323.411 119.014,321.639 118.936,319.917 119.321 M164.766 186.360 C 164.940 186.558,165.458 187.104,165.917 187.575 C 166.377 188.047,167.338 189.434,168.064 190.673 C 168.786 191.907,169.743 193.500,170.189 194.214 C 170.635 194.927,171.000 195.543,171.000 195.581 C 171.000 195.620,171.525 196.516,172.167 197.573 C 173.820 200.292,174.935 202.538,176.021 205.333 C 176.621 206.877,177.680 209.064,177.864 209.139 C 177.939 209.169,178.000 209.256,178.000 209.330 C 178.000 209.582,179.215 211.335,180.901 213.518 C 183.479 216.856,188.603 219.858,193.917 221.143 C 194.283 221.232,194.996 221.417,195.500 221.555 C 200.143 222.824,209.025 222.352,212.828 220.634 C 213.238 220.449,213.742 220.233,213.950 220.154 C 214.464 219.959,214.276 219.548,213.611 219.413 C 211.455 218.975,208.814 217.876,206.000 216.244 C 205.404 215.899,204.617 215.452,204.250 215.252 C 201.636 213.821,194.481 209.097,192.928 207.776 C 190.133 205.400,185.868 200.929,184.000 198.419 C 183.331 197.519,180.773 195.142,177.917 192.765 C 172.143 187.960,168.603 186.003,165.683 186.001 L 164.448 186.000 164.766 186.360 " stroke="none" fill="#f8d243" fill-rule="evenodd"></path><path id="path19" d="" stroke="none" fill="#00ffff" fill-rule="evenodd"></path></g></svg>